<?xml version="1.0" encoding="UTF-8" standalone="no"?>
<!DOCTYPE svg PUBLIC "-//W3C//DTD SVG 1.1//EN" "http://www.w3.org/Graphics/SVG/1.1/DTD/svg11.dtd">
<svg version="1.1" xmlns="http://www.w3.org/2000/svg" xmlns:xlink="http://www.w3.org/1999/xlink" preserveAspectRatio="xMidYMid meet" viewBox="171.6289061307283 267.48257561167657 343.9991719332842 134.06648223306286" width="344" height="134.07"><defs><path d="M251.32 294.72C251.68 294.88 252.58 294.87 252.4 295.21C252.32 295.44 252.22 295.67 252.12 295.87C250.83 298.62 244.37 312.42 232.74 337.25L240.44 289.58C245.58 292 249.21 293.71 251.32 294.72ZM208.36 382.8C208.9 383.47 208.8 384.42 208.7 385.24C208.52 386.71 208.33 388.17 208.13 389.64C208.05 390.36 207.85 391.13 207.26 391.61C206.13 392.54 204.41 392.41 203.46 391.28C202.41 389.28 203.33 387.07 203.41 384.97C203.53 383.99 203.66 382.93 204.48 382.27C205.57 381.22 207.56 381.55 208.36 382.8Z" id="a3zeD2jp3"></path><path d="M513.89 323.48C514.58 323.71 515.1 324.26 515.63 324.79C514.85 324.75 510.98 324.55 504 324.18C508.38 323.43 511.68 323.19 513.89 323.48ZM515.6 329.32C515.35 329.64 515.07 329.91 514.79 330.19C512.71 330.24 510.6 329.95 508.55 330.39C505.95 330.62 503.43 331.34 500.99 332.14C499.38 332.63 497.81 333.21 496.27 333.81C496.02 334.09 496.34 334.38 496.65 334.38C499.61 334.76 502.59 335.25 505.47 336.06C507.65 336.58 509.9 337.58 511.04 339.61C511.27 340.35 511.17 341.18 511.19 341.95C511.17 342.62 511.32 343.38 510.94 344.03C510.85 344.44 511.04 345 510.67 345.34C510.67 345.51 510.65 345.77 510.65 345.91C509.73 346.91 508.45 347.49 507.31 348.19C502.38 350.89 496.81 351.86 491.46 353.17C489.33 353.61 487.26 354.18 485.1 354.51C485 354.56 484.84 354.69 484.74 354.74C484.61 354.76 484.36 354.76 484.23 354.76C483.89 354.66 483.61 354.74 483.38 355C483.32 355.04 483.17 355.05 483.09 355.05C482.79 355.05 482.17 355 481.84 355C482.19 354.84 482.53 354.69 482.91 354.51C482.99 354.38 483.09 354.27 483.18 354.14C482.74 354.1 482.32 354.05 481.89 354.04C481.96 353.76 482.04 353.51 482.1 353.27C482.01 353.24 481.79 353.24 481.69 353.24C481.69 353.1 481.71 352.89 481.74 352.76C481.47 352.66 481.19 352.58 480.94 352.48C480.91 352.33 480.89 352.06 480.89 351.91C480.61 351.79 480.37 351.66 480.12 351.53C479.65 352.27 479.19 353.01 478.7 353.71C478.65 353.46 478.57 352.94 478.53 352.66C478.32 353.1 478.09 353.56 477.85 354C477.81 353.81 477.76 353.42 477.71 353.24C477.22 353.51 476.75 353.84 476.34 354.28C476.18 354.48 476 354.66 475.82 354.84C475.52 354.89 475.24 354.94 474.96 354.99C474.77 354.58 474.47 354.28 474.14 353.99C474.14 353.38 474.32 352.79 474.44 352.22C474.82 351.27 475.23 350.32 475.57 349.34C478.17 342.92 481.14 336.66 483.95 330.34C485 328.37 485.79 326.25 486.85 324.28C488.8 323.48 491.19 323.82 492.8 325.2C493.67 325.85 494.09 326.9 494.08 327.97C495.27 327.44 496.52 326.92 497.65 326.2C497.66 326.19 497.73 326.15 497.74 326.15C499.37 325.62 501 325.15 502.56 324.44C503.05 324.39 503.51 324.25 504 324.18C504.78 324.52 508.65 326.19 515.63 329.19C515.61 329.25 515.6 329.29 515.6 329.32ZM396.32 319.53C397.58 319.68 398.84 319.61 400.1 319.63C400.82 319.58 401.41 320.09 401.99 320.45C402.07 320.56 402.25 320.73 402.31 320.82C402.25 321.92 402.36 323.05 402.35 324.15C402.31 324.33 402.3 324.71 402.3 324.9C402.27 324.95 402.2 325.02 402.17 325.08C401.94 325.39 401.74 325.75 401.53 326.05C400.3 326.1 398.94 325.75 397.83 326.43C397.27 326.47 396.7 326.47 396.12 326.54C391.93 327.18 387.89 328.62 384.02 330.34C383.6 330.54 383.14 330.67 382.79 330.96C382.69 331.04 382.55 331.19 382.45 331.27C382.89 331.29 383.35 331.32 383.79 331.32C384.12 331.9 384.84 331.72 385.36 331.57C385.74 331.57 386.12 331.57 386.49 331.58C387.17 331.99 387.97 331.96 388.7 332.06C391.21 332.47 393.7 332.96 395.98 334.06C396.58 334.61 397.22 335.15 397.6 335.89C397.79 337.2 397.7 338.56 397.5 339.89C397.4 340.62 397.27 341.35 397.11 342.08C397.1 342.1 397.06 342.23 397.06 342.25C396.98 342.38 396.83 342.61 396.75 342.72C395.65 343.33 394.7 344.13 393.63 344.75C391.51 345.96 389.26 346.95 386.97 347.85C385.4 348.29 383.84 348.8 382.3 349.29C379.26 350.09 376.23 350.96 373.23 351.86C373.22 351.86 373.13 351.89 373.11 351.89C371.56 352.22 370.02 352.61 368.51 353.05C368.45 352.99 368.32 352.81 368.27 352.74C368.74 352.56 369.22 352.37 369.66 352.14C368.97 351.89 368.23 352.09 367.51 352.17C367.74 351.91 367.99 351.7 368.23 351.43C368.07 350.79 367.59 350.29 367.27 349.71C366.94 349.53 366.64 349.39 366.35 349.24C366.32 349.12 366.24 348.9 366.22 348.76C366.07 348.71 365.76 348.6 365.61 348.55C365.55 348.47 365.42 348.32 365.35 348.24C365.61 348.09 365.89 347.96 366.17 347.85C367.51 347.29 368.94 346.86 370.21 346.19C370.22 346.19 370.27 346.18 370.28 346.18C371.85 345.87 373.33 345.28 374.88 344.85C377.55 344.03 380.32 343.38 382.87 342.18C384.74 341.48 386.64 340.8 388.44 339.94C388.74 339.81 389.03 339.71 389.36 339.58C389.64 339.41 389.92 339.25 390.18 339.09C387.59 338.81 384.97 338.48 382.37 338.38C382.27 338.36 382.12 338.28 382.02 338.25C380.11 338 378.11 337.73 376.31 336.89C375.6 336.63 375.41 335.78 374.7 335.53C374.01 336.99 373.02 338.28 372.21 339.67C372.07 339.9 371.89 340.1 371.74 340.28C371.33 340.41 371.16 340.77 371.16 341.15C371.12 341.23 371.02 341.33 370.98 341.38C370.54 341.43 370.31 341.8 370.36 342.23C370.31 342.28 370.23 342.34 370.18 342.39C369.66 342.75 369.33 343.28 369.07 343.82C368.71 344.18 368.4 344.57 368.09 344.98C367.45 345.82 366.61 346.47 365.92 347.24C364.88 348.34 363.89 349.62 362.4 350.12C361.42 350.65 360.27 350.6 359.31 351.04C359.09 351.04 358.7 351.04 358.51 351.04C358.03 351.01 357.52 351.01 357.05 351.04C356.88 351.04 356.52 351.01 356.36 351.01C354.84 350.6 353.33 350.19 351.94 349.44C351.91 349.42 351.84 349.37 351.79 349.34C351.07 348.57 350.28 347.81 349.86 346.85C349.66 346.24 349.71 345.57 349.43 345.03C349.42 344.08 349.42 343.13 349.42 342.2C349.61 341.33 349.71 340.43 349.79 339.56C350.14 337.32 350.84 335.15 351.76 333.09C352.53 331.29 353.31 329.49 354.05 327.7C354.17 327.44 354.28 327.2 354.38 326.95C354.66 326.34 354.93 325.75 355.18 325.13C355.48 324.39 355.75 323.67 356.08 322.95C356.57 321.95 357.33 321.09 358.31 320.53C359.08 320.38 359.9 320.43 360.7 320.48C361.94 320.66 362.8 321.68 363.66 322.51C364.14 323.18 364.02 324.05 363.93 324.82C363.91 324.85 363.81 325.06 363.8 325.08C363.71 325.25 363.6 325.54 363.52 325.7C362.55 327.87 361.52 330.04 360.4 332.16C359.55 333.76 358.85 335.43 358.33 337.15C358.13 337.77 357.95 338.38 357.75 338.99C357.69 339.36 357.6 339.71 357.46 340.05C357.42 340.51 357.41 340.98 357.18 341.38C357.18 342.23 356.85 343.18 357.31 344C357.85 344.24 358.52 344.08 359.13 344.18C360.36 343.03 361.67 341.93 362.65 340.51C365.24 337.04 368.02 333.63 370.07 329.77C370.76 328.52 371.18 327.13 371.85 325.85C372.11 325.57 372.33 325.3 372.56 325C372.69 325.1 372.93 325.28 373.08 325.38C373.11 325 373.21 324.67 373.36 324.35C373.41 323.87 373.41 323.38 373.79 323.05C373.9 323.15 374.13 323.38 374.26 323.49C374.33 323.08 374.42 322.66 374.83 322.43C375.47 321.91 375.73 321.09 376.13 320.38C376.93 321.25 377.31 322.35 377.65 323.44C377.73 324.15 377.7 324.82 377.7 325.52C377.7 325.92 377.7 326.29 377.73 326.7C378.21 326.44 378.7 326.18 379.17 325.9C380.12 325.49 380.99 324.97 381.88 324.48C385.36 322.56 389.13 321.15 393.01 320.25C394.03 319.99 395.11 320.04 396.07 319.58C396.07 319.58 396.07 319.58 396.07 319.58C396.19 319.57 396.28 319.55 396.32 319.53ZM358.9 344.24C358.31 344.23 357.69 344.23 357.08 344.19C357.1 343.7 357.03 343.18 356.85 342.7C356.83 343.75 356.85 344.8 356.88 345.85C356.88 345.85 356.88 345.85 356.88 345.85C357.87 345.23 358.54 344.69 358.9 344.24ZM368.87 350.14C368.87 350.14 368.87 350.14 368.87 350.14C369.45 350.16 369.45 350.16 368.87 350.14ZM318.33 319.91C319.51 320.33 320.61 320.91 321.56 321.73C321.61 321.77 321.67 321.91 321.72 321.97C321.71 322.4 321.87 322.72 322.25 322.9C322.25 323.58 322.28 324.3 321.9 324.9C320.3 327.77 319.09 330.85 317.61 333.76C316.09 337.15 314.52 340.56 312.94 343.92C312.81 344.1 312.71 344.28 312.58 344.47C312.55 344.53 312.27 344.97 312.24 345.03C313.94 345.13 315.63 344.82 317.3 344.72C317.81 344.9 318.56 345.08 318.82 344.47C319.23 344.47 319.66 344.47 320.05 344.47C321.43 344.52 322.82 343.95 324.18 344.56C324.19 344.59 324.27 344.86 324.28 344.9C324.28 344.95 324.24 345.1 324.24 345.14C324.44 345.18 324.82 345.23 325.03 345.23C325.03 345.26 325.04 345.49 325.05 345.52C324.6 345.77 324.13 346 323.67 346.23C323.67 346.37 323.7 346.67 323.7 346.82C323.71 346.83 323.75 346.91 323.82 347.04C323.92 347.19 323.97 347.27 323.98 347.29C324.29 347.34 324.62 347.37 324.95 347.37C325.39 347.81 325.82 348.27 326.27 348.71C325.28 349.19 324.15 349.32 323.08 349.57C320.85 350.01 318.61 350.47 316.33 350.79C316.25 350.84 316.06 350.96 315.99 351.04C315.96 351.04 315.74 351.04 315.71 351.04C315.37 350.91 315.09 351.01 314.94 351.34C314.91 351.33 314.69 351.32 314.66 351.32C314.32 351.19 314.04 351.29 313.86 351.61C313.84 351.61 313.65 351.6 313.63 351.6C313.29 351.47 313.01 351.56 312.81 351.84C312.8 351.84 312.69 351.86 312.68 351.86C310.9 352.14 309.23 352.79 307.49 353.28C306.65 353.48 305.82 353.86 304.92 353.79C303.81 353.38 303.25 352.24 302.25 351.65C302.33 350.76 302.38 349.86 302.25 348.99C302.58 348.44 302.9 347.86 303.43 347.49C303.87 346.96 304.18 346.34 304.49 345.72C305.71 343.52 306.77 341.28 307.87 339.04C308.23 338.33 308.57 337.61 308.9 336.91C309.57 335.66 310.05 334.37 310.63 333.09C310.65 333.07 310.74 332.91 310.75 332.89C312.06 330.23 313.04 327.39 314.16 324.62C314.52 323.71 314.86 322.72 314.86 321.71C315.24 321.1 315.66 320.53 316.24 320.09C316.24 320.09 316.24 320.09 316.24 320.09C317.16 319.91 317.86 319.85 318.33 319.91ZM354.43 320.28C354.53 320.48 354.74 320.82 354.84 321.04C354.98 321.04 355.28 321.04 355.43 321.04C355.51 321.33 355.57 321.66 355.69 321.95C355.57 322.1 355.43 322.35 355.33 322.5C354.41 323.95 353.18 325.23 352.22 326.65C352.17 326.72 352.04 326.82 351.99 326.87C351.46 327.23 351.02 327.65 350.89 328.28C350.33 328.85 349.84 329.42 349.38 330.04C348.91 330.42 348.52 330.9 348.27 331.44C348.22 331.49 348.14 331.62 348.09 331.67C347.09 332.62 346.29 333.73 345.62 334.91C345.6 334.96 345.55 335.04 345.52 335.09C344.42 336.15 343.6 337.48 342.7 338.71C341.93 339.89 340.95 340.94 340.33 342.23C340.31 342.28 340.23 342.34 340.18 342.41C339.7 342.87 339.31 343.47 339.05 344.1C337.98 345.77 336.79 347.39 335.89 349.19C335.76 349.39 335.66 349.62 335.58 349.81C335.46 350.14 335.36 350.47 335.23 350.79C334.89 351.24 334.53 351.74 334.04 352.06C332.91 352.24 331.76 352.12 330.65 352.14C330.64 352.13 330.54 352.09 330.53 352.09C329.34 351.43 327.39 350.89 327.67 349.14C327.7 348.65 327.7 348.14 327.67 347.67C327.24 345.87 326.96 344.05 326.57 342.28C326.13 339.38 325.47 336.53 324.96 333.63C324.87 333.16 324.85 332.67 324.6 332.24C324.56 330.91 324.18 329.62 323.92 328.33C323.56 326.65 323.23 324.97 322.8 323.3C322.7 322.87 322.72 322.43 323.03 322.09C323.23 321.82 323.43 321.61 323.62 321.38C325.37 320.61 327.24 321.43 328.8 322.25C328.76 322.76 329.27 323.13 329.75 322.95C330.42 323.76 330.81 324.72 331.06 325.75C331.12 326.05 331.12 326.34 331.12 326.65C331.12 327.54 331.43 328.42 331.58 329.29C331.86 331.01 332.14 332.71 332.42 334.43C332.38 335.11 332.33 335.81 332.42 336.48C332.51 336.56 332.69 336.76 332.79 336.84C332.79 336.96 332.84 337.19 332.84 337.32C332.86 338.23 333.01 339.18 333.22 340.08C333.63 339.82 333.94 339.48 334.19 339.05C334.2 339.04 334.3 338.92 334.32 338.9C334.51 338.63 334.71 338.36 334.91 338.09C335.58 337.14 336.26 336.2 336.99 335.32C337.8 334.2 338.95 333.34 339.62 332.09C340.6 331.85 341.29 331.06 341.88 330.29C341.89 330.24 341.93 329.82 341.93 329.77C342.14 329.77 342.37 329.77 342.6 329.8C342.65 329.95 342.75 330.27 342.82 330.42C342.85 330.14 342.88 329.85 342.88 329.54C342.7 328.7 343.18 327.97 343.65 327.33C344.08 327.42 344.52 327.54 344.94 327.65C345.14 327.38 345.34 327.13 345.55 326.85C345.86 326.44 346.22 326.07 346.55 325.66C346.62 325.48 346.7 325.33 346.8 325.15C346.86 325.77 346.27 326.15 345.98 326.61C345.62 326.97 345.76 327.52 345.76 328C346.45 327.28 347.09 326.44 348.02 326C347.99 325.67 347.97 325.33 347.97 324.97C348.86 324.9 349.42 324.13 350.09 323.63C349.94 324.13 349.69 324.62 349.46 325.1C350.22 324.97 350.56 324.3 350.94 323.76C351.02 323.67 351.12 323.49 351.17 323.43C351.18 323.42 351.21 323.37 351.28 323.28L351.28 323.28C352.57 321.83 353.62 320.83 354.43 320.28ZM446.09 320.66C447.24 320.76 448.35 320.76 449.51 320.78C451.49 320.81 453.43 321.33 455.33 321.87C455.34 321.88 455.46 321.9 455.47 321.91C456.72 322.92 458.44 322.53 459.86 322.18C460.72 322.15 461.53 322.13 462.39 322.13C462.89 322.33 463.56 322.4 463.91 321.87C464.47 321.87 465.01 321.87 465.56 321.86C466.05 322 466.77 322.2 467.09 321.61C467.63 321.61 468.18 321.58 468.72 321.58C469.2 321.76 469.94 321.91 470.23 321.3C470.61 321.3 470.95 321.3 471.33 321.3C471.85 321.53 472.52 321.58 472.9 321.05C472.93 321.05 473.17 321.05 473.19 321.05C473.57 321.58 474.23 321.53 474.72 321.28C475.23 321.3 475.72 321.3 476.22 321.35C477.37 321.71 478.57 321.56 479.75 321.68C480.38 321.63 480.7 322.28 481.06 322.66C481.19 322.72 481.42 322.87 481.53 322.95C481.61 323.05 481.74 323.2 481.81 323.28C481.09 323.3 480.37 323.33 479.65 323.43C479.86 323.48 480.09 323.56 480.32 323.61C480.32 323.82 480.34 324.25 480.34 324.44C480.43 324.56 480.7 324.72 480.79 324.82C480.99 325.2 481.33 325.43 481.69 325.66C481.71 325.9 481.76 326.18 481.81 326.43C482.17 326.75 482.48 327.1 482.74 327.52C481.96 327.44 481.19 327.47 480.47 327.65C479.14 328 477.76 327.62 476.44 327.92C475.29 328.18 474.1 327.9 473 328.33C472.56 328.39 472.13 328.42 471.67 328.44C471.46 328.72 471.23 328.96 471.03 329.24C470.82 329.57 470.67 329.91 470.56 330.27C470.33 330.91 470.2 331.63 469.85 332.27C467.04 337.48 464.43 342.8 461.8 348.13C461.24 349.17 460.75 350.27 460.27 351.37C459.72 352.51 459.44 353.79 458.62 354.79C458.19 354.89 457.77 354.99 457.37 355.05C456.47 354.38 455.54 353.81 454.8 352.99C454.44 352.56 454.15 352.96 453.9 353.27C453.85 353.14 453.71 352.91 453.62 352.79C453.25 352.91 452.85 353.01 452.48 353.14C451.53 353.71 450.38 353.22 449.91 352.29C449.33 351.06 448.96 349.75 448.38 348.52C448.38 348.5 448.34 348.36 448.33 348.34C447.61 346.24 447.04 344.1 446.35 341.98C446.16 340.9 445.83 339.89 445.58 338.84C445.14 338.94 444.67 339.09 444.21 339.2C444.11 339.23 443.95 339.28 443.86 339.3C442.21 339.63 440.62 340.18 439.02 340.66C437.74 340.95 437.64 342.51 436.87 343.33C436.83 343.34 436.52 343.42 436.48 343.43C436.49 343.15 436.54 342.62 436.58 342.34C436.15 343.05 435.76 343.8 435.67 344.62C434.76 345.62 434.12 346.82 433.48 348.03C433.15 348.47 432.96 348.99 432.78 349.48C432.02 350.57 431.55 351.79 431.01 352.99C430.38 352.29 429.58 351.7 428.58 351.86C428.45 351.89 428.21 351.89 428.09 351.91C427.83 351.94 427.39 351.99 427.16 351.99C425.96 351.14 425.34 349.8 425.09 348.37C425.05 348.27 424.96 348.08 424.91 347.95C424.88 347.85 424.87 347.6 424.87 347.49C424.78 347.34 424.69 347.04 424.64 346.9C424.64 346.8 424.59 346.6 424.59 346.5C424.41 344.82 423.92 343.2 423.72 341.53C422.36 341.62 421.1 342.1 419.82 342.46C418.31 342.93 416.79 343.29 415.45 344.1C414.97 344.33 414.48 344.56 414.07 344.87C412.73 346.42 411.45 348.04 410.31 349.75C409.72 350.34 409.11 350.99 408.36 351.43C407.03 350.37 405.74 349.29 404.39 348.24C404.39 347.62 404.39 346.96 404.44 346.34C404.45 346.32 404.5 346.15 404.51 346.13C405.29 344.52 406.49 343.2 407.64 341.85C408.29 341.15 408.72 340.25 409.31 339.51C410.49 337.77 411.7 336.06 413.01 334.42C414.06 332.8 414.91 331.01 415.92 329.39C416.01 329.28 416.12 329.05 416.2 328.91C416.97 327.54 417.74 326.18 418.53 324.82C418.59 324.48 418.68 324.13 418.77 323.81C418.84 323.53 418.95 323.28 419.07 323.02C419.25 322.66 419.36 322.28 419.48 321.87C420.35 321.23 421.44 321.23 422.49 321.33C423.87 321.86 425.62 322.25 426.14 323.82C426.73 325.72 426.86 327.72 427.19 329.7C427.39 330.67 427.24 331.75 427.68 332.67C427.78 333.24 427.91 333.8 428.03 334.37C428.24 335.09 429.06 334.68 429.58 334.63C430.55 334.42 431.63 334.73 432.5 334.19C432.78 334.19 433.02 334.16 433.3 334.16C433.33 334.09 433.4 333.96 433.45 333.89C433.46 333.87 433.57 333.69 433.58 333.66C434.12 332.52 434.68 331.37 435.25 330.24C435.35 330.06 435.45 329.9 435.53 329.7C435.54 329.67 435.63 329.42 435.64 329.39C435.69 329.28 435.76 329 435.77 328.85C435.35 328.57 434.95 328.33 434.54 328.01C433.97 327.42 433.35 326.87 432.86 326.2C432.45 325.67 432.6 324.97 432.55 324.35C434.28 322.76 436.77 322.63 438.69 321.45C439.62 321.05 440.62 320.81 441.62 320.78C441.62 320.78 441.62 320.78 441.62 320.78C443.6 320.58 445.09 320.54 446.09 320.66ZM444.49 327.18C443.86 328.77 443.11 330.34 442.57 331.99C442.55 332 442.36 332.04 442.34 332.04C442.09 332.42 441.95 332.85 441.87 333.29C442.42 333.16 442.96 333.04 443.47 332.8C446.47 331.52 449.51 330.32 452.18 328.47C452.2 328.46 452.33 328.4 452.35 328.39C451.97 327.8 451.66 327.18 451.4 326.49C449.15 326.57 446.71 326.05 444.63 327.15C444.63 327.15 444.63 327.15 444.63 327.15C444.54 327.17 444.5 327.18 444.49 327.18ZM461.16 330.34C460.16 331.49 458.95 332.42 457.65 333.24C457.1 333.43 456.57 333.76 456.06 334.06C454.44 334.47 453.3 335.76 451.72 336.25C451.71 336.56 451.71 336.84 451.72 337.14C451.73 337.13 451.74 337.1 451.77 337.05C451.76 337.08 451.76 337.1 451.76 337.1C452.08 337.84 452.15 338.63 452.38 339.38C452.33 340.53 452.77 341.66 452.95 342.8C453.15 343.43 452.97 344.23 453.48 344.75C453.56 345.67 453.75 346.6 453.87 347.52C454.28 346.72 454.7 345.95 454.97 345.1C454.98 345.08 455.11 344.99 455.13 344.98C456.06 342.8 457.11 340.66 458.28 338.58C459.34 336.43 460.57 334.37 461.67 332.24C461.94 331.32 462.75 330.49 462.57 329.44C462.11 329.54 461.68 329.64 461.27 329.75C461.27 329.75 461.27 329.75 461.27 329.75C461.2 330.04 461.16 330.24 461.16 330.34ZM420.26 335.33C420.26 335.31 420.22 335.11 420.21 335.09C420.07 335.51 419.22 336.28 419.92 336.53C420.74 336.53 421.52 336.15 422.26 335.89C422.64 335.01 421.97 334.16 422.07 333.27C421.48 333.06 421.12 333.53 421.05 334.06C421.05 334.06 421.05 334.06 421.05 334.06C420.7 334.63 420.44 335.05 420.26 335.33ZM430.16 341.03C430.24 340.76 430.35 340.48 430.45 340.2C430.2 340.2 429.93 340.2 429.68 340.18C429.68 340.18 429.68 340.18 429.68 340.18C429.88 340.56 430.04 340.85 430.16 341.03ZM294.19 323.02C294.91 323.56 295.62 324.13 296.19 324.82C296.21 325.52 295.96 326.2 295.73 326.87C295.63 327.15 295.57 327.42 295.47 327.7C295.35 327.95 295.26 328.23 295.19 328.49C292.83 334.48 290.21 340.38 287.35 346.14C286.33 347.91 285.5 349.8 284.76 351.7C284.71 351.79 284.59 351.99 284.55 352.09C284.07 352.66 283.78 353.42 283.12 353.81C282.01 354.14 280.91 352.91 279.88 353.61C279.78 353.51 279.55 353.28 279.44 353.19C278.76 352.66 278.72 351.84 278.76 351.04C278.88 349.08 279.73 347.22 280.4 345.37C281.25 343.18 282.45 341.15 283.38 338.99C281.66 340.38 280.4 342.25 279.19 344.08C278.91 344.75 278.21 345.05 277.68 345.47C277.54 345.57 277.26 345.75 277.11 345.85C276.01 345.51 275.05 344.72 273.82 344.7C272.84 344 272.26 342.93 271.77 341.82C271.49 341.28 271.48 340.62 271.15 340.1C271.12 339.95 271.07 339.66 271.07 339.51C270.84 339.1 270.82 338.66 270.79 338.2C270.69 338.18 270.48 338.14 270.36 338.1C270.2 338.53 270.02 338.95 269.84 339.36C269.3 340.66 268.74 341.95 268.17 343.23C267.43 344.98 266.69 346.72 265.96 348.44C264.7 350.86 263.78 353.46 262.45 355.84C261.73 355.46 260.78 355.66 260.13 355.15C259.46 355.23 258.78 355.36 258.13 355.51C257.93 355.31 257.77 355.1 257.61 354.89C257.51 354.74 257.36 354.43 257.29 354.28C257.11 353.05 257.61 351.89 257.92 350.71C258.93 347.95 259.98 345.14 261.24 342.46C261.49 341.93 261.7 341.35 261.88 340.77C261.91 340.66 261.98 340.43 262.03 340.3C262.21 339.94 262.4 339.58 262.55 339.2C263.83 336.46 265.12 333.68 266.53 330.99C267.1 329.57 267.5 328.1 268.07 326.7C268.2 326.44 268.3 326.2 268.43 325.95C268.59 325.59 268.77 325.28 268.97 324.92C269.25 324.48 269.54 324.08 269.9 323.67C271.26 323.71 272.62 323 274.02 323.35C275.01 323.61 275.64 324.49 276.31 325.23C276.59 326.39 276.06 327.64 276.24 328.85C276.26 330.47 276.11 332.09 276.21 333.71C276.21 333.91 276.24 334.32 276.24 334.48C276.29 335.25 276.57 336.01 276.91 336.71C277.11 336.56 277.29 336.42 277.49 336.25C277.68 336.04 277.91 335.81 278.14 335.58C278.81 334.86 279.4 334.09 280.07 333.34C282.63 330.99 285 328.44 287.33 325.85C288.21 325.07 288.95 324.08 290 323.48C290 323.48 290 323.48 290 323.48C291.86 322.91 293.25 322.76 294.19 323.02ZM304.38 323.1C305.67 323.28 306.47 324.33 307.42 325.1C307.34 325.57 307.49 326.1 307.34 326.57C307.29 326.72 307.18 327 307.1 327.13C305.85 329.57 304.25 331.81 303.18 334.34C302.04 336.96 300.68 339.46 299.56 342.08C298.81 343.8 297.81 345.42 297.14 347.19C297.13 347.2 297.1 347.31 297.09 347.32C296.53 348.37 296.01 349.44 295.34 350.42C295.11 350.79 294.72 350.99 294.34 351.14C294.24 351.34 294.16 351.53 294.09 351.71C294.01 351.53 293.86 351.22 293.78 351.04C293.34 351.76 292.91 352.48 292.57 353.27C292.31 353.17 292.06 353.09 291.85 353.01C291.42 353.37 290.95 353.69 290.49 354C290.1 354.37 289.67 354.74 289.26 355.1C288.95 355.28 288.59 355.48 288.25 355.66C288.25 355.48 288.21 355.13 288.21 354.95C288.18 354.96 287.9 354.98 287.87 354.99C287.74 355 287.53 355.04 287.4 355.04C287.38 354.66 287.38 354.28 287.38 353.91C287.82 353.1 288.02 352.19 288.33 351.34C288.44 351.12 288.54 350.86 288.59 350.6C289.48 348.49 290.26 346.34 291.19 344.28C292.47 341.3 293.67 338.3 295.01 335.38C296.35 332.37 297.63 329.29 299.04 326.33C299.56 325.28 299.78 324.02 300.71 323.23C300.71 323.23 300.71 323.23 300.71 323.23C302.34 323.08 303.56 323.04 304.38 323.1ZM484.15 346.65C484.09 346.8 483.95 347.08 483.89 347.22C483.56 347.67 483.33 348.14 483.18 348.67C488.28 347.37 493.42 346.24 498.42 344.57C499.89 344.05 501.48 343.7 502.84 342.87C503.08 342.75 503.36 342.57 503.61 342.43C503.12 342.28 502.61 342.15 502.08 342.15C499.96 341.93 497.89 341.51 495.8 341.23C495.03 340.9 494.14 340.94 493.37 340.67C492.03 340.3 490.7 339.95 489.46 339.3C489.41 339.23 489.28 339.1 489.2 339.04C489.05 338.76 488.93 338.48 488.8 338.18C488.67 338.18 488.47 338.15 488.38 338.15C486.89 340.94 485.56 343.8 484.15 346.65Z" id="c2e99Ra0Hx"></path><path d="M510.52 320.82C511.26 321.09 511.8 321.71 512.35 322.23C512.3 323.08 512.37 323.9 512.66 324.71C512.71 325.38 512.42 326.05 512.22 326.7C511.98 327 511.7 327.29 511.42 327.57C509.36 327.62 507.23 327.33 505.18 327.75C502.59 327.97 500.07 328.72 497.61 329.52C496.02 330 494.45 330.57 492.9 331.16C492.65 331.47 492.98 331.75 493.27 331.76C496.24 332.14 499.22 332.63 502.12 333.42C504.28 333.96 506.52 334.94 507.69 336.99C507.9 337.73 507.8 338.53 507.83 339.3C507.8 340 507.95 340.76 507.57 341.38C507.47 341.82 507.69 342.38 507.31 342.72C507.31 342.85 507.28 343.15 507.28 343.28C506.36 344.29 505.08 344.87 503.93 345.57C499.02 348.24 493.45 349.24 488.08 350.53C485.95 350.99 483.89 351.56 481.74 351.86C481.65 351.94 481.47 352.04 481.37 352.11C481.24 352.11 480.99 352.14 480.86 352.14C480.52 352.01 480.24 352.09 480.01 352.38C479.94 352.38 479.79 352.43 479.71 352.43C479.42 352.42 478.8 352.38 478.47 352.37C478.81 352.22 479.17 352.06 479.53 351.89C479.61 351.76 479.71 351.65 479.81 351.52C479.37 351.47 478.94 351.43 478.52 351.42C478.6 351.14 478.66 350.89 478.75 350.61C478.65 350.61 478.42 350.61 478.32 350.6C478.32 350.48 478.34 350.24 478.37 350.12C478.09 350.04 477.81 349.94 477.57 349.84C477.53 349.71 477.52 349.42 477.52 349.27C477.24 349.14 476.99 349.01 476.75 348.9C476.27 349.65 475.82 350.37 475.32 351.09C475.27 350.81 475.19 350.29 475.18 350.04C474.95 350.48 474.72 350.94 474.47 351.38C474.44 351.19 474.39 350.79 474.34 350.58C473.85 350.89 473.37 351.22 472.98 351.66C472.8 351.84 472.62 352.04 472.44 352.22C472.15 352.27 471.87 352.32 471.61 352.37C471.39 351.96 471.1 351.66 470.77 351.37C470.77 350.76 470.95 350.17 471.08 349.6C471.46 348.62 471.85 347.67 472.2 346.72C474.8 340.3 477.76 334.04 480.58 327.72C481.66 325.72 482.42 323.63 483.48 321.66C485.43 320.86 487.84 321.2 489.42 322.58C490.29 323.23 490.72 324.28 490.7 325.34C491.9 324.82 493.14 324.3 494.27 323.58C494.28 323.57 494.36 323.53 494.37 323.53C495.99 323 497.65 322.53 499.19 321.82C499.69 321.76 500.14 321.63 500.64 321.53C500.64 321.53 500.64 321.53 500.64 321.53C505.02 320.78 508.31 320.54 510.52 320.82ZM392.96 316.91C394.21 317.06 395.48 316.96 396.73 316.99C397.45 316.96 398.06 317.47 398.63 317.81C398.69 317.91 398.87 318.11 398.94 318.2C398.87 319.3 399.01 320.4 398.97 321.51C398.94 321.71 398.92 322.09 398.92 322.25C398.89 322.3 398.83 322.4 398.79 322.45C398.58 322.77 398.37 323.1 398.15 323.43C396.93 323.44 395.58 323.13 394.45 323.81C393.91 323.82 393.32 323.85 392.75 323.9C388.56 324.53 384.51 326 380.65 327.7C380.25 327.9 379.78 328.05 379.42 328.34C379.32 328.42 379.17 328.54 379.07 328.62C379.52 328.65 379.98 328.7 380.42 328.67C380.75 329.24 381.47 329.06 381.99 328.91C382.37 328.95 382.74 328.95 383.12 328.96C383.79 329.37 384.59 329.34 385.35 329.44C387.84 329.85 390.34 330.34 392.6 331.42C393.21 331.99 393.85 332.52 394.22 333.27C394.44 334.58 394.32 335.94 394.13 337.25C394.03 337.99 393.91 338.72 393.73 339.46C393.73 339.48 393.69 339.61 393.68 339.63C393.6 339.72 393.45 339.99 393.39 340.08C392.27 340.71 391.34 341.51 390.26 342.13C388.13 343.34 385.89 344.33 383.6 345.19C382.04 345.67 380.47 346.14 378.93 346.67C375.88 347.44 372.85 348.34 369.85 349.24C369.84 349.24 369.75 349.27 369.74 349.27C368.18 349.6 366.64 349.99 365.14 350.43C365.07 350.34 364.94 350.19 364.89 350.09C365.37 349.91 365.84 349.75 366.28 349.52C365.6 349.24 364.88 349.47 364.14 349.53C364.37 349.27 364.61 349.04 364.88 348.81C364.7 348.14 364.22 347.65 363.89 347.08C363.57 346.91 363.27 346.77 362.98 346.62C362.94 346.49 362.88 346.24 362.85 346.13C362.7 346.08 362.4 345.96 362.26 345.91C362.17 345.85 362.04 345.67 361.98 345.6C362.26 345.47 362.52 345.32 362.8 345.19C364.14 344.67 365.56 344.24 366.84 343.57C366.85 343.57 366.91 343.56 366.92 343.56C368.5 343.23 369.97 342.66 371.51 342.23C374.18 341.41 376.95 340.76 379.5 339.53C381.37 338.86 383.27 338.18 385.07 337.3C385.36 337.19 385.66 337.05 385.99 336.94C386.26 336.78 386.54 336.61 386.82 336.43C384.22 336.15 381.6 335.86 378.99 335.73C378.89 335.71 378.75 335.66 378.65 335.61C376.73 335.37 374.73 335.11 372.93 334.27C372.23 334.01 372.03 333.16 371.33 332.89C370.64 334.37 369.64 335.66 368.84 337.05C368.69 337.25 368.51 337.46 368.36 337.66C367.97 337.77 367.79 338.14 367.79 338.53C367.74 338.58 367.66 338.71 367.61 338.76C367.17 338.81 366.94 339.18 366.99 339.61C366.97 339.63 366.87 339.72 366.81 339.76C366.32 340.13 365.97 340.66 365.69 341.18C365.35 341.56 365.02 341.95 364.71 342.34C364.07 343.18 363.24 343.85 362.55 344.62C361.5 345.72 360.52 347 359.03 347.49C358.05 348.01 356.9 347.96 355.93 348.39C355.74 348.39 355.33 348.39 355.13 348.42C354.66 348.39 354.17 348.39 353.69 348.42C353.51 348.39 353.17 348.39 352.99 348.37C351.46 347.96 349.96 347.55 348.56 346.82C348.55 346.8 348.47 346.75 348.42 346.7C347.7 345.91 346.91 345.18 346.5 344.19C346.29 343.61 346.34 342.95 346.07 342.38C346.04 341.46 346.04 340.51 346.07 339.58C346.27 338.71 346.34 337.81 346.42 336.94C346.76 334.68 347.47 332.52 348.38 330.47C349.17 328.67 349.94 326.87 350.69 325.08C350.79 324.82 350.91 324.57 351.04 324.33C351.28 323.72 351.56 323.1 351.81 322.5C352.12 321.77 352.38 321.04 352.71 320.3C353.22 319.33 353.95 318.47 354.93 317.91C355.7 317.76 356.52 317.78 357.33 317.86C358.57 318.01 359.42 319.06 360.31 319.86C360.78 320.53 360.65 321.4 360.55 322.18C360.54 322.21 360.43 322.42 360.42 322.45C360.36 322.61 360.22 322.9 360.14 323.05C359.18 325.25 358.14 327.42 357.03 329.54C356.18 331.11 355.48 332.81 354.95 334.53C354.75 335.14 354.57 335.76 354.38 336.37C354.33 336.73 354.23 337.09 354.08 337.43C354.05 337.89 354.03 338.33 353.8 338.72C353.8 339.61 353.48 340.56 353.94 341.35C354.48 341.62 355.16 341.46 355.75 341.56C356.98 340.38 358.31 339.28 359.27 337.89C361.88 334.38 364.65 331.01 366.69 327.15C367.41 325.9 367.81 324.48 368.5 323.2C368.74 322.92 368.97 322.66 369.18 322.38C369.31 322.45 369.56 322.63 369.71 322.72C369.74 322.38 369.84 322.04 369.99 321.71C370.03 321.25 370.03 320.76 370.41 320.4C370.54 320.53 370.76 320.76 370.89 320.87C370.97 320.43 371.07 320.04 371.46 319.78C372.11 319.29 372.36 318.47 372.75 317.76C373.56 318.61 373.93 319.73 374.28 320.82C374.36 321.51 374.33 322.2 374.33 322.9C374.33 323.28 374.33 323.67 374.36 324.08C374.83 323.82 375.32 323.56 375.8 323.25C376.75 322.86 377.63 322.33 378.5 321.82C381.99 319.92 385.77 318.53 389.64 317.61C390.65 317.35 391.73 317.4 392.7 316.94C392.7 316.94 392.7 316.94 392.7 316.94C392.82 316.92 392.91 316.91 392.96 316.91ZM355.52 341.62C354.93 341.61 354.31 341.61 353.71 341.57C353.74 341.05 353.66 340.56 353.48 340.08C353.46 341.13 353.48 342.15 353.51 343.2C353.51 343.2 353.51 343.2 353.51 343.2C354.49 342.6 355.16 342.07 355.52 341.62ZM365.5 347.52C365.5 347.52 365.5 347.52 365.5 347.52C366.08 347.52 366.08 347.52 365.5 347.52ZM314.96 317.25C316.14 317.68 317.23 318.29 318.18 319.09C318.23 319.15 318.3 319.29 318.36 319.35C318.33 319.78 318.51 320.09 318.89 320.28C318.89 320.96 318.91 321.68 318.53 322.28C316.94 325.15 315.71 328.23 314.24 331.14C312.71 334.53 311.14 337.91 309.57 341.28C309.44 341.48 309.34 341.66 309.23 341.82C309.19 341.88 308.9 342.34 308.87 342.39C310.57 342.48 312.27 342.2 313.94 342.08C314.43 342.28 315.19 342.43 315.47 341.82C315.86 341.85 316.28 341.85 316.68 341.85C318.05 341.87 319.46 341.3 320.8 341.93C320.81 341.97 320.89 342.21 320.9 342.25C320.9 342.33 320.87 342.46 320.87 342.52C321.08 342.56 321.46 342.57 321.66 342.61C321.66 342.64 321.67 342.87 321.67 342.9C321.23 343.15 320.76 343.38 320.3 343.61C320.3 343.75 320.33 344.03 320.33 344.18C320.34 344.19 320.38 344.26 320.46 344.39C320.55 344.56 320.6 344.65 320.61 344.67C320.94 344.7 321.25 344.72 321.57 344.75C322.03 345.19 322.46 345.62 322.9 346.09C321.9 346.57 320.77 346.7 319.71 346.95C317.48 347.37 315.24 347.81 312.96 348.17C312.89 348.22 312.68 348.34 312.62 348.39C312.59 348.39 312.37 348.42 312.34 348.42C311.99 348.29 311.75 348.39 311.57 348.71C311.54 348.71 311.32 348.67 311.29 348.67C310.95 348.57 310.67 348.67 310.49 348.99C310.47 348.99 310.3 348.95 310.27 348.94C309.91 348.85 309.64 348.94 309.44 349.22C309.43 349.22 309.34 349.24 309.32 349.24C307.52 349.52 305.85 350.14 304.13 350.65C303.28 350.86 302.45 351.24 301.58 351.17C300.43 350.76 299.87 349.62 298.88 349.01C298.96 348.13 299.01 347.24 298.88 346.34C299.2 345.8 299.53 345.24 300.05 344.87C300.51 344.33 300.81 343.7 301.14 343.1C302.33 340.9 303.4 338.63 304.49 336.42C304.85 335.68 305.2 334.99 305.52 334.27C306.2 333.04 306.67 331.72 307.28 330.44C307.29 330.42 307.37 330.29 307.38 330.27C308.7 327.6 309.67 324.77 310.8 322C311.14 321.05 311.49 320.09 311.49 319.06C311.86 318.47 312.29 317.88 312.86 317.47C312.86 317.47 312.86 317.47 312.86 317.47C313.79 317.29 314.49 317.22 314.96 317.25ZM351.07 317.66C351.17 317.83 351.36 318.2 351.46 318.38C351.61 318.38 351.91 318.38 352.09 318.38C352.13 318.71 352.22 319.01 352.31 319.33C352.22 319.45 352.07 319.73 351.95 319.86C351.04 321.33 349.81 322.58 348.84 324.02C348.79 324.08 348.66 324.2 348.61 324.25C348.09 324.57 347.65 325.02 347.52 325.66C346.98 326.2 346.47 326.8 346.03 327.42C345.55 327.8 345.14 328.24 344.9 328.82C344.86 328.87 344.76 328.96 344.72 329.05C343.72 330 342.93 331.09 342.24 332.29C342.23 332.34 342.18 332.42 342.14 332.44C341.05 333.53 340.24 334.84 339.33 336.09C338.56 337.25 337.58 338.3 336.95 339.61C336.94 339.63 336.85 339.72 336.81 339.76C336.33 340.25 335.94 340.82 335.68 341.46C334.61 343.15 333.42 344.77 332.51 346.57C332.38 346.77 332.29 346.96 332.22 347.19C332.09 347.52 331.99 347.85 331.86 348.14C331.52 348.62 331.17 349.12 330.66 349.42C329.53 349.62 328.39 349.48 327.27 349.48C327.26 349.48 327.19 349.47 327.18 349.47C325.96 348.8 324.03 348.24 324.29 346.52C324.33 346.03 324.33 345.52 324.29 345.03C323.87 343.24 323.61 341.43 323.2 339.63C322.75 336.76 322.1 333.89 321.61 331.01C321.51 330.54 321.48 330.04 321.23 329.62C321.18 328.28 320.8 327 320.56 325.7C320.18 324.02 319.85 322.33 319.43 320.68C319.35 320.23 319.35 319.78 319.66 319.47C319.85 319.2 320.05 318.99 320.25 318.76C322 317.99 323.87 318.81 325.42 319.63C325.39 320.14 325.9 320.48 326.37 320.3C327.04 321.14 327.44 322.1 327.7 323.13C327.75 323.43 327.75 323.71 327.75 324C327.75 324.92 328.08 325.77 328.22 326.67C328.49 328.37 328.76 330.09 329.04 331.81C329.01 332.49 328.96 333.16 329.04 333.84C329.14 333.94 329.32 334.11 329.42 334.2C329.42 334.34 329.47 334.57 329.47 334.66C329.48 335.61 329.65 336.53 329.85 337.46C330.27 337.2 330.57 336.84 330.81 336.43C330.82 336.42 330.93 336.3 330.94 336.28C331.14 336.01 331.34 335.73 331.53 335.43C332.22 334.52 332.89 333.58 333.61 332.68C334.43 331.57 335.58 330.72 336.26 329.47C337.23 329.23 337.94 328.44 338.51 327.67C338.51 327.62 338.55 327.2 338.56 327.15C338.79 327.15 339 327.15 339.23 327.15C339.28 327.33 339.41 327.65 339.46 327.8C339.47 327.49 339.51 327.23 339.51 326.92C339.33 326.07 339.8 325.34 340.28 324.67C340.7 324.77 341.15 324.9 341.57 325.02C341.77 324.76 341.98 324.48 342.18 324.23C342.5 323.81 342.85 323.43 343.18 323.04C343.24 322.86 343.32 322.68 343.42 322.53C343.5 323.13 342.9 323.53 342.6 323.95C342.24 324.35 342.41 324.87 342.41 325.34C343.08 324.62 343.72 323.81 344.65 323.38C344.62 323.04 344.6 322.71 344.6 322.35C345.5 322.25 346.04 321.51 346.71 321C346.57 321.51 346.32 321.97 346.09 322.48C346.84 322.35 347.19 321.68 347.57 321.1C347.65 321.04 347.75 320.87 347.79 320.81C347.8 320.8 347.84 320.75 347.91 320.66L347.91 320.66C349.2 319.21 350.25 318.21 351.07 317.66ZM442.72 318.01C443.86 318.11 444.99 318.14 446.14 318.14C448.14 318.19 450.05 318.71 451.95 319.24C451.97 319.24 452.09 319.28 452.1 319.29C453.35 320.28 455.07 319.87 456.49 319.56C457.34 319.51 458.18 319.48 459.01 319.48C459.52 319.68 460.22 319.78 460.54 319.24C461.09 319.25 461.63 319.24 462.19 319.24C462.68 319.38 463.42 319.56 463.71 318.96C464.25 318.99 464.81 318.96 465.37 318.96C465.84 319.14 466.56 319.25 466.86 318.68C467.23 318.68 467.58 318.68 467.95 318.68C468.48 318.88 469.15 318.92 469.53 318.43C469.56 318.43 469.79 318.43 469.82 318.43C470.2 318.92 470.85 318.91 471.34 318.66C471.85 318.66 472.34 318.68 472.85 318.73C474 319.06 475.19 318.92 476.37 319.04C477.01 318.99 477.32 319.63 477.7 320.04C477.81 320.1 478.04 320.25 478.17 320.33C478.24 320.4 478.37 320.56 478.44 320.66C477.71 320.68 476.99 320.71 476.27 320.78C476.49 320.86 476.72 320.92 476.95 320.97C476.95 321.18 476.96 321.61 476.96 321.82C477.08 321.91 477.32 322.1 477.42 322.2C477.62 322.56 477.96 322.81 478.32 323.04C478.34 323.28 478.39 323.53 478.44 323.81C478.8 324.13 479.12 324.48 479.37 324.87C478.6 324.82 477.85 324.82 477.09 325.02C475.77 325.34 474.39 325 473.08 325.3C471.92 325.54 470.72 325.28 469.62 325.7C469.18 325.75 468.76 325.8 468.3 325.82C468.09 326.1 467.86 326.34 467.66 326.62C467.46 326.92 467.3 327.28 467.18 327.65C466.96 328.29 466.82 329 466.48 329.64C463.66 334.84 461.06 340.18 458.42 345.47C457.87 346.55 457.37 347.65 456.9 348.75C456.34 349.86 456.06 351.17 455.25 352.17C454.82 352.27 454.39 352.33 454 352.42C453.1 351.74 452.18 351.17 451.43 350.37C451.09 349.94 450.77 350.34 450.53 350.65C450.48 350.52 450.33 350.29 450.25 350.17C449.87 350.27 449.48 350.39 449.1 350.48C448.15 351.07 447.01 350.6 446.53 349.66C445.96 348.42 445.58 347.13 445.01 345.87C445 345.85 444.97 345.73 444.96 345.72C444.24 343.61 443.67 341.46 443 339.36C442.78 338.28 442.47 337.23 442.21 336.19C441.77 336.32 441.29 336.43 440.85 336.56C440.77 336.58 440.57 336.63 440.49 336.66C438.85 337.01 437.25 337.56 435.64 338.04C434.38 338.33 434.3 339.85 433.5 340.71C433.46 340.71 433.14 340.77 433.1 340.77C433.12 340.53 433.19 339.99 433.2 339.72C432.78 340.43 432.38 341.15 432.3 342C431.38 342.98 430.76 344.19 430.11 345.37C429.78 345.85 429.58 346.34 429.4 346.86C428.67 347.95 428.19 349.17 427.63 350.34C427.01 349.65 426.21 349.04 425.21 349.24C425.09 349.24 424.83 349.27 424.72 349.27C424.49 349.29 424.01 349.34 423.78 349.37C422.59 348.52 421.97 347.18 421.72 345.75C421.67 345.65 421.59 345.42 421.54 345.32C421.52 345.19 421.49 344.98 421.49 344.85C421.41 344.7 421.31 344.39 421.26 344.24C421.26 344.15 421.21 343.98 421.21 343.87C421.05 342.2 420.54 340.58 420.35 338.9C419 339 417.73 339.48 416.45 339.82C414.96 340.3 413.43 340.66 412.08 341.46C411.6 341.71 411.11 341.93 410.7 342.25C409.36 343.8 408.08 345.42 406.93 347.09C406.34 347.72 405.74 348.37 404.98 348.81C403.67 347.75 402.36 346.65 401.02 345.62C401.02 344.98 401.02 344.34 401.07 343.72C401.08 343.7 401.14 343.53 401.15 343.51C401.92 341.87 403.12 340.58 404.26 339.23C404.93 338.53 405.34 337.63 405.93 336.89C407.11 335.14 408.36 333.43 409.65 331.8C410.68 330.14 411.53 328.39 412.55 326.75C412.63 326.65 412.75 326.43 412.83 326.29C413.6 324.92 414.38 323.56 415.15 322.18C415.22 321.86 415.3 321.51 415.4 321.15C415.48 320.91 415.58 320.63 415.69 320.38C415.87 320.04 416.01 319.63 416.1 319.25C416.97 318.58 418.07 318.58 419.12 318.68C420.49 319.2 422.25 319.63 422.77 321.18C423.36 323.08 423.49 325.1 423.82 327.05C424.01 328.05 423.88 329.1 424.31 330.04C424.41 330.59 424.54 331.16 424.67 331.72C424.87 332.44 425.68 332.06 426.21 332.01C427.19 331.8 428.26 332.09 429.14 331.57C429.4 331.54 429.66 331.54 429.93 331.54C429.96 331.47 430.02 331.32 430.07 331.27C430.09 331.25 430.19 331.04 430.2 331.01C430.76 329.9 431.3 328.75 431.88 327.62C431.97 327.44 432.07 327.24 432.15 327.06C432.17 327.03 432.27 326.8 432.28 326.77C432.33 326.62 432.38 326.34 432.4 326.23C431.97 325.95 431.58 325.67 431.19 325.39C430.6 324.8 429.98 324.25 429.48 323.58C429.09 323.05 429.24 322.33 429.19 321.73C430.91 320.14 433.4 320.01 435.33 318.83C436.25 318.43 437.25 318.19 438.28 318.16C438.28 318.16 438.28 318.16 438.28 318.16C440.23 317.96 441.71 317.91 442.72 318.01ZM441.11 324.53C440.49 326.15 439.74 327.72 439.21 329.34C439.19 329.35 438.99 329.41 438.97 329.42C438.72 329.8 438.57 330.23 438.49 330.63C439.05 330.54 439.59 330.42 440.11 330.14C443.09 328.87 446.14 327.7 448.81 325.82C448.83 325.81 448.97 325.78 448.99 325.77C448.61 325.18 448.29 324.53 448.04 323.87C445.78 323.92 443.34 323.43 441.26 324.49C441.26 324.49 441.26 324.49 441.26 324.49C441.17 324.51 441.12 324.52 441.11 324.53ZM457.8 327.7C456.8 328.87 455.57 329.8 454.28 330.62C453.72 330.81 453.2 331.14 452.71 331.44C451.09 331.85 449.92 333.14 448.35 333.63C448.33 333.91 448.33 334.2 448.35 334.48C448.35 334.48 448.37 334.46 448.4 334.43C448.39 334.46 448.38 334.48 448.38 334.48C448.71 335.19 448.78 335.99 449.01 336.73C448.96 337.91 449.4 339 449.58 340.15C449.78 340.8 449.61 341.61 450.1 342.13C450.18 343.05 450.38 343.98 450.51 344.9C450.91 344.1 451.33 343.29 451.61 342.48C451.62 342.46 451.74 342.36 451.76 342.34C452.71 340.18 453.75 338.04 454.9 335.96C456 333.81 457.19 331.75 458.29 329.62C458.57 328.7 459.37 327.85 459.19 326.82C458.75 326.92 458.32 327.02 457.9 327.13C457.9 327.13 457.9 327.13 457.9 327.13C457.83 327.4 457.8 327.59 457.8 327.7ZM416.92 332.68C416.92 332.66 416.86 332.46 416.86 332.44C416.69 332.86 415.86 333.66 416.55 333.91C417.38 333.89 418.15 333.53 418.9 333.27C419.26 332.39 418.59 331.52 418.69 330.63C418.1 330.44 417.74 330.9 417.68 331.44C417.68 331.44 417.68 331.44 417.68 331.44C417.33 331.99 417.08 332.41 416.92 332.68ZM426.78 338.41C426.88 338.14 426.98 337.86 427.09 337.58C426.83 337.56 426.57 337.56 426.31 337.56C426.31 337.56 426.31 337.56 426.31 337.56C426.51 337.94 426.67 338.23 426.78 338.41ZM290.82 320.38C291.54 320.92 292.24 321.48 292.82 322.18C292.83 322.9 292.59 323.58 292.37 324.25C292.26 324.49 292.19 324.77 292.1 325.05C292 325.33 291.9 325.61 291.82 325.87C289.48 331.86 286.85 337.76 283.97 343.52C282.96 345.28 282.12 347.14 281.38 349.04C281.34 349.14 281.24 349.34 281.19 349.44C280.71 350.01 280.4 350.79 279.76 351.17C278.63 351.52 277.54 350.29 276.5 350.99C276.41 350.89 276.19 350.66 276.06 350.57C275.39 350.04 275.36 349.22 275.39 348.42C275.52 346.42 276.36 344.6 277.04 342.75C277.88 340.56 279.09 338.51 280.01 336.37C278.29 337.76 277.04 339.63 275.82 341.46C275.54 342.1 274.83 342.39 274.31 342.85C274.16 342.93 273.88 343.13 273.74 343.23C272.64 342.87 271.67 342.08 270.44 342.08C269.48 341.38 268.91 340.28 268.4 339.2C268.12 338.66 268.1 338 267.78 337.48C267.74 337.33 267.69 337.04 267.69 336.89C267.48 336.46 267.45 336.01 267.43 335.56C267.32 335.53 267.1 335.51 267.01 335.48C266.83 335.91 266.65 336.32 266.48 336.73C265.92 338.04 265.38 339.33 264.81 340.61C264.06 342.33 263.34 344.08 262.58 345.8C261.34 348.24 260.41 350.81 259.08 353.22C258.36 352.81 257.41 353.04 256.77 352.53C256.08 352.58 255.41 352.74 254.77 352.89C254.56 352.69 254.41 352.47 254.25 352.27C254.17 352.11 254.02 351.79 253.92 351.65C253.74 350.43 254.25 349.24 254.54 348.09C255.56 345.29 256.61 342.52 257.87 339.82C258.11 339.28 258.34 338.72 258.51 338.15C258.54 338.04 258.6 337.77 258.65 337.66C258.83 337.3 259.03 336.96 259.19 336.58C260.45 333.81 261.77 331.06 263.16 328.34C263.73 326.95 264.12 325.48 264.7 324.08C264.83 323.82 264.93 323.58 265.06 323.33C265.22 322.97 265.4 322.63 265.6 322.3C265.88 321.86 266.2 321.45 266.53 321.05C267.91 321.05 269.25 320.35 270.64 320.73C271.64 320.97 272.26 321.87 272.97 322.61C273.21 323.77 272.69 325 272.87 326.2C272.89 327.85 272.74 329.47 272.84 331.09C272.87 331.29 272.87 331.67 272.87 331.86C272.92 332.63 273.2 333.39 273.57 334.06C273.74 333.91 273.92 333.76 274.11 333.62C274.31 333.39 274.54 333.16 274.77 332.94C275.44 332.21 276.05 331.44 276.72 330.72C279.26 328.34 281.63 325.8 283.96 323.23C284.86 322.43 285.58 321.43 286.63 320.86C286.63 320.86 286.63 320.86 286.63 320.86C288.49 320.28 289.89 320.12 290.82 320.38ZM301 320.45C302.3 320.63 303.1 321.71 304.05 322.48C303.97 322.95 304.13 323.48 303.97 323.95C303.92 324.08 303.81 324.35 303.72 324.49C302.48 326.92 300.87 329.18 299.81 331.72C298.66 334.32 297.3 336.84 296.19 339.43C295.44 341.18 294.44 342.8 293.77 344.57C293.76 344.58 293.72 344.69 293.72 344.7C293.16 345.75 292.64 346.82 291.96 347.8C291.74 348.14 291.34 348.34 290.97 348.52C290.9 348.71 290.79 348.9 290.72 349.09C290.64 348.91 290.49 348.6 290.43 348.42C289.97 349.12 289.54 349.86 289.2 350.61C288.95 350.53 288.69 350.43 288.48 350.37C288.05 350.75 287.58 351.04 287.12 351.37C286.72 351.74 286.3 352.09 285.91 352.47C285.58 352.66 285.23 352.84 284.87 353.04C284.87 352.86 284.86 352.51 284.86 352.33C284.82 352.34 284.53 352.36 284.5 352.37C284.38 352.37 284.15 352.38 284.02 352.42C284.02 352.04 284.01 351.66 284.01 351.29C284.45 350.48 284.64 349.57 284.96 348.7C285.07 348.47 285.17 348.22 285.23 347.96C286.1 345.87 286.9 343.72 287.82 341.62C289.1 338.68 290.29 335.68 291.64 332.75C293 329.72 294.26 326.67 295.67 323.67C296.19 322.66 296.4 321.4 297.34 320.61C297.34 320.61 297.34 320.61 297.34 320.61C298.96 320.44 300.19 320.38 301 320.45ZM480.79 344C480.71 344.15 480.58 344.44 480.52 344.6C480.19 345.03 479.96 345.52 479.81 346.03C484.9 344.72 490.05 343.62 495.04 341.95C496.52 341.43 498.12 341.05 499.46 340.25C499.71 340.1 499.99 339.95 500.23 339.77C499.74 339.66 499.23 339.51 498.71 339.51C496.6 339.28 494.52 338.89 492.42 338.61C491.65 338.25 490.77 338.28 490 338.05C488.65 337.68 487.33 337.3 486.08 336.66C486.03 336.61 485.9 336.46 485.84 336.38C485.67 336.1 485.56 335.84 485.43 335.56C485.31 335.56 485.1 335.53 485 335.51C485 335.51 485 335.51 485 335.51C483.12 339.29 481.72 342.12 480.79 344Z" id="d6OUIF8b4G"></path><path d="M512.27 322.15C513.02 322.4 513.56 323.02 514.12 323.56C514.04 324.38 514.12 325.23 514.45 326C514.47 326.67 514.17 327.38 513.99 328.01C513.74 328.33 513.47 328.59 513.19 328.9C511.09 328.91 508.98 328.65 506.93 329.06C504.36 329.29 501.84 330.01 499.37 330.85C497.79 331.32 496.22 331.9 494.67 332.49C494.42 332.76 494.75 333.06 495.04 333.09C498.02 333.43 500.99 333.94 503.85 334.73C506.03 335.29 508.27 336.25 509.42 338.28C509.65 339.05 509.55 339.85 509.6 340.62C509.55 341.33 509.7 342.08 509.36 342.7C509.26 343.15 509.42 343.67 509.08 344.05C509.08 344.18 509.04 344.44 509.03 344.6C508.13 345.62 506.85 346.19 505.7 346.9C500.79 349.57 495.22 350.57 489.83 351.86C487.72 352.29 485.63 352.86 483.51 353.19C483.41 353.24 483.22 353.37 483.14 353.43C483 353.43 482.76 353.43 482.64 353.46C482.28 353.33 482.01 353.42 481.79 353.71C481.71 353.71 481.56 353.74 481.48 353.76C481.17 353.74 480.53 353.71 480.24 353.69C480.58 353.53 480.94 353.37 481.29 353.22C481.38 353.09 481.48 352.96 481.58 352.84C481.14 352.79 480.71 352.76 480.27 352.71C480.34 352.47 480.43 352.19 480.52 351.94C480.42 351.94 480.19 351.91 480.06 351.91C480.09 351.79 480.12 351.56 480.14 351.43C479.86 351.34 479.6 351.27 479.34 351.17C479.32 351.01 479.29 350.75 479.27 350.58C479.01 350.47 478.76 350.34 478.52 350.22C478.04 350.96 477.6 351.7 477.08 352.42C477.04 352.14 476.96 351.61 476.91 351.37C476.72 351.81 476.47 352.27 476.24 352.69C476.22 352.51 476.14 352.11 476.13 351.91C475.62 352.19 475.13 352.53 474.75 352.99C474.57 353.17 474.37 353.33 474.23 353.53C473.92 353.58 473.65 353.63 473.37 353.69C473.18 353.28 472.85 352.96 472.56 352.66C472.56 352.06 472.72 351.48 472.85 350.89C473.23 349.94 473.62 348.99 473.96 348.01C476.57 341.61 479.53 335.37 482.37 329.01C483.41 327.05 484.18 324.92 485.26 322.95C487.2 322.18 489.57 322.53 491.19 323.87C492.08 324.53 492.47 325.61 492.45 326.67C493.67 326.13 494.93 325.62 496.04 324.87C496.05 324.87 496.11 324.85 496.12 324.85C497.74 324.3 499.41 323.82 500.95 323.15C501.43 323.08 501.9 322.92 502.38 322.86C502.38 322.86 502.38 322.86 502.38 322.86C506.78 322.1 510.08 321.87 512.27 322.15ZM394.73 318.24C395.98 318.38 397.22 318.29 398.5 318.3C399.22 318.29 399.79 318.76 400.37 319.14C400.46 319.24 400.64 319.43 400.73 319.53C400.64 320.63 400.77 321.73 400.73 322.82C400.73 323.02 400.69 323.4 400.69 323.58C400.68 323.63 400.59 323.72 400.58 323.77C400.35 324.1 400.15 324.43 399.92 324.76C398.68 324.77 397.35 324.43 396.22 325.1C395.65 325.15 395.11 325.18 394.54 325.23C390.34 325.85 386.3 327.33 382.42 329.01C381.99 329.23 381.52 329.34 381.17 329.64C381.09 329.72 380.93 329.86 380.84 329.95C381.3 329.96 381.74 330 382.17 330C382.51 330.57 383.25 330.39 383.74 330.24C384.12 330.24 384.51 330.27 384.89 330.29C385.56 330.67 386.36 330.67 387.12 330.77C389.59 331.14 392.08 331.67 394.37 332.75C394.98 333.29 395.63 333.84 396.01 334.58C396.21 335.89 396.11 337.25 395.89 338.56C395.8 339.3 395.68 340.04 395.5 340.76C395.5 340.77 395.46 340.92 395.45 340.94C395.35 341.05 395.21 341.28 395.12 341.41C394.06 342 393.11 342.82 392.03 343.43C389.92 344.65 387.64 345.65 385.36 346.52C383.79 347 382.25 347.47 380.7 347.96C377.65 348.76 374.64 349.66 371.64 350.53C371.62 350.54 371.51 350.59 371.49 350.6C369.94 350.91 368.41 351.29 366.92 351.76C366.84 351.66 366.71 351.48 366.64 351.42C367.14 351.24 367.59 351.04 368.07 350.81C367.37 350.57 366.64 350.79 365.92 350.84C366.14 350.6 366.4 350.37 366.64 350.14C366.46 349.47 365.99 348.96 365.65 348.39C365.35 348.24 365.04 348.08 364.74 347.91C364.7 347.81 364.65 347.57 364.6 347.44C364.45 347.39 364.14 347.29 363.99 347.22C363.94 347.14 363.83 347 363.75 346.91C364.02 346.77 364.3 346.65 364.56 346.52C365.92 345.96 367.32 345.57 368.61 344.87C368.62 344.86 368.68 344.85 368.69 344.85C370.26 344.56 371.74 343.95 373.26 343.56C375.95 342.72 378.7 342.05 381.25 340.85C383.14 340.15 385.02 339.48 386.84 338.61C387.13 338.51 387.44 338.38 387.74 338.25C388.03 338.1 388.31 337.94 388.59 337.76C385.97 337.48 383.37 337.19 380.75 337.05C380.68 337.04 380.5 336.96 380.42 336.94C378.47 336.68 376.47 336.43 374.7 335.58C374.01 335.32 373.8 334.48 373.11 334.2C372.38 335.68 371.41 336.99 370.61 338.38C370.46 338.58 370.28 338.77 370.12 338.99C369.74 339.1 369.56 339.46 369.56 339.82C369.51 339.9 369.41 340 369.36 340.08C368.94 340.13 368.71 340.51 368.76 340.9C368.71 340.95 368.61 341.05 368.59 341.08C368.07 341.46 367.74 341.95 367.45 342.51C367.12 342.87 366.79 343.24 366.5 343.65C365.84 344.51 365.02 345.18 364.32 345.95C363.27 347.03 362.3 348.29 360.8 348.8C359.83 349.34 358.69 349.27 357.69 349.71C357.51 349.71 357.1 349.71 356.9 349.71C356.41 349.7 355.93 349.71 355.46 349.75C355.28 349.71 354.9 349.7 354.74 349.7C353.23 349.27 351.74 348.86 350.33 348.14C350.32 348.13 350.22 348.04 350.19 348.03C349.46 347.24 348.7 346.5 348.27 345.52C348.07 344.92 348.09 344.28 347.81 343.7C347.81 342.75 347.81 341.82 347.81 340.89C348.02 340 348.09 339.13 348.17 338.23C348.52 336.01 349.24 333.84 350.17 331.76C350.94 329.96 351.71 328.18 352.46 326.38C352.56 326.13 352.69 325.87 352.79 325.66C353.05 325.02 353.33 324.43 353.59 323.81C353.85 323.08 354.17 322.35 354.46 321.63C354.95 320.66 355.74 319.76 356.7 319.24C357.47 319.06 358.31 319.1 359.09 319.15C360.36 319.33 361.19 320.35 362.04 321.18C362.55 321.86 362.4 322.72 362.32 323.49C362.31 323.52 362.2 323.74 362.19 323.77C362.12 323.92 361.99 324.23 361.93 324.38C360.95 326.57 359.93 328.75 358.8 330.85C357.93 332.44 357.26 334.11 356.74 335.86C356.52 336.46 356.36 337.05 356.16 337.68C356.08 338.04 356 338.41 355.85 338.72C355.8 339.18 355.79 339.66 355.56 340.05C355.57 340.94 355.26 341.87 355.7 342.67C356.26 342.93 356.9 342.77 357.51 342.87C358.75 341.71 360.08 340.61 361.04 339.2C363.65 335.71 366.42 332.32 368.46 328.47C369.17 327.2 369.56 325.8 370.26 324.53C370.49 324.25 370.74 323.97 370.97 323.67C371.08 323.77 371.33 323.95 371.46 324.05C371.51 323.71 371.61 323.35 371.75 323.04C371.8 322.56 371.8 322.09 372.18 321.73C372.31 321.86 372.54 322.09 372.66 322.18C372.7 321.76 372.84 321.35 373.23 321.1C373.88 320.61 374.13 319.76 374.54 319.06C375.31 319.92 375.7 321.04 376.06 322.13C376.11 322.82 376.08 323.53 376.11 324.2C376.11 324.61 376.11 325 376.11 325.38C376.6 325.13 377.11 324.85 377.58 324.57C378.5 324.18 379.37 323.66 380.27 323.15C383.78 321.23 387.51 319.83 391.39 318.92C392.41 318.68 393.5 318.73 394.49 318.25C394.49 318.25 394.49 318.25 394.49 318.25C394.6 318.24 394.68 318.24 394.73 318.24ZM357.31 342.93C356.7 342.93 356.08 342.9 355.48 342.87C355.51 342.38 355.43 341.87 355.26 341.41C355.21 342.43 355.23 343.47 355.26 344.52C355.26 344.52 355.26 344.52 355.26 344.52C356.26 343.92 356.94 343.39 357.31 342.93ZM367.23 348.81C367.23 348.81 367.23 348.81 367.23 348.81C367.82 348.84 367.82 348.84 367.23 348.81ZM316.73 318.58C317.91 319.01 319 319.61 319.95 320.4C319.99 320.45 320.08 320.61 320.13 320.66C320.1 321.1 320.28 321.4 320.66 321.61C320.66 322.28 320.67 322.97 320.28 323.58C318.68 326.47 317.48 329.52 315.99 332.47C314.47 335.86 312.91 339.23 311.34 342.61C311.21 342.77 311.11 342.98 310.99 343.15C310.96 343.2 310.67 343.66 310.63 343.72C312.34 343.8 314.01 343.52 315.71 343.39C316.2 343.57 316.94 343.75 317.23 343.15C317.63 343.15 318.04 343.18 318.46 343.18C319.82 343.2 321.23 342.62 322.56 343.23C322.57 343.26 322.65 343.54 322.66 343.57C322.66 343.65 322.66 343.77 322.66 343.85C322.85 343.85 323.23 343.9 323.43 343.92C323.43 343.94 323.43 344.17 323.43 344.19C322.98 344.46 322.52 344.67 322.05 344.9C322.08 345.05 322.1 345.34 322.1 345.51C322.11 345.52 322.15 345.59 322.23 345.72C322.32 345.88 322.37 345.98 322.38 346C322.7 346.03 323.03 346.05 323.34 346.08C323.8 346.5 324.23 346.95 324.65 347.39C323.65 347.9 322.56 348.01 321.48 348.24C319.23 348.7 316.99 349.14 314.73 349.47C314.63 349.53 314.47 349.66 314.38 349.71C314.36 349.72 314.13 349.74 314.11 349.75C313.76 349.6 313.48 349.7 313.32 350.04C313.29 350.04 313.08 350 313.06 349.99C312.71 349.89 312.44 349.99 312.27 350.32C312.25 350.31 312.04 350.28 312.01 350.27C311.68 350.17 311.42 350.24 311.21 350.53C311.19 350.54 311.08 350.56 311.06 350.57C309.29 350.84 307.62 351.47 305.9 351.96C305.05 352.17 304.2 352.53 303.33 352.47C302.2 352.06 301.66 350.91 300.66 350.34C300.73 349.44 300.78 348.55 300.66 347.67C300.97 347.13 301.3 346.55 301.82 346.18C302.25 345.65 302.56 345.03 302.87 344.42C304.1 342.23 305.15 339.95 306.28 337.73C306.62 337.01 306.97 336.32 307.29 335.58C307.97 334.37 308.44 333.04 309.01 331.76C309.02 331.75 309.1 331.6 309.11 331.58C310.47 328.91 311.44 326.08 312.53 323.33C312.91 322.38 313.27 321.4 313.27 320.38C313.63 319.78 314.06 319.2 314.61 318.78C314.61 318.78 314.61 318.78 314.61 318.78C315.56 318.61 316.27 318.55 316.73 318.58ZM352.84 318.96C352.94 319.15 353.13 319.53 353.23 319.71C353.38 319.71 353.69 319.71 353.84 319.71C353.9 320.01 353.99 320.33 354.05 320.66C353.99 320.78 353.8 321.05 353.74 321.18C352.81 322.66 351.59 323.9 350.61 325.34C350.55 325.39 350.43 325.52 350.37 325.57C349.84 325.9 349.42 326.33 349.28 326.97C348.74 327.52 348.24 328.1 347.79 328.72C347.32 329.11 346.91 329.57 346.66 330.14C346.62 330.19 346.52 330.29 346.47 330.34C345.5 331.29 344.67 332.42 344.03 333.62C343.99 333.63 343.95 333.73 343.9 333.76C342.8 334.84 342 336.15 341.1 337.38C340.31 338.56 339.33 339.63 338.72 340.9C338.67 340.95 338.62 341.03 338.57 341.08C338.1 341.57 337.71 342.15 337.43 342.77C336.36 344.47 335.18 346.09 334.27 347.86C334.15 348.08 334.05 348.29 333.99 348.52C333.86 348.81 333.76 349.14 333.63 349.47C333.28 349.94 332.94 350.43 332.42 350.75C331.29 350.91 330.17 350.79 329.01 350.81C329 350.81 328.92 350.8 328.91 350.79C327.75 350.12 325.8 349.57 326.08 347.85C326.09 347.34 326.09 346.85 326.05 346.34C325.65 344.56 325.37 342.75 324.95 340.95C324.52 338.05 323.87 335.2 323.38 332.34C323.28 331.86 323.23 331.37 323 330.91C322.95 329.59 322.57 328.33 322.33 327.02C321.92 325.34 321.62 323.66 321.2 321.97C321.1 321.56 321.13 321.1 321.43 320.76C321.62 320.53 321.82 320.28 322.03 320.05C323.77 319.3 325.62 320.1 327.19 320.92C327.14 321.43 327.67 321.81 328.14 321.63C328.81 322.43 329.22 323.43 329.47 324.43C329.48 324.72 329.52 325.02 329.52 325.33C329.52 326.23 329.81 327.1 329.96 327.97C330.27 329.7 330.53 331.42 330.81 333.14C330.79 333.81 330.75 334.48 330.81 335.15C330.89 335.25 331.09 335.43 331.17 335.53C331.19 335.63 331.22 335.89 331.24 335.99C331.27 336.94 331.42 337.86 331.61 338.77C332.01 338.53 332.33 338.15 332.58 337.76C332.59 337.74 332.68 337.63 332.69 337.61C332.89 337.3 333.1 337.04 333.32 336.76C333.99 335.84 334.66 334.89 335.38 334.01C336.2 332.89 337.36 332.01 338.03 330.8C339 330.52 339.7 329.75 340.28 328.96C340.28 328.91 340.31 328.52 340.31 328.47C340.56 328.47 340.77 328.47 341 328.47C341.05 328.62 341.15 328.95 341.19 329.11C341.24 328.82 341.28 328.52 341.28 328.24C341.1 327.38 341.55 326.65 342.05 326C342.47 326.1 342.9 326.23 343.36 326.34C343.55 326.07 343.75 325.8 343.95 325.52C344.24 325.13 344.62 324.76 344.94 324.35C345.03 324.18 345.09 324 345.19 323.85C345.27 324.44 344.67 324.82 344.37 325.28C343.99 325.66 344.18 326.2 344.18 326.67C344.85 325.95 345.47 325.13 346.42 324.71C346.39 324.35 346.37 324 346.34 323.67C347.24 323.58 347.81 322.81 348.5 322.3C348.32 322.82 348.09 323.3 347.86 323.77C348.6 323.66 348.96 323 349.33 322.43C349.38 322.35 349.51 322.2 349.56 322.13C349.57 322.12 349.62 322.07 349.69 321.97C350.97 320.51 352.02 319.5 352.84 318.96ZM444.49 319.33C445.62 319.43 446.76 319.45 447.91 319.45C449.87 319.51 451.82 320.04 453.72 320.56C453.74 320.57 453.85 320.61 453.87 320.61C455.13 321.61 456.85 321.2 458.28 320.86C459.09 320.82 459.95 320.81 460.76 320.81C461.29 321 461.96 321.1 462.32 320.56C462.86 320.56 463.42 320.56 463.96 320.53C464.47 320.68 465.19 320.87 465.48 320.28C466.04 320.28 466.56 320.28 467.1 320.25C467.61 320.43 468.33 320.58 468.63 319.99C468.99 320.01 469.35 320.01 469.72 320.01C470.25 320.2 470.9 320.25 471.28 319.76C471.31 319.76 471.57 319.76 471.61 319.76C471.98 320.25 472.61 320.23 473.13 319.96C473.62 319.99 474.13 320.01 474.6 320.05C475.75 320.38 476.96 320.25 478.14 320.35C478.8 320.3 479.09 320.96 479.47 321.35C479.58 321.43 479.81 321.58 479.94 321.66C479.99 321.73 480.14 321.87 480.22 321.95C479.48 322 478.76 322 478.04 322.1C478.27 322.18 478.48 322.23 478.71 322.3C478.71 322.5 478.71 322.92 478.75 323.13C478.84 323.23 479.06 323.43 479.19 323.53C479.39 323.87 479.71 324.13 480.06 324.33C480.12 324.61 480.17 324.85 480.22 325.13C480.56 325.43 480.89 325.8 481.14 326.2C480.37 326.15 479.6 326.15 478.84 326.33C477.53 326.67 476.18 326.29 474.85 326.61C473.7 326.85 472.51 326.61 471.39 327.02C470.95 327.06 470.51 327.13 470.08 327.15C469.85 327.39 469.62 327.67 469.43 327.95C469.2 328.24 469.08 328.59 468.95 328.95C468.71 329.62 468.58 330.32 468.25 330.95C465.43 336.15 462.84 341.48 460.19 346.8C459.63 347.86 459.14 348.96 458.67 350.07C458.11 351.19 457.85 352.48 457.01 353.46C456.59 353.56 456.18 353.66 455.75 353.74C454.87 353.05 453.92 352.48 453.18 351.66C452.85 351.24 452.54 351.66 452.3 351.94C452.23 351.84 452.1 351.6 452.02 351.48C451.66 351.6 451.25 351.7 450.87 351.81C449.92 352.38 448.78 351.91 448.3 350.96C447.73 349.75 447.35 348.42 446.78 347.19C446.77 347.18 446.73 347.04 446.73 347.03C446.01 344.92 445.44 342.77 444.73 340.66C444.57 339.61 444.24 338.56 443.99 337.51C443.52 337.63 443.06 337.76 442.62 337.89C442.52 337.91 442.34 337.96 442.24 337.99C440.62 338.3 439.02 338.89 437.43 339.36C436.15 339.63 436.05 341.18 435.28 342C435.24 342.01 434.91 342.09 434.87 342.1C434.9 341.82 434.95 341.3 434.97 341.03C434.53 341.72 434.12 342.48 434.07 343.29C433.12 344.29 432.5 345.52 431.88 346.7C431.55 347.18 431.35 347.67 431.19 348.19C430.43 349.27 429.96 350.48 429.39 351.66C428.78 350.96 427.96 350.37 426.98 350.57C426.86 350.57 426.62 350.6 426.45 350.6C426.24 350.61 425.78 350.66 425.57 350.7C424.36 349.81 423.74 348.49 423.49 347.08C423.44 346.96 423.34 346.75 423.31 346.65C423.29 346.52 423.26 346.29 423.24 346.18C423.2 346.03 423.1 345.72 423.05 345.57C423.01 345.47 423 345.28 423 345.18C422.82 343.51 422.31 341.9 422.11 340.23C420.77 340.3 419.49 340.8 418.2 341.15C416.73 341.61 415.2 341.98 413.86 342.77C413.39 343 412.88 343.23 412.48 343.57C411.13 345.13 409.86 346.72 408.72 348.42C408.08 349.01 407.51 349.7 406.77 350.12C405.44 349.04 404.15 347.96 402.79 346.91C402.79 346.29 402.77 345.67 402.82 345.03C402.83 345.01 402.88 344.82 402.89 344.8C403.67 343.2 404.89 341.87 406.03 340.56C406.69 339.82 407.08 338.95 407.69 338.18C408.88 336.46 410.11 334.76 411.4 333.09C412.45 331.47 413.3 329.72 414.34 328.06C414.4 327.95 414.53 327.72 414.6 327.62C415.35 326.25 416.12 324.87 416.92 323.49C416.97 323.15 417.05 322.81 417.17 322.48C417.25 322.2 417.35 321.95 417.48 321.71C417.64 321.35 417.77 320.96 417.87 320.56C418.74 319.91 419.84 319.91 420.89 320.01C422.26 320.53 423.98 320.92 424.54 322.5C425.14 324.39 425.26 326.43 425.59 328.37C425.77 329.37 425.64 330.42 426.06 331.37C426.19 331.91 426.29 332.49 426.44 333.04C426.63 333.76 427.45 333.39 427.98 333.34C428.93 333.09 430.02 333.42 430.91 332.86C431.15 332.86 431.43 332.86 431.68 332.85C431.73 332.8 431.81 332.63 431.83 332.58C431.84 332.56 431.94 332.36 431.96 332.34C432.5 331.19 433.05 330.06 433.64 328.95C433.76 328.75 433.82 328.57 433.92 328.37C433.94 328.34 434.04 328.09 434.05 328.06C434.07 327.95 434.15 327.67 434.17 327.52C433.76 327.28 433.33 327 432.92 326.72C432.38 326.13 431.76 325.54 431.25 324.9C430.83 324.38 431.01 323.66 430.96 323.02C432.68 321.45 435.17 321.33 437.1 320.14C438.02 319.73 439.02 319.51 440.01 319.48C440.01 319.48 440.01 319.48 440.01 319.48C442 319.29 443.49 319.24 444.49 319.33ZM442.9 325.85C442.26 327.47 441.52 329.05 440.96 330.67C440.94 330.68 440.76 330.74 440.74 330.75C440.49 331.11 440.34 331.52 440.26 331.96C440.82 331.85 441.37 331.72 441.87 331.47C444.83 330.19 447.91 329 450.58 327.15C450.59 327.14 450.71 327.1 450.73 327.1C450.38 326.47 450.04 325.85 449.78 325.18C447.56 325.25 445.11 324.76 443.04 325.82C443.04 325.82 443.04 325.82 443.04 325.82C442.96 325.84 442.91 325.85 442.9 325.85ZM459.54 329.01C458.54 330.19 457.34 331.09 456.05 331.91C455.47 332.14 454.97 332.44 454.48 332.76C452.85 333.14 451.68 334.47 450.1 334.94C450.1 335.24 450.1 335.53 450.14 335.81C450.14 335.81 450.14 335.79 450.15 335.76C450.14 335.77 450.14 335.78 450.14 335.78C450.48 336.51 450.56 337.3 450.77 338.05C450.73 339.2 451.18 340.33 451.33 341.48C451.56 342.1 451.38 342.93 451.87 343.43C451.95 344.34 452.13 345.28 452.28 346.19C452.67 345.42 453.1 344.62 453.38 343.77C453.39 343.76 453.51 343.67 453.53 343.65C454.48 341.48 455.52 339.36 456.67 337.25C457.75 335.14 458.95 333.06 460.06 330.95C460.34 330 461.14 329.18 460.96 328.15C460.52 328.24 460.09 328.33 459.63 328.42C459.63 328.42 459.63 328.42 459.63 328.42C459.59 328.72 459.56 328.91 459.54 329.01ZM418.68 334.01C418.67 333.98 418.6 333.79 418.59 333.76C418.45 334.19 417.63 334.96 418.31 335.2C419.15 335.2 419.9 334.86 420.67 334.57C421.05 333.71 420.36 332.85 420.48 331.94C419.87 331.76 419.53 332.22 419.44 332.76C419.44 332.76 419.44 332.76 419.44 332.76C419.08 333.31 418.83 333.72 418.68 334.01ZM428.53 339.72C428.63 339.46 428.76 339.15 428.86 338.89C428.58 338.89 428.34 338.89 428.09 338.89C428.09 338.89 428.09 338.89 428.09 338.89C428.29 339.25 428.44 339.53 428.53 339.72ZM292.59 321.71C293.29 322.25 294.01 322.81 294.58 323.49C294.62 324.2 294.34 324.9 294.14 325.54C294.04 325.82 293.95 326.1 293.86 326.38C293.77 326.65 293.67 326.92 293.57 327.18C291.21 333.19 288.62 339.05 285.76 344.85C284.73 346.6 283.87 348.47 283.15 350.37C283.1 350.47 282.97 350.66 282.92 350.76C282.48 351.34 282.19 352.11 281.53 352.48C280.4 352.84 279.3 351.61 278.29 352.32C278.19 352.19 277.93 351.99 277.83 351.86C277.16 351.37 277.11 350.52 277.14 349.75C277.29 347.75 278.14 345.9 278.81 344.05C279.67 341.87 280.86 339.82 281.78 337.68C280.06 339.05 278.81 340.95 277.59 342.75C277.29 343.43 276.62 343.72 276.1 344.15C275.93 344.24 275.64 344.44 275.52 344.56C274.39 344.19 273.44 343.39 272.21 343.39C271.21 342.7 270.67 341.61 270.17 340.53C269.89 339.99 269.87 339.33 269.54 338.77C269.53 338.63 269.48 338.33 269.45 338.18C269.25 337.77 269.22 337.33 269.2 336.89C269.07 336.86 268.87 336.81 268.74 336.78C268.59 337.2 268.43 337.63 268.25 338.05C267.69 339.36 267.15 340.66 266.58 341.93C265.83 343.65 265.11 345.39 264.35 347.13C263.11 349.53 262.17 352.14 260.86 354.53C260.11 354.14 259.19 354.37 258.51 353.84C257.83 353.91 257.2 354.05 256.51 354.22C256.34 353.99 256.16 353.79 255.98 353.58C255.92 353.42 255.77 353.1 255.69 352.96C255.49 351.74 256.02 350.57 256.31 349.39C257.34 346.62 258.39 343.85 259.64 341.15C259.88 340.61 260.11 340.05 260.26 339.48C260.31 339.35 260.39 339.1 260.41 338.99C260.6 338.63 260.82 338.25 260.96 337.91C262.24 335.14 263.53 332.39 264.93 329.67C265.48 328.28 265.88 326.8 266.48 325.38C266.58 325.13 266.69 324.87 266.83 324.66C267.01 324.3 267.17 323.95 267.38 323.61C267.64 323.18 267.96 322.76 268.3 322.35C269.68 322.38 271.02 321.68 272.39 322.02C273.41 322.28 274.05 323.2 274.72 323.92C275 325.1 274.46 326.33 274.64 327.52C274.67 329.14 274.52 330.77 274.62 332.39C274.62 332.58 274.64 332.99 274.64 333.19C274.69 333.96 274.97 334.68 275.31 335.38C275.52 335.24 275.69 335.09 275.87 334.94C276.1 334.71 276.31 334.48 276.52 334.25C277.19 333.53 277.81 332.76 278.45 332.04C281.02 329.67 283.4 327.11 285.72 324.53C286.63 323.76 287.35 322.76 288.39 322.18C288.39 322.18 288.39 322.18 288.39 322.18C290.26 321.59 291.66 321.44 292.59 321.71ZM302.77 321.77C304.05 321.95 304.87 323.02 305.8 323.77C305.75 324.28 305.9 324.8 305.75 325.28C305.67 325.39 305.57 325.67 305.49 325.8C304.25 328.24 302.63 330.49 301.58 333.04C300.43 335.63 299.06 338.14 297.93 340.76C297.21 342.51 296.21 344.13 295.53 345.9C295.53 345.91 295.49 345.99 295.49 346C294.95 347.08 294.39 348.13 293.72 349.12C293.49 349.47 293.11 349.66 292.73 349.84C292.64 350.01 292.57 350.22 292.49 350.39C292.42 350.24 292.26 349.89 292.19 349.75C291.74 350.43 291.33 351.17 290.97 351.94C290.72 351.86 290.47 351.76 290.21 351.7C289.82 352.04 289.34 352.37 288.9 352.69C288.48 353.04 288.07 353.42 287.67 353.79C287.33 353.99 286.97 354.17 286.64 354.37C286.63 354.18 286.63 353.84 286.63 353.63C286.59 353.63 286.32 353.69 286.28 353.69C286.15 353.69 285.91 353.71 285.77 353.71C285.77 353.33 285.77 352.96 285.77 352.61C286.22 351.79 286.43 350.89 286.69 350.01C286.85 349.8 286.95 349.53 287 349.29C287.87 347.18 288.64 345.03 289.57 342.95C290.87 339.99 292.06 336.99 293.39 334.06C294.73 331.04 296.01 328 297.43 325C297.96 323.95 298.19 322.71 299.11 321.92C299.11 321.92 299.11 321.92 299.11 321.92C300.74 321.76 301.97 321.71 302.77 321.77ZM482.56 345.32C482.48 345.47 482.33 345.77 482.27 345.91C481.96 346.34 481.74 346.85 481.58 347.34C486.67 346.05 491.82 344.92 496.79 343.28C498.28 342.72 499.86 342.38 501.23 341.57C501.48 341.43 501.76 341.28 502 341.1C501.51 340.95 500.99 340.82 500.48 340.82C498.37 340.61 496.29 340.18 494.17 339.94C493.42 339.58 492.55 339.61 491.75 339.36C490.42 339 489.08 338.63 487.85 337.99C487.8 337.91 487.66 337.77 487.61 337.71C487.46 337.43 487.33 337.15 487.18 336.89C487.08 336.86 486.89 336.84 486.79 336.84C485.26 339.61 483.95 342.51 482.56 345.32Z" id="f21kTVYHwG"></path><path d="M216.66 396.86C215.58 396.28 206.92 391.57 205.84 390.98C195.21 385.2 181.86 389.17 176.08 399.8C176.05 399.86 175.78 400.34 175.75 400.4C175.18 401.47 173.84 401.86 172.77 401.29C171.71 400.71 171.31 399.37 171.9 398.31C171.94 398.24 172.2 397.76 172.23 397.7C175.59 391.52 181.14 387.02 187.89 385.02C194.63 383.03 201.74 383.76 207.93 387.12C209.02 387.71 217.68 392.41 218.76 393C222.07 394.8 225.88 395.21 229.49 394.13C233.1 393.06 236.09 390.66 237.87 387.35C239.67 384.02 240.08 380.22 239 376.61C237.94 373 235.53 370.02 232.22 368.22C232.08 368.15 230.98 367.56 230.84 367.48C221.89 362.62 218.56 351.38 223.43 342.43C224.42 340.58 232.42 325.84 233.42 324C233.99 322.94 235.33 322.54 236.4 323.13C237.46 323.71 237.85 325.03 237.28 326.1C236.28 327.94 228.28 342.67 227.27 344.51C223.57 351.35 226.11 359.92 232.94 363.63C233.08 363.71 234.16 364.3 234.3 364.37C243.26 369.24 246.6 380.47 241.74 389.43C239.3 393.92 235.28 396.99 230.73 398.34C226.19 399.68 221.15 399.29 216.66 396.86Z" id="f2ziO63ViY"></path><path d="M225.69 282.21C225.59 280.18 226.88 278.36 228.83 277.79C232.25 276.77 259.56 268.68 262.98 267.66C265.29 266.98 267.74 268.3 268.43 270.63C269.44 274.04 277.52 301.36 278.54 304.77C279.11 306.71 278.29 308.79 276.54 309.8C272.06 312.41 236.25 333.22 231.78 335.83C230.26 336.71 228.34 335.68 228.26 333.91C227.74 323.57 225.94 287.38 225.69 282.21Z" id="a4nlxIFHKP"></path><path d="M228.83 277.79C227.91 278.05 227.14 278.62 226.59 279.34C231.77 282.16 273.27 304.68 278.45 307.49C278.76 306.64 278.81 305.69 278.54 304.77C277.52 301.36 269.44 274.04 268.43 270.63C267.74 268.3 265.29 266.98 262.98 267.66C256.15 269.69 232.25 276.77 228.83 277.79Z" id="fJkNAyerC"></path><path d="M228.83 277.79C226.88 278.36 225.59 280.19 225.69 282.21C225.94 287.38 228 328.74 228.26 333.91C228.29 334.79 228.8 335.5 229.49 335.86C233.17 329.08 262.62 274.81 266.3 268.02C265.32 267.48 264.12 267.32 262.98 267.66C256.15 269.69 232.25 276.77 228.83 277.79Z" id="fcJQrRgY"></path><path d="M225.69 282.21C225.94 287.38 228 328.74 228.26 333.91C228.29 334.79 228.8 335.5 229.49 335.86C230.42 331.7 235.11 310.89 243.54 273.43L228.83 277.79C226.67 279.39 225.62 280.86 225.69 282.21Z" id="c142nq7BSX"></path><path d="M226.59 279.34C228.32 280.28 236.96 284.97 252.53 293.43C260.79 278.18 265.38 269.72 266.3 268.02C265.81 267.75 265.27 267.58 264.7 267.52C264.14 267.45 263.55 267.5 262.96 267.66C259.55 268.68 232.24 276.77 228.83 277.79C228.37 277.92 227.95 278.13 227.59 278.39C227.57 278.39 227.57 278.39 227.57 278.39C227.19 278.65 226.87 278.98 226.59 279.34Z" id="dLYKvBnJ5"></path><path d="M222.46 360.34C221 360.77 219.48 359.95 219.05 358.49C218.61 357.03 219.45 355.51 220.9 355.09C221.47 354.92 226.02 353.57 226.59 353.4C228.03 352.97 229.55 353.79 229.99 355.25C230.42 356.71 229.58 358.23 228.14 358.66C227.01 358.99 223.03 360.17 222.46 360.34Z" id="jxLWvVrL"></path><path d="M197.34 391.57C195.85 391.3 194.86 389.87 195.14 388.38C195.24 387.83 196.06 383.41 196.16 382.86C196.42 381.37 197.86 380.39 199.34 380.67C200.83 380.93 201.82 382.37 201.55 383.84C201.44 384.4 200.63 388.81 200.53 389.36C200.33 390.41 199.56 391.21 198.61 391.51C198.21 391.62 197.78 391.66 197.34 391.57Z" id="k5dvjjibZy"></path><path d="M238.51 394.73C238.08 394.38 234.6 391.54 234.17 391.18C232.99 390.23 232.83 388.5 233.78 387.33C234.74 386.15 236.46 385.97 237.64 386.94C238.08 387.29 241.55 390.14 241.98 390.49C243.16 391.44 243.32 393.18 242.37 394.34C242.01 394.78 241.54 395.1 241.03 395.24C240.18 395.49 239.25 395.34 238.51 394.73Z" id="a3pDrOTHQj"></path><path d="M226.59 279.34C227.51 279.84 232.16 282.36 240.51 286.89L243.54 273.43C234.71 276.04 229.81 277.49 228.83 277.79C228.37 277.92 227.96 278.13 227.59 278.39C227.57 278.39 227.57 278.39 227.57 278.39C227.19 278.65 226.87 278.98 226.59 279.34Z" id="b2WYpdYGBx"></path></defs><g><g><g><use xlink:href="#a3zeD2jp3" opacity="1" fill="#73ff00" fill-opacity="1"></use><g><use xlink:href="#a3zeD2jp3" opacity="1" fill-opacity="0" stroke="#000000" stroke-width="1" stroke-opacity="0"></use></g></g><g><use xlink:href="#c2e99Ra0Hx" opacity="1" fill="#00ff00" fill-opacity="1"></use><g><use xlink:href="#c2e99Ra0Hx" opacity="1" fill-opacity="0" stroke="#000000" stroke-width="1" stroke-opacity="0"></use></g></g><g><use xlink:href="#d6OUIF8b4G" opacity="1" fill="#ff0000" fill-opacity="1"></use><g><use xlink:href="#d6OUIF8b4G" opacity="1" fill-opacity="0" stroke="#000000" stroke-width="1" stroke-opacity="0"></use></g></g><g><use xlink:href="#f21kTVYHwG" opacity="1" fill="#ffffff" fill-opacity="1"></use><g><use xlink:href="#f21kTVYHwG" opacity="1" fill-opacity="0" stroke="#000000" stroke-width="1" stroke-opacity="0"></use></g></g><g><use xlink:href="#f2ziO63ViY" opacity="1" fill="#f5dcb4" fill-opacity="1"></use><g><use xlink:href="#f2ziO63ViY" opacity="1" fill-opacity="0" stroke="#000000" stroke-width="1" stroke-opacity="0"></use></g></g><g><use xlink:href="#a4nlxIFHKP" opacity="1" fill="#fff082" fill-opacity="1"></use><g><use xlink:href="#a4nlxIFHKP" opacity="1" fill-opacity="0" stroke="#000000" stroke-width="1" stroke-opacity="0"></use></g></g><g><use xlink:href="#fJkNAyerC" opacity="1" fill="#ff507d" fill-opacity="1"></use><g><use xlink:href="#fJkNAyerC" opacity="1" fill-opacity="0" stroke="#000000" stroke-width="1" stroke-opacity="0"></use></g></g><g><use xlink:href="#fcJQrRgY" opacity="1" fill="#b4e66e" fill-opacity="1"></use><g><use xlink:href="#fcJQrRgY" opacity="1" fill-opacity="0" stroke="#000000" stroke-width="1" stroke-opacity="0"></use></g></g><g><use xlink:href="#c142nq7BSX" opacity="1" fill="#a0d755" fill-opacity="1"></use><g><use xlink:href="#c142nq7BSX" opacity="1" fill-opacity="0" stroke="#000000" stroke-width="1" stroke-opacity="0"></use></g></g><g><use xlink:href="#dLYKvBnJ5" opacity="1" fill="#00aaf0" fill-opacity="1"></use><g><use xlink:href="#dLYKvBnJ5" opacity="1" fill-opacity="0" stroke="#000000" stroke-width="1" stroke-opacity="0"></use></g></g><g><use xlink:href="#jxLWvVrL" opacity="1" fill="#ff507d" fill-opacity="1"></use><g><use xlink:href="#jxLWvVrL" opacity="1" fill-opacity="0" stroke="#000000" stroke-width="1" stroke-opacity="0"></use></g></g><g><use xlink:href="#k5dvjjibZy" opacity="1" fill="#b4e66e" fill-opacity="1"></use><g><use xlink:href="#k5dvjjibZy" opacity="1" fill-opacity="0" stroke="#000000" stroke-width="1" stroke-opacity="0"></use></g></g><g><use xlink:href="#a3pDrOTHQj" opacity="1" fill="#fff082" fill-opacity="1"></use><g><use xlink:href="#a3pDrOTHQj" opacity="1" fill-opacity="0" stroke="#000000" stroke-width="1" stroke-opacity="0"></use></g></g><g><use xlink:href="#b2WYpdYGBx" opacity="1" fill="#0096dc" fill-opacity="1"></use><g><use xlink:href="#b2WYpdYGBx" opacity="1" fill-opacity="0" stroke="#000000" stroke-width="1" stroke-opacity="0"></use></g></g></g></g></svg>