<?xml version="1.0" encoding="UTF-8" standalone="no"?>
<!DOCTYPE svg PUBLIC "-//W3C//DTD SVG 1.1//EN" "http://www.w3.org/Graphics/SVG/1.1/DTD/svg11.dtd">
<svg version="1.1" xmlns="http://www.w3.org/2000/svg" xmlns:xlink="http://www.w3.org/1999/xlink" preserveAspectRatio="xMidYMid meet" viewBox="175.98717149612983 185.84930095361403 312.576555211333 124.18762682898097" width="312.58" height="124.19"><defs><path d="M242.83 209.44C250.6 213.56 268.04 212 266.68 220.7C266.68 220.74 266.65 220.98 266.65 221.02C266.1 221.52 265.75 222.22 265.13 222.65C264.12 223.39 262.95 224.01 261.94 224.82C261.83 224.86 261.56 225.02 261.44 225.1C258.52 227.16 255.45 229.06 252.5 231.04C252 231.35 251.53 231.7 251.03 231.97C248.11 234.03 245.08 235.9 242.13 237.88C241.66 238.23 241.16 238.54 240.65 238.85C240.57 238.89 240.46 239.05 240.38 239.08C235.6 242.19 230.86 245.38 226.16 248.6C225.73 248.92 225.3 249.03 224.52 248.64C224.5 248.64 224.35 248.57 224.33 248.57C229.81 235.35 236.53 222.34 242.67 209.4C242.67 209.4 242.67 209.4 242.67 209.36C242.7 209.37 242.81 209.43 242.83 209.44Z" id="agsDnadnF"></path><path d="M231.52 204.11C234.47 205.51 238.71 207.49 241.66 208.89C242.01 209.05 242.83 209.05 242.67 209.36C242.59 209.59 242.52 209.79 242.44 209.98C241.23 212.56 235.19 225.45 224.33 248.64M201.52 291.19C202.06 291.81 201.95 292.71 201.87 293.45C201.71 294.85 201.52 296.21 201.33 297.57C201.25 298.23 201.05 298.96 200.51 299.39C199.46 300.29 197.87 300.17 196.97 299.12C196 297.26 196.86 295.16 196.93 293.21C197.05 292.28 197.17 291.31 197.91 290.69C198.96 289.72 200.78 290.03 201.52 291.19Z" id="bmTXu92oP"></path><path d="M249.35 186.28C249.74 186.16 250.13 186 250.48 185.85C250.5 185.85 250.69 185.85 250.71 185.85C245 187.87 239.37 189.97 233.66 191.99C233.19 195.21 232.61 198.44 232.1 201.7C231.98 202.52 231.83 203.34 231.56 204.15C227.36 202.21 223.16 200.19 218.97 198.24C219.01 197.51 219.74 197.16 220.25 196.73C229.96 193.23 239.68 189.77 249.35 186.28Z" id="bCN8ByJ1n"></path><path d="M234.86 191.56C235.29 191.37 235.72 191.21 236.18 191.06C236.57 190.9 236.96 190.78 237.35 190.63C240.57 189.46 243.95 188.3 247.22 187.13C247.99 186.82 248.77 186.39 249.55 186.04C249.7 185.97 249.86 185.93 250.01 185.85C250.38 185.85 253.27 185.85 253.63 185.85C253.82 185.97 253.94 186.08 253.98 186.24C253.98 186.39 254.09 186.59 253.98 186.78C252.92 189.05 244.47 207.17 243.41 209.44C243.25 209.82 243.02 209.51 242.67 209.36C242.63 209.36 242.59 209.32 242.52 209.28C238.98 207.61 235.4 205.94 231.87 204.27C231.79 204.27 231.56 204.23 231.56 204.15C231.7 203.34 232.4 199.29 233.66 191.99C234.38 191.73 234.78 191.59 234.86 191.56Z" id="c2cbErIJUV"></path><path d="M218.97 198.24C223.13 200.15 227.21 202.13 231.32 204.03C231.34 204.04 231.42 204.08 231.56 204.15C231.28 206.3 231.12 207.49 231.09 207.73C231.05 207.88 231.01 208.08 230.97 208.23C230.86 209.16 230.7 210.14 230.55 211.11C228.99 220.9 227.36 230.69 225.69 240.48C225.46 242.31 225.15 244.1 224.8 245.85C224.75 246.12 224.34 248.29 224.29 248.57C224.17 249.11 223.47 247.83 223.2 247.32C223.16 247.21 223.05 247.09 223.05 246.97C223.05 246.74 223.09 246.47 223.05 246.23C223.05 245.26 222.89 244.33 222.81 243.36C222.58 241.26 222.35 239.2 222.08 237.1C220.83 225.02 219.51 212.89 218.35 200.81C218.35 200.81 218.35 200.81 218.35 200.81C218.6 199.67 218.81 198.81 218.97 198.24Z" id="a1fhrKXinW"></path><path d="M253.82 185.97C254.83 186.47 255.61 187.44 255.96 188.53C259.5 198.28 262.99 208.08 266.53 217.87C266.88 218.76 267.58 221.13 266.68 220.7C265.08 219.95 257.08 216.18 242.67 209.4M218.31 265.86C219.12 265.59 219.94 265.24 220.75 264.96C221.88 264.58 223.71 263.88 224.76 264.61C225.69 265.27 226.16 266.44 225.73 267.57C225.42 268.38 224.64 268.77 223.94 269.16C222.74 269.67 221.49 270.05 220.25 270.48C219.43 270.75 218.54 271.14 217.68 270.75C216.36 270.29 215.7 268.62 216.36 267.37C216.67 266.56 217.53 266.17 218.31 265.86Z" id="cuYBSGzal"></path><path d="M219.55 254.51C220.68 251.99 221.88 249.5 223.05 246.97C223.28 247.63 223.75 248.14 224.29 248.57C224.8 248.76 225.96 248.18 225.96 248.76C225.96 249.5 225.81 249.89 225.61 250.47C224.8 252.96 223.28 255.13 222.31 257.54C221.61 259.21 221.45 261.12 221.65 262.9C221.69 263.49 221.8 264.07 221.88 264.61C220.68 264.96 219.51 265.43 218.31 265.86C218.03 264.89 217.88 263.88 217.76 262.9C217.8 262.28 217.88 261.66 217.88 261.04C217.92 258.79 218.46 256.53 219.55 254.51M220.25 270.48C221.49 270.05 222.74 269.67 223.94 269.16C225.42 271.03 227.32 272.62 229.54 273.55C235.37 275.96 239.56 282.02 239.6 288.32C239.68 289.79 238.44 296.52 238.09 296.48C238.09 296.48 238.05 296.48 238.05 296.48C236.84 295.78 235.64 295.31 234.82 294.26C234.43 293.72 235.72 291.81 235.75 290.18C235.87 284.9 233.42 279.46 228.6 277.28C225.5 276 223.67 274.13 221.22 272C220.87 271.53 220.56 270.99 220.25 270.48M182.71 298.62C186.72 295.35 191.77 293.41 196.93 293.21C196.86 295.16 196 297.26 196.97 299.12C196.47 298.65 196.39 297.95 196.35 297.33C193.94 297.1 191.69 298.15 189.51 298.96C185.67 300.71 182.48 303.78 180.5 307.51C180.34 307.82 180.19 308.14 180.03 308.45C179.76 309.07 179.33 309.81 178.63 310C177.54 310.31 175.56 308.56 176.07 307.51C176.57 306.46 177.12 305.45 177.7 304.48C178.98 302.23 180.77 300.32 182.71 298.62M201.87 293.45C203.58 293.99 205.37 294.34 207 295.08C210.73 296.79 214.42 298.58 218.15 300.32C219.63 300.95 221.14 301.26 222.7 301.34C225.92 301.45 229.23 300.25 231.63 298.11C231.56 297.99 231.4 297.76 231.32 297.64C232.57 298.58 233.77 299.51 235.05 300.4C233.85 301.26 232.76 302.35 231.44 303.04C228.45 304.68 224.99 305.61 221.61 305.22C219.12 305.07 216.79 304.09 214.62 302.97C212.79 302.19 211.04 301.3 209.21 300.48C206.69 299.28 204.16 297.84 201.33 297.57C201.33 297.57 201.33 297.57 201.33 297.57C201.58 295.75 201.77 294.38 201.87 293.45Z" id="a1fxYfhTZS"></path><path d="M234.7 294.03C235.95 294.81 237 295.86 238.24 296.59C239.87 297.6 239.68 300.13 237.97 300.87C236.96 301.34 235.91 300.99 235.05 300.4C233.81 299.47 232.61 298.54 231.32 297.64C229.89 296.59 230.47 294.03 232.14 293.49C233.07 293.17 233.97 293.52 234.7 294.03Z" id="a66y39CKcc"></path><path d="M477.72 236.4C480.75 235.9 483.86 235.35 486.93 235.78C487.59 235.98 488.1 236.48 488.56 236.99M488.56 241.11C488.56 241.14 488.56 241.18 488.52 241.22C488.29 241.53 488.06 241.77 487.79 242.04C485.84 242.08 483.86 241.8 481.96 242.23C479.55 242.43 477.18 243.13 474.89 243.86C473.41 244.33 471.93 244.87 470.49 245.42C470.26 245.69 470.57 245.96 470.84 245.96C473.6 246.31 476.4 246.78 479.08 247.52C481.1 248.02 483.2 248.95 484.29 250.82C484.48 251.52 484.41 252.3 484.44 253.03C484.41 253.66 484.56 254.36 484.21 254.98C484.1 255.37 484.29 255.87 483.94 256.18C483.94 256.34 483.9 256.61 483.9 256.73C483.05 257.66 481.88 258.2 480.79 258.86C476.21 261.39 471 262.28 465.99 263.49C464.01 263.91 462.06 264.46 460.04 264.77C459.96 264.81 459.81 264.93 459.69 264.96C459.58 265 459.34 265 459.23 265C458.92 264.89 458.64 264.96 458.45 265.24C458.37 265.24 458.25 265.27 458.18 265.27C457.9 265.27 457.32 265.24 457.01 265.24C457.32 265.04 457.67 264.93 458.02 264.77C458.06 264.65 458.18 264.54 458.25 264.42C457.83 264.38 457.44 264.34 457.05 264.3C457.13 264.07 457.21 263.84 457.24 263.6C457.17 263.57 456.97 263.57 456.86 263.57C456.86 263.45 456.89 263.25 456.89 263.14C456.66 263.02 456.39 262.94 456.16 262.87C456.16 262.71 456.12 262.48 456.12 262.32C455.85 262.21 455.61 262.09 455.38 261.97C454.95 262.67 454.52 263.37 454.06 263.99C454.02 263.76 453.94 263.29 453.94 263.02C453.71 263.45 453.51 263.88 453.28 264.3C453.24 264.11 453.2 263.72 453.16 263.57C452.7 263.84 452.23 264.11 451.88 264.54C451.73 264.73 451.53 264.89 451.38 265.04C451.1 265.12 450.83 265.16 450.6 265.2C450.41 264.81 450.13 264.54 449.82 264.26C449.82 263.72 449.98 263.14 450.09 262.59C450.44 261.74 450.83 260.85 451.14 259.91C453.59 253.93 456.35 248.06 458.99 242.19C459.96 240.33 460.7 238.35 461.67 236.52C463.5 235.78 465.75 236.09 467.23 237.37C468.05 238 468.47 238.97 468.44 239.98C469.56 239.47 470.73 238.97 471.78 238.31C471.78 238.3 471.85 238.27 471.85 238.27C473.37 237.76 474.92 237.34 476.36 236.68C476.83 236.64 477.26 236.48 477.72 236.4M376.89 232.13C376.92 232.13 377.04 232.09 377.12 232.09C378.28 232.21 379.49 232.17 380.66 232.17C381.32 232.13 381.9 232.6 382.4 232.95C382.48 233.02 382.64 233.22 382.71 233.29C382.64 234.31 382.75 235.35 382.75 236.4C382.71 236.56 382.71 236.91 382.71 237.1C382.68 237.14 382.6 237.22 382.6 237.26C382.36 237.57 382.17 237.88 381.98 238.15C380.85 238.23 379.57 237.88 378.52 238.5C378.01 238.58 377.47 238.58 376.92 238.62C373.04 239.2 369.23 240.56 365.62 242.19C365.23 242.35 364.8 242.47 364.49 242.78C364.37 242.82 364.26 242.97 364.14 243.05C364.57 243.05 365 243.09 365.42 243.09C365.73 243.63 366.39 243.48 366.9 243.32C367.25 243.32 367.6 243.32 367.95 243.36C368.57 243.71 369.31 243.71 370.01 243.79C372.34 244.18 374.67 244.64 376.81 245.65C377.35 246.16 377.97 246.66 378.32 247.36C378.52 248.6 378.4 249.85 378.21 251.09C378.13 251.79 378.01 252.45 377.86 253.15C377.85 253.17 377.82 253.29 377.82 253.31C377.74 253.42 377.59 253.62 377.51 253.73C376.5 254.32 375.6 255.06 374.59 255.64C372.61 256.77 370.51 257.7 368.38 258.51C366.9 258.94 365.46 259.41 364.02 259.87C361.19 260.61 358.35 261.43 355.55 262.28C355.54 262.29 355.45 262.32 355.44 262.32C354 262.59 352.56 262.98 351.16 263.41C351.08 263.33 350.97 263.18 350.93 263.1C351.36 262.94 351.78 262.75 352.21 262.55C351.55 262.32 350.89 262.48 350.23 262.55C350.42 262.32 350.66 262.13 350.89 261.89C350.73 261.27 350.27 260.81 350 260.26C349.69 260.11 349.41 259.99 349.1 259.83C349.1 259.72 349.02 259.52 348.99 259.41C348.87 259.33 348.6 259.21 348.44 259.17C348.36 259.1 348.25 258.98 348.17 258.9C348.44 258.75 348.71 258.63 348.95 258.51C350.23 258.01 351.55 257.62 352.72 257C352.72 256.99 352.79 256.96 352.79 256.96C354.27 256.69 355.63 256.14 357.11 255.72C359.59 254.98 362.16 254.36 364.57 253.23C366.32 252.57 368.07 251.95 369.77 251.13C370.05 251.01 370.32 250.94 370.63 250.82C370.86 250.66 371.14 250.51 371.41 250.35C368.96 250.08 366.51 249.77 364.1 249.69C363.99 249.65 363.87 249.62 363.75 249.58C361.96 249.34 360.1 249.07 358.43 248.29C357.77 248.06 357.57 247.24 356.91 247.01C356.29 248.37 355.36 249.62 354.58 250.9C354.46 251.13 354.31 251.29 354.15 251.48C353.77 251.6 353.61 251.95 353.61 252.3C353.57 252.34 353.49 252.45 353.45 252.49C353.03 252.53 352.83 252.88 352.87 253.27C352.83 253.35 352.76 253.38 352.72 253.46C352.21 253.77 351.9 254.28 351.67 254.78C351.32 255.09 351.05 255.48 350.73 255.83C350.15 256.65 349.37 257.23 348.71 257.97C347.74 258.98 346.85 260.18 345.45 260.65C344.52 261.16 343.47 261.08 342.54 261.51C342.34 261.51 341.99 261.51 341.8 261.51C341.37 261.51 340.9 261.51 340.44 261.51C340.28 261.51 339.93 261.51 339.78 261.51C338.38 261.08 336.98 260.73 335.66 260.03C335.62 259.99 335.58 259.95 335.5 259.91C334.84 259.21 334.1 258.51 333.71 257.58C333.52 257.04 333.6 256.42 333.33 255.91C333.29 255.02 333.29 254.12 333.29 253.27C333.48 252.45 333.6 251.6 333.64 250.78C333.99 248.68 334.65 246.66 335.5 244.76C336.2 243.05 336.94 241.38 337.64 239.71C337.72 239.47 337.83 239.24 337.95 239.01C338.18 238.46 338.46 237.88 338.69 237.3C338.96 236.64 339.23 235.94 339.54 235.28C340.01 234.34 340.71 233.53 341.6 233.02C342.34 232.87 343.12 232.91 343.86 232.98C345.02 233.14 345.8 234.07 346.62 234.85C347.08 235.47 346.97 236.29 346.85 237.03C346.84 237.05 346.74 237.24 346.73 237.26C346.65 237.41 346.54 237.69 346.5 237.84C345.57 239.86 344.63 241.88 343.58 243.86C342.77 245.38 342.11 246.93 341.64 248.57C341.45 249.15 341.29 249.69 341.1 250.24C341.02 250.59 340.94 250.94 340.83 251.25C340.79 251.67 340.79 252.1 340.55 252.49C340.55 253.27 340.24 254.16 340.67 254.94C341.18 255.17 341.84 255.02 342.38 255.09C343.51 254.05 344.75 253 345.68 251.67C348.09 248.45 350.7 245.26 352.6 241.65C353.26 240.48 353.65 239.16 354.27 238C354.5 237.72 354.7 237.45 354.93 237.18C355.05 237.3 355.28 237.45 355.4 237.53C355.44 237.18 355.51 236.87 355.67 236.6C355.71 236.13 355.71 235.67 356.06 235.35C356.17 235.47 356.41 235.67 356.52 235.78C356.56 235.39 356.68 235 357.03 234.77C357.65 234.31 357.88 233.53 358.27 232.87C359.01 233.68 359.36 234.73 359.67 235.74C359.75 236.4 359.71 237.03 359.71 237.69C359.71 238.04 359.71 238.39 359.75 238.77C360.18 238.54 360.64 238.27 361.11 238.04C362 237.65 362.82 237.18 363.64 236.71C366.9 234.89 370.4 233.61 374.01 232.75C374.98 232.52 375.99 232.56 376.89 232.13M340.28 256.65C340.94 256.22 341.64 255.79 342.19 255.17C341.6 255.13 341.02 255.13 340.48 255.13C340.48 254.67 340.44 254.16 340.24 253.73C340.24 254.71 340.24 255.68 340.28 256.65M351.47 260.69C351.08 261.43 352.29 260.69 351.47 260.69M302.32 232.6C302.94 232.44 303.6 232.36 304.26 232.44C305.35 232.83 306.4 233.37 307.29 234.15C307.33 234.19 307.41 234.31 307.45 234.38C307.41 234.77 307.56 235.08 307.91 235.24C307.91 235.86 307.95 236.52 307.6 237.1C306.13 239.78 304.96 242.66 303.6 245.38C302.16 248.53 300.69 251.71 299.25 254.86C299.13 255.02 299.01 255.21 298.9 255.37C298.87 255.42 298.62 255.86 298.59 255.91C300.18 255.99 301.73 255.72 303.33 255.6C303.79 255.79 304.49 255.95 304.73 255.37C305.12 255.37 305.5 255.37 305.89 255.37C307.17 255.44 308.46 254.9 309.74 255.44C309.75 255.48 309.81 255.76 309.82 255.79C309.82 255.83 309.78 255.95 309.78 256.03C309.97 256.03 310.32 256.07 310.52 256.07C310.52 256.1 310.55 256.35 310.56 256.38C310.13 256.61 309.66 256.8 309.27 257C309.27 257.15 309.27 257.43 309.27 257.58C309.28 257.59 309.32 257.66 309.39 257.78C309.48 257.92 309.53 257.99 309.55 258.01C309.86 258.05 310.13 258.09 310.44 258.09C310.87 258.51 311.25 258.94 311.68 259.33C310.75 259.8 309.7 259.91 308.69 260.15C306.63 260.57 304.53 260.96 302.4 261.27C302.32 261.31 302.16 261.43 302.08 261.51C302.06 261.51 301.84 261.51 301.81 261.51C301.5 261.39 301.23 261.51 301.11 261.78C301.09 261.78 300.87 261.78 300.84 261.78C300.53 261.66 300.26 261.74 300.1 262.05C300.08 262.05 299.89 262.01 299.87 262.01C299.56 261.89 299.29 262.01 299.13 262.24C299.12 262.25 299.03 262.28 299.01 262.28C297.3 262.55 295.75 263.14 294.16 263.6C293.34 263.8 292.6 264.15 291.75 264.07C290.7 263.72 290.19 262.63 289.26 262.09C289.3 261.27 289.38 260.42 289.26 259.6C289.57 259.1 289.84 258.55 290.35 258.2C290.78 257.7 291.05 257.11 291.36 256.53C292.49 254.51 293.46 252.41 294.51 250.31C294.82 249.65 295.17 248.95 295.44 248.33C296.1 247.13 296.53 245.92 297.07 244.76C297.08 244.74 297.18 244.58 297.19 244.56C298.43 242.08 299.33 239.43 300.37 236.83C300.69 235.98 301.04 235.08 301.04 234.11C301.38 233.57 301.77 233.02 302.32 232.6M335.04 235.59C336.05 234.65 336.86 233.57 337.99 232.79C338.07 232.98 338.26 233.29 338.38 233.49C338.49 233.49 338.77 233.49 338.92 233.49C339 233.76 339.08 234.07 339.15 234.34C339.08 234.5 338.92 234.73 338.84 234.85C337.95 236.21 336.82 237.41 335.93 238.73C335.85 238.81 335.74 238.89 335.7 238.93C335.23 239.28 334.8 239.67 334.69 240.25C334.18 240.79 333.71 241.3 333.29 241.88C332.82 242.23 332.47 242.7 332.24 243.2C332.2 243.24 332.12 243.36 332.08 243.4C331.15 244.29 330.37 245.34 329.75 246.43C329.75 246.51 329.67 246.55 329.67 246.62C328.62 247.59 327.89 248.84 327.03 250C326.29 251.09 325.4 252.06 324.82 253.27C324.78 253.35 324.74 253.38 324.66 253.46C324.23 253.89 323.84 254.43 323.61 255.02C322.64 256.61 321.51 258.13 320.66 259.8C320.54 259.99 320.46 260.18 320.39 260.38C320.27 260.69 320.19 260.96 320.08 261.27C319.73 261.7 319.42 262.17 318.95 262.48C317.9 262.63 316.81 262.52 315.76 262.55C315.75 262.55 315.69 262.48 315.68 262.48C314.56 261.89 312.73 261.39 313 259.76C313 259.29 313 258.82 313 258.36C312.58 256.69 312.34 254.98 311.95 253.35C311.53 250.63 310.94 247.94 310.48 245.26C310.36 244.8 310.36 244.33 310.13 243.94C310.09 242.7 309.74 241.49 309.51 240.29C309.16 238.73 308.85 237.18 308.46 235.59C308.34 235.2 308.38 234.77 308.65 234.46C308.85 234.23 309.04 234.03 309.2 233.8C310.83 233.1 312.58 233.84 314.05 234.62C314.01 235.08 314.48 235.43 314.91 235.28C315.57 236.01 315.92 236.95 316.15 237.88C316.23 238.15 316.23 238.46 316.23 238.73C316.23 239.55 316.5 240.37 316.66 241.18C316.93 242.82 317.16 244.41 317.43 246C317.39 246.62 317.36 247.28 317.43 247.91C317.51 247.98 317.67 248.18 317.78 248.26C317.78 248.37 317.82 248.57 317.82 248.68C317.86 249.54 317.98 250.43 318.17 251.29C318.56 251.05 318.83 250.7 319.07 250.31C319.08 250.3 319.17 250.21 319.18 250.2C319.38 249.93 319.57 249.65 319.76 249.42C320.39 248.53 321.01 247.67 321.71 246.82C322.45 245.81 323.53 244.99 324.16 243.83C325.09 243.59 325.71 242.85 326.25 242.12C326.26 242.07 326.29 241.7 326.29 241.65C326.53 241.65 326.72 241.65 326.95 241.65C326.99 241.8 327.07 242.12 327.15 242.23C327.19 242 327.19 241.73 327.19 241.42C327.03 240.64 327.46 239.98 327.92 239.36C328.31 239.43 328.74 239.55 329.13 239.67C329.32 239.4 329.52 239.16 329.67 238.93C329.98 238.54 330.33 238.19 330.61 237.8C330.68 237.65 330.76 237.49 330.84 237.34C330.92 237.92 330.37 238.27 330.1 238.7C329.75 239.05 329.91 239.55 329.91 239.98C330.53 239.32 331.15 238.54 332.01 238.11C331.97 237.8 331.97 237.49 331.97 237.18C332.78 237.1 333.29 236.36 333.95 235.9C333.79 236.36 333.56 236.83 333.37 237.3C334.06 237.18 334.38 236.52 334.73 236.01C334.8 235.94 334.88 235.78 334.92 235.7C334.93 235.7 334.97 235.66 335.04 235.59M419.44 233.26C420.83 233.22 422.19 232.98 423.59 233.14C424.68 233.22 425.73 233.22 426.82 233.26C428.68 233.26 430.47 233.76 432.22 234.27C432.24 234.27 432.36 234.3 432.38 234.31C433.54 235.24 435.13 234.89 436.49 234.54C437.27 234.54 438.05 234.5 438.83 234.5C439.29 234.69 439.91 234.77 440.26 234.27C440.77 234.27 441.27 234.27 441.82 234.27C442.28 234.38 442.94 234.58 443.22 234.03C443.72 234.03 444.27 233.99 444.77 233.99C445.2 234.15 445.9 234.31 446.17 233.72C446.52 233.72 446.83 233.72 447.18 233.72C447.69 233.96 448.31 233.99 448.66 233.49C448.68 233.49 448.9 233.49 448.93 233.49C449.28 233.99 449.9 233.96 450.37 233.72C450.83 233.72 451.3 233.72 451.77 233.8C452.81 234.11 453.94 233.96 455.03 234.07C455.65 234.03 455.92 234.65 456.27 235C456.39 235.08 456.62 235.2 456.74 235.28C456.78 235.35 456.89 235.51 456.97 235.59C456.31 235.59 455.61 235.63 454.95 235.7C455.15 235.78 455.38 235.82 455.57 235.9C455.57 236.09 455.61 236.48 455.61 236.68C455.69 236.75 455.92 236.95 456.04 237.03C456.2 237.37 456.54 237.57 456.86 237.8C456.89 238.04 456.93 238.27 456.97 238.5C457.32 238.81 457.59 239.16 457.83 239.55C457.13 239.47 456.39 239.51 455.73 239.67C454.49 239.98 453.2 239.63 451.96 239.9C450.91 240.13 449.78 239.9 448.73 240.29C448.35 240.37 447.92 240.37 447.53 240.41C447.3 240.68 447.1 240.91 446.91 241.14C446.71 241.46 446.6 241.77 446.48 242.12C446.25 242.7 446.13 243.4 445.82 243.98C443.18 248.84 440.73 253.81 438.28 258.79C437.78 259.76 437.31 260.81 436.84 261.82C436.34 262.9 436.07 264.07 435.33 265C434.9 265.12 434.51 265.2 434.16 265.27C433.31 264.65 432.45 264.11 431.75 263.33C431.4 262.94 431.13 263.29 430.9 263.6C430.86 263.49 430.7 263.25 430.67 263.14C430.32 263.25 429.93 263.37 429.58 263.49C428.68 263.99 427.63 263.53 427.17 262.67C426.62 261.54 426.27 260.3 425.77 259.17C425.76 259.15 425.7 259 425.69 258.98C425.03 257.04 424.49 255.02 423.87 253.03C423.67 252.06 423.36 251.09 423.13 250.12C422.74 250.2 422.27 250.35 421.84 250.47C421.77 250.47 421.61 250.55 421.53 250.55C419.98 250.86 418.5 251.36 417.03 251.83C415.82 252.1 415.71 253.54 415.01 254.32C414.97 254.32 414.66 254.39 414.62 254.39C414.66 254.16 414.69 253.66 414.73 253.38C414.31 254.05 413.96 254.74 413.88 255.52C413.02 256.45 412.44 257.58 411.82 258.71C411.51 259.1 411.35 259.6 411.16 260.07C410.46 261.08 410.03 262.21 409.53 263.33C408.94 262.67 408.21 262.13 407.27 262.28C407.16 262.32 406.92 262.32 406.81 262.32C406.57 262.36 406.15 262.4 405.91 262.4C404.82 261.62 404.24 260.34 404.01 259.02C403.93 258.94 403.89 258.75 403.81 258.63C403.81 258.51 403.78 258.28 403.78 258.2C403.7 258.05 403.62 257.78 403.58 257.66C403.58 257.54 403.54 257.35 403.54 257.27C403.35 255.72 402.88 254.2 402.73 252.65C401.44 252.72 400.28 253.15 399.07 253.5C397.67 253.93 396.24 254.28 394.99 255.02C394.57 255.25 394.1 255.44 393.71 255.75C392.47 257.19 391.26 258.71 390.18 260.3C389.63 260.85 389.05 261.47 388.35 261.89C387.14 260.88 385.9 259.87 384.66 258.9C384.66 258.32 384.66 257.7 384.7 257.11C384.7 257.1 384.77 256.94 384.77 256.92C385.51 255.44 386.6 254.2 387.69 252.92C388.31 252.3 388.7 251.44 389.24 250.74C390.33 249.15 391.5 247.52 392.7 245.96C393.67 244.45 394.49 242.82 395.42 241.3C395.5 241.18 395.62 240.95 395.69 240.83C396.43 239.55 397.13 238.27 397.87 237.03C397.95 236.71 397.99 236.36 398.1 236.05C398.18 235.82 398.26 235.59 398.37 235.35C398.53 235 398.65 234.65 398.76 234.27C399.58 233.68 400.59 233.68 401.56 233.76C402.84 234.27 404.48 234.62 404.98 236.09C405.52 237.88 405.64 239.75 405.95 241.57C406.15 242.47 405.99 243.48 406.42 244.33C406.5 244.87 406.61 245.38 406.73 245.92C406.92 246.62 407.7 246.23 408.21 246.2C409.1 245.96 410.11 246.27 410.93 245.77C411.16 245.77 411.39 245.73 411.66 245.73C411.7 245.69 411.74 245.57 411.82 245.5C411.83 245.47 411.92 245.29 411.94 245.26C412.44 244.21 412.95 243.13 413.49 242.08C413.57 241.92 413.68 241.77 413.72 241.57C413.73 241.54 413.83 241.33 413.84 241.3C413.92 241.18 413.96 240.91 413.96 240.79C413.57 240.52 413.22 240.29 412.83 240.02C412.29 239.43 411.7 238.93 411.24 238.31C410.89 237.8 411 237.18 410.96 236.6C412.56 235.08 414.89 234.97 416.72 233.88C417.57 233.49 418.5 233.26 419.44 233.26M422.27 239.2C422.18 239.2 422.13 239.2 422.12 239.2C421.53 240.72 420.83 242.19 420.33 243.71C420.31 243.71 420.12 243.74 420.1 243.75C419.86 244.1 419.75 244.52 419.67 244.91C420.17 244.8 420.68 244.68 421.15 244.45C423.94 243.28 426.82 242.15 429.31 240.44C429.32 240.44 429.45 240.37 429.46 240.37C429.11 239.78 428.8 239.2 428.57 238.58C426.47 238.66 424.18 238.15 422.27 239.2M437.78 241.61C437.74 241.77 437.7 242.04 437.7 242.19C436.77 243.24 435.6 244.1 434.4 244.87C433.89 245.07 433.39 245.38 432.92 245.65C431.4 246.04 430.35 247.24 428.88 247.71C428.84 247.98 428.84 248.26 428.88 248.53C428.88 248.52 428.89 248.5 428.92 248.45C428.92 248.47 428.92 248.49 428.92 248.49C429.19 249.19 429.27 249.93 429.5 250.63C429.42 251.71 429.85 252.76 430 253.81C430.2 254.39 430.04 255.13 430.51 255.64C430.59 256.49 430.78 257.35 430.9 258.24C431.25 257.46 431.64 256.77 431.91 255.95C431.92 255.94 432.05 255.84 432.06 255.83C432.92 253.81 433.93 251.83 434.98 249.89C435.99 247.87 437.12 245.92 438.16 243.94C438.4 243.09 439.18 242.31 438.98 241.34C438.59 241.42 438.16 241.53 437.78 241.61M400.2 245.65C399.93 246.04 399.73 246.43 399.5 246.86C399.5 246.83 399.47 246.65 399.46 246.62C399.31 247.01 398.53 247.71 399.15 247.94C399.93 247.94 400.67 247.59 401.37 247.36C401.72 246.55 401.09 245.73 401.17 244.91C400.63 244.72 400.28 245.15 400.2 245.65M408.28 251.36C408.44 251.64 408.56 251.91 408.71 252.18C408.79 251.91 408.9 251.64 409.02 251.4C408.79 251.4 408.52 251.4 408.28 251.36M277.8 235.78C279 235.2 280.4 234.97 281.72 235.35C282.38 235.82 283.04 236.36 283.59 237.03C283.59 237.69 283.35 238.31 283.16 238.93C283.08 239.2 283.01 239.43 282.89 239.71C282.81 239.94 282.73 240.21 282.66 240.44C280.44 246.04 277.99 251.56 275.31 256.96C274.38 258.59 273.6 260.34 272.9 262.13C272.86 262.21 272.75 262.4 272.71 262.48C272.28 263.02 272.01 263.72 271.39 264.11C270.34 264.42 269.33 263.25 268.36 263.91C268.28 263.84 268.04 263.6 267.93 263.53C267.31 263.02 267.27 262.24 267.31 261.51C267.42 259.68 268.2 257.93 268.86 256.22C269.64 254.16 270.76 252.3 271.62 250.24C270.03 251.56 268.86 253.31 267.7 255.02C267.46 255.64 266.8 255.91 266.3 256.3C266.18 256.42 265.91 256.57 265.75 256.65C264.74 256.34 263.81 255.6 262.68 255.6C261.79 254.94 261.24 253.93 260.78 252.92C260.51 252.41 260.51 251.79 260.2 251.29C260.16 251.17 260.12 250.9 260.12 250.74C259.92 250.35 259.88 249.96 259.85 249.54C259.77 249.5 259.57 249.46 259.46 249.42C259.3 249.85 259.15 250.24 258.99 250.59C258.45 251.83 257.94 253.03 257.4 254.2C256.7 255.83 256.04 257.46 255.34 259.1C254.17 261.35 253.32 263.76 252.07 265.97C251.41 265.62 250.52 265.82 249.9 265.35C249.28 265.43 248.65 265.55 248.03 265.7C247.84 265.51 247.68 265.31 247.57 265.12C247.45 264.96 247.33 264.69 247.26 264.54C247.1 263.41 247.57 262.32 247.84 261.19C248.77 258.63 249.78 256.03 250.95 253.5C251.18 253 251.37 252.45 251.53 251.95C251.57 251.83 251.65 251.6 251.69 251.48C251.84 251.13 252.04 250.82 252.15 250.47C253.36 247.91 254.56 245.3 255.88 242.78C256.43 241.46 256.78 240.09 257.32 238.77C257.44 238.54 257.51 238.31 257.63 238.07C257.83 237.76 257.98 237.45 258.17 237.1C258.41 236.71 258.68 236.33 259.03 235.94C260.31 235.98 261.56 235.32 262.88 235.67C263.81 235.9 264.39 236.71 265.01 237.41C265.29 238.5 264.78 239.67 264.94 240.79C264.98 242.31 264.82 243.83 264.94 245.34C264.94 245.5 264.94 245.88 264.94 246.04C265.01 246.78 265.25 247.48 265.6 248.14C265.75 247.98 265.95 247.83 266.1 247.71C266.3 247.48 266.53 247.28 266.72 247.09C267.35 246.39 267.93 245.69 268.55 244.99C270.92 242.78 273.14 240.41 275.31 238C276.13 237.26 276.83 236.33 277.8 235.78M287.78 235.55C288.91 235.28 290.08 235.32 291.24 235.43C292.45 235.59 293.19 236.56 294.08 237.3C294 237.72 294.16 238.23 294 238.66C293.96 238.81 293.85 239.05 293.77 239.16C292.6 241.46 291.13 243.55 290.12 245.92C289.03 248.37 287.78 250.7 286.74 253.15C286.04 254.74 285.1 256.26 284.48 257.93C284.47 257.94 284.41 258.04 284.4 258.05C283.9 259.02 283.43 260.03 282.77 260.92C282.58 261.27 282.19 261.47 281.84 261.62C281.76 261.78 281.68 261.97 281.61 262.13C281.57 261.97 281.41 261.66 281.33 261.51C280.91 262.21 280.52 262.87 280.21 263.6C279.97 263.49 279.74 263.41 279.51 263.37C279.12 263.68 278.69 263.99 278.26 264.3C277.88 264.61 277.49 264.96 277.14 265.31C276.83 265.47 276.48 265.66 276.17 265.82C276.17 265.66 276.13 265.35 276.13 265.16C276.1 265.16 275.85 265.19 275.82 265.2C275.7 265.24 275.51 265.24 275.39 265.24C275.35 264.89 275.35 264.54 275.35 264.19C275.78 263.45 275.97 262.59 276.24 261.78C276.36 261.58 276.44 261.35 276.48 261.08C277.29 259.14 278.07 257.11 278.93 255.21C280.09 252.41 281.22 249.62 282.5 246.9C283.74 244.06 284.95 241.18 286.23 238.42C286.74 237.45 286.93 236.29 287.78 235.55M459.19 257.43C459.11 257.54 458.99 257.81 458.92 257.93C458.6 258.36 458.41 258.82 458.25 259.29C463.03 258.09 467.81 257.04 472.48 255.48C473.88 254.98 475.35 254.67 476.63 253.89C476.87 253.77 477.1 253.62 477.33 253.46C476.87 253.35 476.4 253.23 475.93 253.23C473.95 253 472.01 252.61 470.03 252.34C469.33 252.06 468.51 252.06 467.77 251.83C466.53 251.48 465.29 251.17 464.12 250.55C464.08 250.47 463.97 250.35 463.89 250.31C463.73 250.04 463.62 249.77 463.5 249.5C463.38 249.5 463.19 249.5 463.11 249.5C461.71 252.06 460.47 254.74 459.19 257.43Z" id="c3S4rEuFGf"></path><path d="M474.57 233.96C477.61 233.45 480.71 232.91 483.78 233.29C484.48 233.53 484.99 234.11 485.49 234.62C485.46 235.39 485.53 236.17 485.8 236.91C485.84 237.53 485.57 238.15 485.38 238.77C485.14 239.05 484.91 239.32 484.64 239.59C482.7 239.63 480.71 239.36 478.81 239.75C476.4 239.98 474.03 240.68 471.74 241.42C470.26 241.84 468.79 242.39 467.35 242.93C467.11 243.24 467.43 243.48 467.7 243.51C470.46 243.86 473.25 244.33 475.93 245.03C477.96 245.57 480.05 246.47 481.14 248.37C481.34 249.07 481.26 249.85 481.3 250.55C481.26 251.21 481.41 251.91 481.06 252.49C480.95 252.92 481.14 253.42 480.79 253.73C480.79 253.85 480.75 254.16 480.75 254.28C479.9 255.21 478.73 255.75 477.64 256.42C473.06 258.9 467.85 259.83 462.84 261.04C460.86 261.47 458.92 262.01 456.89 262.28C456.82 262.36 456.66 262.44 456.54 262.52C456.43 262.52 456.2 262.55 456.08 262.55C455.77 262.44 455.5 262.48 455.3 262.79C455.22 262.79 455.11 262.83 455.03 262.83C454.76 262.79 454.17 262.79 453.86 262.75C454.17 262.59 454.52 262.48 454.87 262.32C454.91 262.21 455.03 262.09 455.11 261.97C454.68 261.89 454.29 261.89 453.9 261.86C453.98 261.62 454.06 261.39 454.1 261.12C454.02 261.12 453.82 261.12 453.71 261.08C453.71 261 453.75 260.77 453.75 260.65C453.51 260.57 453.24 260.5 453.01 260.38C453.01 260.26 452.97 259.99 452.97 259.87C452.7 259.76 452.46 259.64 452.23 259.52C451.8 260.22 451.38 260.88 450.91 261.54C450.87 261.31 450.79 260.81 450.79 260.57C450.56 261 450.37 261.43 450.13 261.86C450.09 261.66 450.06 261.27 450.02 261.08C449.55 261.39 449.08 261.66 448.73 262.09C448.58 262.24 448.38 262.44 448.23 262.59C447.96 262.67 447.69 262.71 447.45 262.75C447.26 262.36 446.99 262.09 446.67 261.82C446.67 261.27 446.83 260.69 446.95 260.15C447.3 259.25 447.69 258.36 448 257.46C450.44 251.48 453.2 245.61 455.85 239.75C456.86 237.88 457.56 235.9 458.53 234.07C460.35 233.33 462.61 233.64 464.08 234.93C464.9 235.55 465.29 236.52 465.29 237.53C466.41 237.03 467.58 236.52 468.63 235.86C468.64 235.86 468.7 235.82 468.71 235.82C470.22 235.32 471.78 234.89 473.21 234.23C473.68 234.15 474.11 234.03 474.57 233.96M373.74 229.64C373.78 229.64 373.89 229.64 373.97 229.64C375.14 229.76 376.34 229.68 377.51 229.72C378.17 229.68 378.75 230.15 379.26 230.46C379.33 230.57 379.49 230.77 379.57 230.85C379.49 231.86 379.61 232.91 379.61 233.92C379.57 234.11 379.57 234.46 379.57 234.62C379.53 234.65 379.45 234.77 379.45 234.81C379.22 235.12 379.02 235.43 378.83 235.7C377.7 235.74 376.42 235.43 375.37 236.05C374.87 236.09 374.32 236.13 373.78 236.17C369.89 236.75 366.08 238.11 362.47 239.71C362.12 239.9 361.65 240.02 361.34 240.33C361.23 240.37 361.11 240.48 360.99 240.56C361.42 240.6 361.85 240.64 362.28 240.6C362.59 241.14 363.25 240.99 363.75 240.83C364.1 240.87 364.45 240.87 364.8 240.91C365.42 241.26 366.16 241.26 366.86 241.34C369.19 241.73 371.52 242.19 373.66 243.16C374.2 243.71 374.83 244.21 375.18 244.91C375.37 246.16 375.25 247.4 375.06 248.64C374.98 249.3 374.87 250 374.71 250.7C374.71 250.72 374.67 250.84 374.67 250.86C374.59 250.94 374.44 251.17 374.36 251.29C373.35 251.87 372.46 252.61 371.45 253.19C369.46 254.32 367.37 255.25 365.23 256.07C363.79 256.49 362.31 256.96 360.88 257.43C358.04 258.16 355.2 258.98 352.41 259.83C352.39 259.84 352.3 259.87 352.29 259.87C350.85 260.15 349.41 260.53 348.01 260.96C347.94 260.85 347.82 260.73 347.78 260.61C348.21 260.46 348.64 260.3 349.06 260.11C348.4 259.83 347.74 260.03 347.08 260.11C347.28 259.87 347.51 259.64 347.74 259.45C347.59 258.82 347.12 258.36 346.85 257.81C346.54 257.66 346.27 257.54 345.96 257.39C345.96 257.27 345.88 257.04 345.84 256.92C345.72 256.88 345.45 256.77 345.29 256.73C345.22 256.65 345.1 256.49 345.02 256.42C345.29 256.3 345.57 256.18 345.8 256.07C347.08 255.56 348.4 255.17 349.57 254.55C349.58 254.55 349.64 254.52 349.65 254.51C351.12 254.2 352.48 253.7 353.96 253.27C356.45 252.53 359.01 251.91 361.42 250.78C363.17 250.12 364.92 249.5 366.63 248.68C366.9 248.57 367.17 248.45 367.48 248.33C367.72 248.18 367.99 248.02 368.26 247.87C365.81 247.59 363.36 247.32 360.95 247.21C360.84 247.21 360.72 247.13 360.6 247.09C358.82 246.86 356.95 246.62 355.28 245.85C354.62 245.61 354.43 244.8 353.77 244.56C353.14 245.92 352.21 247.13 351.43 248.45C351.32 248.64 351.16 248.84 351.01 248.99C350.62 249.15 350.46 249.46 350.46 249.85C350.42 249.89 350.35 250 350.31 250.04C349.88 250.08 349.69 250.43 349.72 250.82C349.69 250.86 349.61 250.94 349.57 250.98C349.1 251.32 348.75 251.83 348.52 252.3C348.17 252.65 347.9 253.03 347.59 253.38C347 254.16 346.23 254.78 345.57 255.52C344.6 256.53 343.7 257.74 342.3 258.2C341.37 258.71 340.32 258.63 339.39 259.06C339.19 259.06 338.84 259.06 338.65 259.06C338.18 259.06 337.72 259.06 337.29 259.06C337.13 259.06 336.78 259.06 336.63 259.02C335.23 258.63 333.83 258.24 332.51 257.58C332.47 257.54 332.43 257.5 332.35 257.46C331.69 256.73 330.96 256.03 330.57 255.13C330.37 254.55 330.45 253.97 330.18 253.42C330.14 252.57 330.14 251.67 330.18 250.82C330.37 250 330.45 249.15 330.49 248.33C330.84 246.23 331.5 244.21 332.35 242.31C333.05 240.6 333.79 238.93 334.49 237.26C334.57 237.03 334.69 236.79 334.8 236.56C335.04 236.01 335.31 235.43 335.54 234.85C335.81 234.19 336.09 233.49 336.4 232.79C336.86 231.9 337.56 231.08 338.46 230.57C339.19 230.42 339.93 230.46 340.71 230.54C341.87 230.65 342.65 231.62 343.47 232.4C343.93 233.02 343.82 233.84 343.7 234.54C343.69 234.57 343.6 234.78 343.58 234.81C343.51 234.97 343.39 235.24 343.35 235.35C342.42 237.41 341.49 239.43 340.44 241.42C339.62 242.89 338.96 244.49 338.49 246.08C338.3 246.66 338.14 247.24 337.95 247.79C337.91 248.14 337.79 248.49 337.68 248.8C337.64 249.23 337.6 249.65 337.41 250C337.41 250.82 337.1 251.71 337.52 252.45C338.03 252.72 338.65 252.57 339.23 252.65C340.36 251.56 341.6 250.55 342.54 249.23C344.94 245.96 347.55 242.82 349.45 239.2C350.11 238.04 350.5 236.71 351.12 235.51C351.36 235.24 351.55 235 351.78 234.73C351.9 234.81 352.13 234.97 352.25 235.08C352.29 234.73 352.37 234.42 352.52 234.11C352.56 233.68 352.56 233.22 352.91 232.91C353.03 233.02 353.26 233.22 353.38 233.33C353.42 232.91 353.53 232.56 353.88 232.32C354.5 231.86 354.74 231.08 355.13 230.42C355.86 231.24 356.21 232.28 356.52 233.29C356.6 233.92 356.56 234.58 356.56 235.24C356.56 235.59 356.56 235.94 356.6 236.33C357.03 236.09 357.5 235.82 357.96 235.55C358.86 235.2 359.67 234.69 360.49 234.23C363.75 232.44 367.25 231.16 370.86 230.3C371.83 230.07 372.84 230.11 373.74 229.64M337.13 254.2C337.79 253.77 338.49 253.35 339 252.72C338.46 252.68 337.87 252.68 337.33 252.68C337.33 252.18 337.25 251.71 337.1 251.29C337.1 252.26 337.1 253.23 337.13 254.2M348.33 258.24C347.94 258.98 349.14 258.24 348.33 258.24M299.17 230.15C299.79 229.95 300.45 229.91 301.11 229.95C302.2 230.34 303.25 230.92 304.14 231.66C304.18 231.74 304.26 231.86 304.3 231.93C304.26 232.32 304.42 232.6 304.77 232.79C304.77 233.41 304.8 234.07 304.45 234.65C302.98 237.34 301.81 240.21 300.45 242.93C299.01 246.08 297.54 249.27 296.1 252.41C295.98 252.57 295.87 252.76 295.75 252.92C295.72 252.97 295.47 253.41 295.44 253.46C297.03 253.5 298.59 253.27 300.18 253.15C300.65 253.35 301.35 253.46 301.58 252.92C301.97 252.92 302.36 252.92 302.75 252.92C304.03 252.96 305.31 252.41 306.59 253C306.6 253.03 306.66 253.28 306.67 253.31C306.67 253.38 306.63 253.5 306.63 253.58C306.83 253.58 307.17 253.62 307.37 253.62C307.37 253.65 307.4 253.9 307.41 253.93C306.98 254.16 306.51 254.36 306.13 254.55C306.13 254.71 306.13 254.98 306.13 255.09C306.13 255.11 306.17 255.19 306.24 255.33C306.34 255.47 306.39 255.54 306.4 255.56C306.71 255.6 306.98 255.6 307.29 255.64C307.72 256.07 308.11 256.45 308.53 256.88C307.6 257.35 306.55 257.46 305.54 257.7C303.48 258.09 301.38 258.51 299.25 258.82C299.17 258.86 299.01 258.98 298.94 259.06C298.91 259.06 298.69 259.06 298.66 259.06C298.35 258.94 298.12 259.06 297.97 259.33C297.94 259.33 297.72 259.29 297.69 259.29C297.38 259.21 297.11 259.29 296.96 259.6C296.93 259.6 296.75 259.57 296.72 259.56C296.41 259.45 296.14 259.56 295.98 259.8C295.97 259.8 295.88 259.83 295.87 259.83C294.16 260.11 292.6 260.69 291.01 261.16C290.19 261.35 289.46 261.7 288.6 261.62C287.55 261.27 287.05 260.18 286.11 259.64C286.15 258.79 286.23 257.97 286.11 257.11C286.39 256.61 286.7 256.1 287.2 255.75C287.63 255.25 287.9 254.67 288.21 254.08C289.34 252.06 290.31 249.93 291.36 247.87C291.67 247.17 292.02 246.51 292.29 245.85C292.95 244.68 293.38 243.48 293.92 242.27C293.94 242.26 294.03 242.13 294.04 242.12C295.28 239.63 296.18 236.99 297.23 234.38C297.54 233.49 297.89 232.6 297.89 231.62C298.24 231.08 298.63 230.54 299.17 230.15M331.89 233.14C332.9 232.21 333.71 231.12 334.84 230.34C334.92 230.5 335.11 230.85 335.23 231C335.35 231 335.62 231 335.81 231C335.85 231.31 335.93 231.59 336.01 231.9C335.93 232.01 335.77 232.28 335.7 232.4C334.8 233.76 333.68 234.93 332.78 236.29C332.7 236.33 332.59 236.44 332.55 236.48C332.08 236.79 331.66 237.22 331.54 237.8C331.03 238.31 330.57 238.85 330.14 239.43C329.67 239.78 329.32 240.21 329.09 240.76C329.05 240.79 328.97 240.91 328.94 240.95C328 241.84 327.23 242.89 326.6 243.98C326.6 244.06 326.53 244.1 326.53 244.14C325.48 245.15 324.74 246.39 323.88 247.56C323.15 248.64 322.25 249.62 321.67 250.82C321.63 250.86 321.59 250.94 321.51 250.98C321.09 251.44 320.7 251.99 320.46 252.57C319.49 254.16 318.37 255.68 317.51 257.35C317.39 257.54 317.32 257.7 317.24 257.93C317.12 258.24 317.04 258.51 316.93 258.82C316.58 259.25 316.27 259.72 315.8 259.99C314.75 260.18 313.66 260.07 312.61 260.07C312.61 260.06 312.54 260.03 312.54 260.03C311.41 259.41 309.58 258.9 309.86 257.31C309.86 256.84 309.86 256.38 309.86 255.91C309.43 254.24 309.2 252.53 308.81 250.86C308.38 248.18 307.8 245.5 307.33 242.82C307.21 242.35 307.21 241.88 306.98 241.49C306.94 240.25 306.59 239.05 306.36 237.84C306.01 236.29 305.7 234.69 305.31 233.14C305.23 232.75 305.23 232.32 305.5 232.01C305.7 231.78 305.89 231.59 306.05 231.35C307.68 230.65 309.43 231.39 310.91 232.17C310.87 232.63 311.33 232.98 311.76 232.79C312.42 233.57 312.77 234.5 313 235.43C313.04 235.7 313.04 235.98 313.04 236.25C313.04 237.1 313.35 237.92 313.51 238.73C313.74 240.33 314.01 241.96 314.29 243.55C314.25 244.18 314.21 244.8 314.29 245.46C314.36 245.54 314.52 245.69 314.64 245.81C314.64 245.92 314.67 246.12 314.67 246.2C314.71 247.09 314.83 247.94 315.02 248.84C315.41 248.6 315.68 248.26 315.92 247.87C315.93 247.85 316.02 247.73 316.03 247.71C316.23 247.48 316.42 247.21 316.62 246.93C317.24 246.08 317.86 245.22 318.56 244.37C319.3 243.32 320.39 242.54 321.01 241.38C321.94 241.14 322.56 240.41 323.11 239.67C323.11 239.62 323.14 239.25 323.15 239.2C323.38 239.2 323.57 239.2 323.81 239.2C323.84 239.36 323.96 239.67 324 239.78C324.04 239.51 324.04 239.28 324.04 238.97C323.88 238.19 324.31 237.53 324.78 236.87C325.17 236.99 325.59 237.1 325.98 237.22C326.18 236.95 326.37 236.71 326.53 236.48C326.84 236.05 327.19 235.7 327.46 235.35C327.54 235.2 327.61 235 327.69 234.89C327.77 235.43 327.23 235.82 326.95 236.21C326.6 236.6 326.76 237.06 326.76 237.53C327.38 236.83 328 236.05 328.86 235.67C328.82 235.35 328.82 235.04 328.82 234.73C329.63 234.62 330.14 233.92 330.8 233.45C330.65 233.92 330.41 234.38 330.22 234.85C330.92 234.73 331.23 234.07 331.58 233.57C331.66 233.49 331.73 233.33 331.77 233.26C331.78 233.25 331.82 233.21 331.89 233.14M416.33 230.81C417.69 230.77 419.05 230.54 420.45 230.65C421.53 230.77 422.58 230.77 423.67 230.77C425.54 230.81 427.32 231.31 429.07 231.82C429.09 231.82 429.21 231.85 429.23 231.86C430.39 232.79 431.99 232.4 433.35 232.09C434.12 232.05 434.9 232.05 435.68 232.05C436.14 232.21 436.8 232.32 437.12 231.82C437.62 231.82 438.13 231.82 438.63 231.82C439.1 231.93 439.8 232.09 440.07 231.55C440.57 231.59 441.08 231.55 441.62 231.55C442.05 231.7 442.75 231.82 443.02 231.27C443.37 231.27 443.68 231.27 444.03 231.27C444.54 231.47 445.16 231.51 445.51 231.04C445.54 231.04 445.75 231.04 445.78 231.04C446.13 231.51 446.75 231.51 447.22 231.27C447.69 231.27 448.15 231.27 448.62 231.35C449.67 231.62 450.79 231.51 451.88 231.62C452.5 231.59 452.78 232.17 453.13 232.56C453.24 232.63 453.47 232.75 453.59 232.83C453.63 232.91 453.75 233.02 453.82 233.14C453.16 233.14 452.46 233.18 451.8 233.26C452 233.33 452.23 233.37 452.43 233.45C452.43 233.61 452.46 234.03 452.46 234.23C452.54 234.31 452.78 234.5 452.89 234.58C453.05 234.89 453.4 235.12 453.71 235.35C453.75 235.59 453.79 235.82 453.82 236.05C454.17 236.36 454.45 236.71 454.68 237.06C453.98 237.03 453.28 237.03 452.58 237.22C451.34 237.53 450.06 237.18 448.81 237.45C447.76 237.69 446.64 237.45 445.59 237.84C445.2 237.88 444.77 237.92 444.38 237.96C444.15 238.23 443.95 238.46 443.76 238.7C443.57 238.97 443.45 239.32 443.33 239.67C443.1 240.25 442.98 240.91 442.67 241.53C440.03 246.39 437.58 251.36 435.13 256.3C434.63 257.31 434.16 258.36 433.7 259.37C433.19 260.42 432.92 261.62 432.18 262.55C431.75 262.67 431.36 262.71 431.02 262.79C430.16 262.17 429.31 261.62 428.61 260.88C428.26 260.5 427.98 260.85 427.75 261.16C427.71 261.04 427.56 260.81 427.52 260.69C427.17 260.81 426.78 260.92 426.43 261C425.54 261.54 424.49 261.08 424.02 260.22C423.48 259.06 423.13 257.85 422.62 256.69C422.61 256.67 422.55 256.55 422.54 256.53C421.88 254.55 421.34 252.57 420.72 250.59C420.52 249.62 420.21 248.6 419.98 247.63C419.59 247.75 419.12 247.87 418.7 247.98C418.66 248.02 418.46 248.06 418.39 248.1C416.83 248.41 415.36 248.92 413.84 249.38C412.67 249.65 412.6 251.05 411.86 251.87C411.82 251.88 411.51 251.94 411.47 251.95C411.51 251.71 411.55 251.17 411.59 250.94C411.16 251.6 410.81 252.3 410.73 253.07C409.88 253.97 409.29 255.13 408.67 256.22C408.36 256.65 408.21 257.11 408.01 257.62C407.31 258.63 406.88 259.76 406.38 260.85C405.8 260.22 405.06 259.64 404.13 259.83C404.01 259.83 403.78 259.87 403.66 259.87C403.43 259.87 403 259.91 402.77 259.95C401.68 259.17 401.09 257.89 400.86 256.57C400.78 256.49 400.74 256.26 400.67 256.18C400.67 256.07 400.63 255.83 400.63 255.72C400.55 255.6 400.47 255.33 400.43 255.17C400.43 255.09 400.4 254.9 400.4 254.82C400.2 253.27 399.73 251.75 399.58 250.2C398.3 250.28 397.13 250.7 395.93 251.05C394.53 251.48 393.09 251.83 391.85 252.57C391.42 252.8 390.91 253 390.56 253.31C389.28 254.74 388.12 256.26 387.03 257.81C386.48 258.4 385.9 259.02 385.2 259.45C384 258.44 382.75 257.43 381.51 256.45C381.51 255.83 381.51 255.25 381.55 254.67C381.56 254.65 381.62 254.49 381.63 254.47C382.36 252.96 383.45 251.75 384.54 250.47C385.16 249.85 385.55 248.99 386.1 248.29C387.18 246.66 388.35 245.07 389.59 243.51C390.53 242 391.34 240.37 392.27 238.81C392.35 238.73 392.47 238.5 392.55 238.39C393.28 237.1 393.98 235.82 394.72 234.54C394.8 234.27 394.84 233.92 394.95 233.61C395.03 233.37 395.11 233.1 395.23 232.87C395.38 232.56 395.5 232.17 395.62 231.82C396.43 231.2 397.44 231.2 398.41 231.27C399.7 231.78 401.33 232.17 401.83 233.61C402.38 235.39 402.49 237.3 402.8 239.08C403 240.02 402.88 241.03 403.27 241.88C403.35 242.43 403.46 242.93 403.58 243.48C403.78 244.14 404.55 243.79 405.06 243.75C405.95 243.51 406.96 243.83 407.78 243.32C408.01 243.28 408.24 243.28 408.52 243.28C408.56 243.24 408.59 243.09 408.67 243.05C408.68 243.02 408.78 242.84 408.79 242.82C409.29 241.77 409.8 240.68 410.34 239.63C410.42 239.47 410.54 239.28 410.58 239.12C410.59 239.1 410.68 238.88 410.69 238.85C410.77 238.7 410.81 238.46 410.81 238.35C410.42 238.07 410.07 237.8 409.68 237.57C409.14 236.99 408.56 236.48 408.09 235.86C407.74 235.35 407.86 234.69 407.82 234.15C409.41 232.63 411.74 232.52 413.57 231.43C414.42 231.04 415.36 230.81 416.33 230.81M419.12 236.71C419.03 236.74 418.98 236.75 418.97 236.75C418.39 238.27 417.69 239.75 417.18 241.26C417.16 241.26 416.97 241.3 416.95 241.3C416.72 241.65 416.6 242.08 416.52 242.47C417.03 242.35 417.53 242.23 418.04 242C420.8 240.79 423.67 239.71 426.16 237.96C426.17 237.95 426.3 237.92 426.31 237.92C425.96 237.34 425.65 236.75 425.42 236.13C423.32 236.17 421.03 235.7 419.12 236.71M434.63 239.16C434.59 239.32 434.55 239.55 434.55 239.71C433.62 240.79 432.45 241.65 431.25 242.43C430.74 242.62 430.24 242.93 429.77 243.2C428.26 243.59 427.21 244.8 425.73 245.26C425.69 245.5 425.69 245.81 425.73 246.04C425.73 246.04 425.75 246.02 425.77 246C425.77 246.02 425.77 246.04 425.77 246.04C426.04 246.7 426.12 247.44 426.35 248.14C426.27 249.27 426.7 250.28 426.86 251.36C427.05 251.95 426.9 252.68 427.36 253.19C427.44 254.05 427.63 254.9 427.75 255.79C428.1 255.02 428.49 254.28 428.76 253.5C428.78 253.49 428.9 253.4 428.92 253.38C429.77 251.36 430.78 249.38 431.83 247.44C432.88 245.42 433.97 243.48 435.02 241.49C435.25 240.64 436.03 239.86 435.83 238.89C435.44 238.97 435.02 239.08 434.63 239.16M397.05 243.2C396.78 243.59 396.59 243.98 396.35 244.37C396.35 244.35 396.32 244.16 396.31 244.14C396.16 244.52 395.38 245.26 396 245.5C396.78 245.5 397.52 245.15 398.22 244.91C398.57 244.1 397.95 243.28 398.02 242.47C397.48 242.27 397.13 242.7 397.05 243.2M405.14 248.92C405.29 249.19 405.41 249.46 405.56 249.73C405.68 249.46 405.76 249.19 405.87 248.95C405.64 248.92 405.37 248.92 405.14 248.92M274.65 233.33C275.86 232.75 277.25 232.52 278.58 232.87C279.24 233.37 279.9 233.92 280.44 234.54C280.44 235.24 280.21 235.86 280.01 236.48C279.94 236.71 279.86 236.99 279.74 237.22C279.66 237.49 279.59 237.76 279.51 238C277.29 243.59 274.85 249.11 272.16 254.51C271.23 256.14 270.45 257.89 269.75 259.64C269.72 259.76 269.6 259.91 269.56 260.03C269.13 260.57 268.86 261.27 268.24 261.62C267.19 261.97 266.18 260.81 265.21 261.47C265.13 261.39 264.9 261.16 264.78 261.08C264.16 260.57 264.12 259.8 264.16 259.06C264.28 257.19 265.05 255.48 265.71 253.77C266.49 251.71 267.62 249.81 268.47 247.79C266.88 249.11 265.71 250.86 264.55 252.57C264.28 253.15 263.65 253.46 263.15 253.85C262.99 253.93 262.76 254.12 262.6 254.2C261.59 253.89 260.66 253.15 259.53 253.15C258.64 252.49 258.1 251.48 257.63 250.47C257.36 249.96 257.36 249.34 257.05 248.84C257.01 248.72 256.97 248.41 256.97 248.29C256.78 247.91 256.74 247.48 256.7 247.05C256.62 247.01 256.43 247.01 256.31 246.97C256.15 247.36 256 247.75 255.84 248.14C255.3 249.38 254.79 250.59 254.25 251.75C253.55 253.38 252.89 255.02 252.19 256.61C251.03 258.9 250.17 261.31 248.93 263.53C248.27 263.18 247.37 263.37 246.75 262.9C246.13 262.94 245.51 263.1 244.89 263.25C244.69 263.06 244.57 262.83 244.42 262.67C244.34 262.52 244.19 262.21 244.11 262.09C243.95 260.96 244.42 259.83 244.69 258.75C245.62 256.14 246.63 253.58 247.8 251.05C248.03 250.55 248.23 250 248.38 249.5C248.42 249.38 248.5 249.11 248.54 248.99C248.69 248.68 248.89 248.37 249 248.02C250.21 245.42 251.41 242.85 252.73 240.33C253.28 239.01 253.63 237.65 254.17 236.33C254.29 236.09 254.37 235.86 254.48 235.63C254.68 235.32 254.83 234.97 255.03 234.65C255.26 234.27 255.57 233.88 255.88 233.49C257.16 233.49 258.41 232.87 259.73 233.22C260.66 233.45 261.24 234.27 261.91 234.97C262.14 236.05 261.63 237.18 261.79 238.31C261.83 239.86 261.67 241.38 261.79 242.89C261.79 243.05 261.79 243.4 261.79 243.59C261.83 244.33 262.1 245.03 262.45 245.65C262.6 245.5 262.76 245.38 262.95 245.22C263.15 245.03 263.34 244.8 263.58 244.6C264.2 243.94 264.78 243.2 265.4 242.54C267.77 240.33 269.99 237.92 272.16 235.55C272.98 234.77 273.68 233.84 274.65 233.33M284.64 233.1C285.76 232.83 286.93 232.87 288.1 232.95C289.3 233.1 290.04 234.11 290.93 234.85C290.85 235.28 291.01 235.78 290.85 236.21C290.82 236.33 290.7 236.6 290.62 236.71C289.46 238.97 287.98 241.07 286.97 243.48C285.88 245.88 284.64 248.26 283.59 250.66C282.89 252.3 281.96 253.81 281.33 255.48C281.33 255.49 281.26 255.59 281.26 255.6C280.75 256.57 280.29 257.58 279.62 258.47C279.43 258.82 279.04 258.98 278.69 259.17C278.65 259.33 278.54 259.52 278.46 259.68C278.42 259.52 278.26 259.21 278.19 259.06C277.76 259.72 277.37 260.42 277.06 261.12C276.83 261.04 276.59 260.96 276.36 260.88C275.97 261.23 275.54 261.51 275.12 261.82C274.73 262.17 274.34 262.48 273.99 262.83C273.68 263.02 273.33 263.18 273.02 263.37C273.02 263.22 272.98 262.9 272.98 262.71C272.95 262.71 272.7 262.75 272.67 262.75C272.55 262.75 272.36 262.79 272.24 262.79C272.24 262.44 272.2 262.09 272.2 261.74C272.63 261 272.82 260.15 273.1 259.33C273.21 259.1 273.29 258.86 273.33 258.63C274.15 256.69 274.92 254.67 275.78 252.72C276.94 249.96 278.07 247.17 279.35 244.41C280.6 241.61 281.8 238.73 283.08 235.94C283.59 235 283.78 233.84 284.64 233.1M456.04 254.94C455.96 255.09 455.85 255.37 455.77 255.48C455.46 255.91 455.26 256.38 455.11 256.84C459.89 255.6 464.67 254.59 469.33 253.03C470.73 252.53 472.2 252.18 473.49 251.44C473.72 251.29 473.95 251.17 474.19 251.01C473.72 250.9 473.25 250.74 472.79 250.74C470.81 250.55 468.86 250.16 466.88 249.89C466.18 249.58 465.37 249.62 464.63 249.38C463.38 249.03 462.14 248.68 460.97 248.06C460.94 248.02 460.82 247.91 460.74 247.83C460.59 247.56 460.47 247.32 460.35 247.05C460.24 247.05 460.04 247.01 459.96 247.01C459.96 247.01 459.96 247.01 459.96 247.01C458.2 250.53 456.89 253.18 456.04 254.94Z" id="ak3UvVTGI"></path><path d="M476.21 235.2C479.24 234.65 482.35 234.15 485.42 234.54C486.12 234.77 486.66 235.35 487.16 235.82C487.09 236.6 487.16 237.41 487.48 238.11C487.48 238.73 487.2 239.4 487.05 240.02C486.82 240.29 486.54 240.56 486.31 240.83C484.33 240.83 482.35 240.6 480.44 240.99C478.03 241.18 475.7 241.88 473.37 242.66C471.89 243.09 470.46 243.63 468.98 244.18C468.75 244.45 469.06 244.72 469.33 244.76C472.13 245.07 474.89 245.54 477.57 246.27C479.59 246.78 481.69 247.71 482.77 249.62C482.97 250.31 482.89 251.05 482.93 251.79C482.89 252.45 483.05 253.15 482.7 253.73C482.62 254.16 482.77 254.63 482.46 254.98C482.46 255.09 482.42 255.37 482.39 255.48C481.57 256.45 480.36 257 479.32 257.66C474.69 260.15 469.52 261.08 464.47 262.28C462.49 262.67 460.55 263.22 458.57 263.53C458.49 263.57 458.29 263.68 458.22 263.76C458.1 263.76 457.87 263.76 457.75 263.76C457.44 263.64 457.17 263.72 456.97 263.99C456.89 263.99 456.74 264.03 456.66 264.07C456.39 264.03 455.81 263.99 455.5 263.99C455.85 263.84 456.16 263.68 456.51 263.53C456.58 263.41 456.66 263.29 456.78 263.18C456.35 263.14 455.96 263.14 455.53 263.06C455.61 262.83 455.69 262.59 455.77 262.36C455.69 262.36 455.46 262.32 455.34 262.32C455.38 262.21 455.38 262.01 455.42 261.89C455.15 261.78 454.91 261.74 454.68 261.62C454.64 261.51 454.64 261.23 454.6 261.08C454.37 260.96 454.14 260.85 453.9 260.73C453.47 261.43 453.05 262.13 452.54 262.79C452.54 262.55 452.46 262.05 452.43 261.82C452.23 262.24 452 262.67 451.77 263.06C451.77 262.9 451.69 262.52 451.65 262.32C451.18 262.59 450.72 262.9 450.37 263.33C450.21 263.49 450.02 263.64 449.9 263.84C449.63 263.88 449.36 263.95 449.08 263.99C448.93 263.6 448.62 263.29 448.35 263.02C448.35 262.48 448.5 261.93 448.62 261.39C448.97 260.5 449.32 259.6 449.67 258.71C452.08 252.68 454.87 246.86 457.48 240.95C458.49 239.08 459.19 237.1 460.2 235.28C462.02 234.54 464.24 234.89 465.75 236.13C466.57 236.75 466.92 237.76 466.92 238.73C468.05 238.23 469.21 237.76 470.26 237.06C470.27 237.06 470.33 237.06 470.34 237.06C471.85 236.52 473.41 236.09 474.89 235.47C475.31 235.39 475.74 235.24 476.21 235.2M375.41 230.89C375.45 230.89 375.56 230.89 375.64 230.89C376.81 231 377.97 230.92 379.14 230.92C379.84 230.92 380.38 231.35 380.89 231.7C381 231.82 381.16 231.97 381.24 232.09C381.16 233.1 381.28 234.15 381.24 235.16C381.24 235.35 381.2 235.7 381.2 235.86C381.2 235.9 381.12 236.01 381.08 236.05C380.89 236.36 380.69 236.64 380.5 236.95C379.33 236.99 378.09 236.64 377.04 237.3C376.5 237.34 375.99 237.34 375.45 237.41C371.52 238 367.75 239.36 364.14 240.95C363.75 241.14 363.29 241.26 362.97 241.53C362.9 241.61 362.74 241.73 362.66 241.8C363.09 241.84 363.52 241.84 363.91 241.84C364.22 242.39 364.92 242.23 365.38 242.08C365.73 242.08 366.08 242.12 366.43 242.12C367.09 242.47 367.83 242.47 368.53 242.58C370.82 242.93 373.16 243.4 375.29 244.41C375.88 244.91 376.46 245.46 376.81 246.16C377 247.36 376.92 248.64 376.73 249.85C376.65 250.55 376.54 251.25 376.34 251.91C376.34 251.92 376.31 252.05 376.3 252.06C376.23 252.18 376.07 252.41 375.99 252.53C375.02 253.07 374.13 253.85 373.12 254.39C371.14 255.56 369 256.49 366.9 257.31C365.42 257.74 363.99 258.16 362.51 258.63C359.67 259.41 356.87 260.22 354.08 261.04C354.06 261.04 353.94 261.07 353.92 261.08C352.48 261.39 351.05 261.74 349.65 262.21C349.57 262.09 349.45 261.93 349.41 261.86C349.88 261.7 350.27 261.51 350.73 261.31C350.07 261.08 349.41 261.27 348.71 261.31C348.95 261.08 349.18 260.88 349.41 260.69C349.22 260.03 348.79 259.56 348.48 259.06C348.17 258.9 347.9 258.75 347.63 258.59C347.59 258.51 347.55 258.28 347.47 258.16C347.35 258.13 347.08 258.01 346.93 257.93C346.89 257.89 346.77 257.74 346.69 257.66C346.97 257.54 347.2 257.43 347.47 257.31C348.71 256.77 350.04 256.42 351.24 255.75C351.25 255.75 351.31 255.72 351.32 255.72C352.79 255.44 354.15 254.9 355.59 254.51C358.08 253.73 360.64 253.11 363.05 251.99C364.8 251.36 366.55 250.7 368.26 249.89C368.53 249.81 368.84 249.69 369.11 249.58C369.39 249.42 369.66 249.27 369.89 249.11C367.44 248.84 365.03 248.57 362.59 248.45C362.51 248.41 362.35 248.37 362.28 248.33C360.45 248.1 358.58 247.87 356.91 247.09C356.29 246.82 356.1 246.04 355.44 245.81C354.78 247.17 353.84 248.37 353.1 249.69C352.95 249.89 352.79 250.08 352.64 250.24C352.29 250.35 352.13 250.7 352.13 251.05C352.09 251.13 351.98 251.21 351.94 251.29C351.55 251.32 351.32 251.67 351.4 252.06C351.32 252.1 351.24 252.18 351.2 252.22C350.73 252.57 350.42 253.03 350.15 253.54C349.84 253.89 349.53 254.24 349.26 254.63C348.64 255.41 347.9 256.03 347.24 256.77C346.27 257.78 345.33 258.94 343.93 259.41C343.04 259.91 341.95 259.87 341.02 260.26C340.86 260.26 340.48 260.26 340.32 260.26C339.82 260.26 339.39 260.26 338.96 260.3C338.77 260.26 338.42 260.26 338.26 260.26C336.86 259.87 335.46 259.49 334.18 258.82C334.14 258.79 334.06 258.71 334.03 258.71C333.37 257.97 332.63 257.27 332.24 256.38C332.04 255.79 332.08 255.21 331.81 254.67C331.81 253.77 331.81 252.92 331.81 252.02C332.01 251.21 332.08 250.39 332.12 249.54C332.47 247.48 333.13 245.46 333.99 243.51C334.73 241.84 335.46 240.13 336.16 238.46C336.24 238.23 336.36 238 336.43 237.8C336.71 237.22 336.98 236.64 337.21 236.05C337.45 235.39 337.72 234.73 338.03 234.03C338.49 233.14 339.19 232.28 340.13 231.82C340.83 231.62 341.6 231.7 342.34 231.74C343.51 231.9 344.32 232.87 345.1 233.61C345.57 234.27 345.45 235.08 345.37 235.78C345.36 235.81 345.27 236.03 345.26 236.05C345.18 236.17 345.06 236.48 344.98 236.6C344.09 238.66 343.12 240.68 342.07 242.66C341.25 244.14 340.63 245.69 340.13 247.32C339.93 247.91 339.78 248.45 339.58 249.03C339.54 249.38 339.47 249.73 339.31 250C339.27 250.43 339.23 250.9 339.04 251.25C339.08 252.06 338.77 252.96 339.19 253.7C339.7 253.93 340.32 253.81 340.86 253.89C342.03 252.8 343.27 251.75 344.17 250.47C346.62 247.21 349.18 244.02 351.08 240.44C351.74 239.24 352.13 237.92 352.79 236.75C352.99 236.48 353.22 236.25 353.42 235.94C353.53 236.05 353.77 236.21 353.88 236.29C353.96 235.98 354.04 235.67 354.19 235.35C354.23 234.89 354.23 234.46 354.58 234.15C354.7 234.27 354.89 234.46 355.01 234.54C355.05 234.15 355.16 233.8 355.55 233.57C356.17 233.1 356.41 232.28 356.76 231.62C357.5 232.44 357.85 233.49 358.2 234.5C358.23 235.16 358.2 235.82 358.23 236.44C358.23 236.83 358.23 237.18 358.23 237.53C358.7 237.3 359.17 237.06 359.59 236.79C360.49 236.4 361.3 235.94 362.12 235.47C365.38 233.68 368.88 232.36 372.5 231.51C373.47 231.27 374.48 231.35 375.41 230.89M338.77 255.44C339.47 254.98 340.17 254.59 340.67 253.93C340.13 253.93 339.54 253.93 338.96 253.89C339 253.42 338.92 252.96 338.77 252.53C338.73 253.46 338.73 254.43 338.77 255.44M349.96 259.45C349.61 260.18 350.77 259.45 349.96 259.45M300.8 231.39C301.46 231.2 302.12 231.16 302.78 231.2C303.87 231.59 304.88 232.17 305.78 232.91C305.81 232.95 305.89 233.1 305.93 233.14C305.93 233.57 306.09 233.84 306.44 234.03C306.44 234.65 306.48 235.32 306.09 235.86C304.61 238.58 303.48 241.42 302.08 244.18C300.65 247.32 299.21 250.47 297.73 253.62C297.62 253.81 297.54 253.97 297.42 254.16C297.39 254.21 297.11 254.62 297.07 254.67C298.66 254.74 300.22 254.51 301.81 254.39C302.28 254.55 302.98 254.71 303.25 254.16C303.6 254.16 303.99 254.16 304.38 254.16C305.66 254.2 306.98 253.66 308.22 254.2C308.23 254.24 308.29 254.52 308.3 254.55C308.3 254.63 308.3 254.74 308.3 254.78C308.5 254.78 308.85 254.86 309.04 254.86C309.04 254.89 309.04 255.11 309.04 255.13C308.61 255.37 308.19 255.56 307.76 255.79C307.76 255.91 307.8 256.18 307.8 256.34C307.8 256.35 307.84 256.42 307.91 256.53C307.98 256.7 308.02 256.79 308.03 256.8C308.34 256.84 308.65 256.84 308.96 256.88C309.39 257.27 309.78 257.7 310.17 258.13C309.23 258.59 308.22 258.71 307.21 258.9C305.12 259.33 303.02 259.76 300.92 260.03C300.8 260.11 300.65 260.22 300.57 260.26C300.55 260.27 300.36 260.3 300.34 260.3C299.99 260.15 299.75 260.26 299.6 260.57C299.57 260.57 299.39 260.54 299.36 260.53C299.01 260.46 298.78 260.53 298.59 260.85C298.56 260.84 298.38 260.81 298.35 260.81C298.08 260.69 297.81 260.77 297.62 261.04C297.6 261.04 297.51 261.07 297.5 261.08C295.83 261.31 294.27 261.89 292.64 262.36C291.86 262.55 291.09 262.9 290.27 262.83C289.18 262.48 288.68 261.39 287.75 260.85C287.82 260.03 287.86 259.17 287.75 258.36C288.06 257.85 288.37 257.31 288.83 256.96C289.26 256.49 289.53 255.91 289.84 255.33C290.97 253.27 291.94 251.17 292.99 249.07C293.34 248.41 293.65 247.75 293.96 247.09C294.58 245.92 295.05 244.68 295.56 243.51C295.57 243.5 295.66 243.37 295.67 243.36C296.92 240.83 297.85 238.19 298.86 235.63C299.21 234.73 299.52 233.84 299.52 232.87C299.87 232.32 300.3 231.78 300.8 231.39M336.51 231.55C336.59 231.74 336.78 232.09 336.86 232.25C337.02 232.25 337.29 232.25 337.45 232.25C337.48 232.52 337.56 232.83 337.64 233.14C337.56 233.26 337.41 233.49 337.33 233.61C336.47 235 335.35 236.17 334.41 237.53C334.34 237.57 334.26 237.69 334.18 237.72C333.71 238.04 333.29 238.42 333.17 239.05C332.67 239.55 332.2 240.09 331.77 240.68C331.34 241.03 330.96 241.46 330.72 242C330.68 242.04 330.61 242.12 330.57 242.19C329.63 243.05 328.86 244.1 328.27 245.22C328.24 245.26 328.2 245.34 328.16 245.38C327.11 246.39 326.37 247.59 325.55 248.76C324.78 249.85 323.88 250.86 323.34 252.06C323.26 252.1 323.22 252.18 323.18 252.22C322.76 252.68 322.37 253.23 322.1 253.81C321.12 255.37 320 256.88 319.14 258.55C319.07 258.75 318.95 258.94 318.91 259.17C318.79 259.45 318.68 259.76 318.56 260.03C318.25 260.5 317.9 260.96 317.43 261.23C316.38 261.39 315.33 261.27 314.25 261.31C314.24 261.31 314.18 261.28 314.17 261.27C313.04 260.65 311.25 260.15 311.49 258.51C311.53 258.05 311.53 257.58 311.49 257.11C311.1 255.44 310.83 253.77 310.44 252.1C310.05 249.38 309.43 246.74 308.96 244.06C308.88 243.59 308.85 243.13 308.61 242.7C308.57 241.49 308.22 240.29 307.99 239.08C307.64 237.53 307.33 235.94 306.94 234.38C306.86 233.96 306.86 233.57 307.17 233.22C307.33 233.02 307.52 232.79 307.72 232.56C309.35 231.86 311.06 232.63 312.54 233.37C312.5 233.84 313 234.19 313.43 234.03C314.05 234.77 314.44 235.7 314.67 236.64C314.67 236.95 314.71 237.22 314.71 237.49C314.71 238.35 314.99 239.16 315.14 239.98C315.41 241.57 315.68 243.16 315.92 244.8C315.92 245.42 315.88 246.04 315.92 246.66C316 246.78 316.19 246.93 316.27 247.01C316.27 247.13 316.31 247.36 316.35 247.44C316.35 248.33 316.5 249.19 316.7 250.08C317.04 249.85 317.36 249.5 317.59 249.11C317.6 249.09 317.66 248.97 317.67 248.95C317.86 248.68 318.09 248.41 318.25 248.18C318.91 247.32 319.53 246.43 320.19 245.61C320.97 244.56 322.06 243.75 322.68 242.58C323.57 242.35 324.23 241.61 324.78 240.91C324.78 240.86 324.78 240.49 324.78 240.44C325.01 240.44 325.24 240.44 325.44 240.44C325.48 240.56 325.59 240.87 325.63 241.03C325.67 240.76 325.71 240.48 325.71 240.21C325.55 239.4 325.94 238.73 326.41 238.11C326.84 238.23 327.23 238.35 327.65 238.46C327.81 238.19 328 237.92 328.2 237.69C328.47 237.3 328.82 236.95 329.13 236.6C329.21 236.4 329.28 236.25 329.36 236.13C329.44 236.68 328.86 237.03 328.59 237.45C328.24 237.8 328.39 238.31 328.39 238.73C329.05 238.07 329.63 237.3 330.49 236.91C330.49 236.6 330.45 236.25 330.45 235.94C331.27 235.86 331.81 235.12 332.43 234.65C332.28 235.16 332.08 235.59 331.85 236.05C332.55 235.94 332.9 235.32 333.25 234.77C333.29 234.73 333.4 234.58 333.44 234.5C333.45 234.49 333.49 234.45 333.56 234.38C334.75 233.01 335.74 232.06 336.51 231.55ZM417.96 232.05C419.36 231.97 420.72 231.74 422.12 231.9C423.17 231.97 424.25 232.01 425.3 232.01C427.17 232.05 428.96 232.56 430.74 233.02C430.76 233.03 430.88 233.09 430.9 233.1C432.06 234.03 433.66 233.64 434.98 233.33C435.76 233.29 436.53 233.26 437.31 233.26C437.82 233.45 438.44 233.57 438.75 233.02C439.29 233.02 439.8 233.02 440.3 233.02C440.77 233.14 441.47 233.33 441.74 232.79C442.25 232.79 442.75 232.79 443.26 232.75C443.72 232.91 444.38 233.06 444.65 232.52C445 232.52 445.35 232.52 445.7 232.52C446.17 232.71 446.79 232.75 447.14 232.28C447.17 232.28 447.42 232.28 447.45 232.28C447.8 232.75 448.38 232.75 448.85 232.48C449.32 232.52 449.78 232.52 450.25 232.56C451.3 232.87 452.46 232.75 453.55 232.87C454.17 232.79 454.45 233.41 454.8 233.8C454.91 233.84 455.11 233.99 455.22 234.07C455.26 234.15 455.42 234.27 455.5 234.34C454.8 234.38 454.14 234.38 453.47 234.5C453.67 234.54 453.86 234.62 454.1 234.65C454.1 234.85 454.1 235.24 454.1 235.43C454.21 235.55 454.41 235.7 454.52 235.82C454.72 236.13 455.03 236.36 455.34 236.56C455.38 236.83 455.46 237.06 455.5 237.3C455.81 237.57 456.12 237.92 456.35 238.31C455.61 238.27 454.91 238.27 454.21 238.42C453.01 238.73 451.73 238.39 450.48 238.7C449.39 238.93 448.27 238.7 447.26 239.08C446.83 239.12 446.4 239.16 446.01 239.2C445.82 239.43 445.59 239.67 445.43 239.94C445.2 240.21 445.08 240.56 444.97 240.87C444.73 241.49 444.62 242.15 444.3 242.74C441.66 247.59 439.25 252.57 436.77 257.54C436.26 258.55 435.79 259.56 435.37 260.61C434.86 261.66 434.59 262.87 433.81 263.76C433.42 263.88 433.04 263.95 432.65 264.03C431.83 263.41 430.94 262.87 430.24 262.09C429.93 261.7 429.66 262.09 429.42 262.36C429.34 262.24 429.23 262.01 429.15 261.93C428.8 262.01 428.45 262.13 428.1 262.24C427.21 262.79 426.12 262.32 425.69 261.43C425.15 260.3 424.8 259.06 424.25 257.93C424.25 257.92 424.22 257.79 424.21 257.78C423.55 255.79 423.01 253.81 422.35 251.83C422.19 250.82 421.88 249.85 421.65 248.88C421.22 248.99 420.8 249.11 420.37 249.23C420.29 249.27 420.1 249.3 420.02 249.3C418.5 249.62 417.03 250.16 415.51 250.59C414.31 250.86 414.23 252.3 413.49 253.07C413.46 253.08 413.18 253.14 413.14 253.15C413.14 252.92 413.22 252.41 413.22 252.18C412.79 252.8 412.44 253.5 412.4 254.28C411.51 255.21 410.93 256.38 410.34 257.46C410.03 257.89 409.84 258.36 409.68 258.86C408.98 259.87 408.56 261 408.01 262.09C407.43 261.43 406.69 260.88 405.76 261.08C405.64 261.08 405.41 261.08 405.29 261.08C405.06 261.12 404.63 261.16 404.44 261.19C403.31 260.38 402.73 259.14 402.49 257.81C402.45 257.7 402.38 257.5 402.34 257.43C402.3 257.31 402.3 257.08 402.26 256.96C402.22 256.84 402.14 256.53 402.07 256.42C402.07 256.3 402.03 256.14 402.03 256.03C401.87 254.47 401.41 253 401.21 251.4C399.97 251.48 398.76 251.95 397.56 252.3C396.2 252.68 394.76 253.03 393.52 253.81C393.05 254.01 392.58 254.2 392.23 254.55C390.95 255.99 389.75 257.46 388.7 259.06C388.12 259.64 387.57 260.26 386.87 260.65C385.63 259.64 384.42 258.63 383.18 257.66C383.18 257.08 383.14 256.49 383.18 255.91C383.19 255.89 383.25 255.7 383.26 255.68C384 254.2 385.12 252.96 386.21 251.71C386.79 251.05 387.18 250.24 387.73 249.5C388.85 247.91 389.98 246.31 391.22 244.76C392.2 243.24 392.97 241.61 393.94 240.06C394.02 239.94 394.14 239.75 394.22 239.63C394.92 238.35 395.62 237.06 396.35 235.78C396.43 235.47 396.47 235.12 396.59 234.85C396.66 234.58 396.78 234.34 396.9 234.11C397.05 233.8 397.17 233.41 397.25 233.02C398.06 232.44 399.11 232.44 400.08 232.52C401.37 233.02 402.96 233.37 403.46 234.85C404.05 236.64 404.16 238.5 404.48 240.33C404.63 241.26 404.51 242.23 404.9 243.13C405.02 243.63 405.1 244.18 405.25 244.68C405.45 245.38 406.22 245.03 406.69 244.99C407.58 244.76 408.59 245.03 409.41 244.52C409.64 244.52 409.92 244.52 410.15 244.52C410.19 244.45 410.26 244.33 410.3 244.29C410.32 244.27 410.41 244.08 410.42 244.06C410.93 242.97 411.43 241.92 411.97 240.87C412.09 240.68 412.17 240.52 412.25 240.33C412.26 240.3 412.35 240.08 412.36 240.06C412.4 239.94 412.44 239.67 412.48 239.55C412.09 239.32 411.7 239.05 411.31 238.81C410.81 238.23 410.23 237.69 409.76 237.1C409.37 236.6 409.53 235.94 409.49 235.35C411.08 233.88 413.41 233.76 415.2 232.63C416.05 232.28 417.03 232.05 417.96 232.05M420.76 237.96C420.69 237.98 420.65 237.99 420.64 238C420.06 239.51 419.36 240.95 418.81 242.47C418.79 242.47 418.64 242.54 418.62 242.54C418.39 242.89 418.23 243.28 418.19 243.71C418.7 243.59 419.2 243.48 419.67 243.24C422.43 242.04 425.3 240.91 427.79 239.2C427.81 239.2 427.93 239.17 427.95 239.16C427.63 238.58 427.28 238 427.05 237.34C424.99 237.41 422.7 236.95 420.76 237.96M436.26 240.37C436.26 240.52 436.18 240.79 436.18 240.95C435.25 242.04 434.12 242.89 432.92 243.63C432.38 243.86 431.91 244.14 431.44 244.45C429.93 244.8 428.84 246.04 427.36 246.47C427.36 246.74 427.36 247.01 427.4 247.28C427.4 247.28 427.4 247.27 427.4 247.24C427.4 247.24 427.4 247.24 427.4 247.24C427.71 247.94 427.79 248.68 427.98 249.38C427.95 250.47 428.37 251.52 428.49 252.57C428.72 253.15 428.57 253.93 429.03 254.39C429.07 255.25 429.27 256.14 429.38 257C429.77 256.26 430.16 255.52 430.43 254.74C430.44 254.73 430.54 254.64 430.55 254.63C431.44 252.57 432.41 250.59 433.5 248.64C434.51 246.66 435.6 244.72 436.65 242.74C436.92 241.84 437.66 241.07 437.5 240.13C437.08 240.21 436.69 240.29 436.26 240.37M398.72 244.45C398.45 244.8 398.22 245.22 397.99 245.61C397.98 245.59 397.95 245.4 397.95 245.38C397.79 245.77 397.01 246.51 397.67 246.74C398.45 246.74 399.15 246.39 399.85 246.12C400.2 245.34 399.58 244.52 399.7 243.67C399.11 243.51 398.8 243.94 398.72 244.45M406.81 250.16C406.92 250.43 407.08 250.66 407.2 250.94C407.31 250.7 407.43 250.43 407.51 250.16C407.27 250.16 407.04 250.16 406.81 250.16M276.32 234.54C277.53 233.96 278.93 233.72 280.21 234.11C280.87 234.62 281.57 235.12 282.07 235.78C282.11 236.44 281.84 237.1 281.68 237.69C281.57 237.96 281.49 238.23 281.41 238.46C281.33 238.73 281.22 238.97 281.14 239.2C278.93 244.84 276.52 250.31 273.83 255.72C272.86 257.35 272.09 259.1 271.43 260.88C271.35 260.96 271.23 261.16 271.19 261.27C270.76 261.78 270.49 262.52 269.91 262.87C268.86 263.18 267.81 262.05 266.88 262.71C266.76 262.59 266.53 262.4 266.45 262.28C265.83 261.82 265.75 261.04 265.79 260.3C265.95 258.44 266.72 256.73 267.35 254.98C268.16 252.96 269.25 251.05 270.14 249.03C268.51 250.31 267.35 252.1 266.22 253.77C265.95 254.39 265.29 254.67 264.82 255.09C264.66 255.17 264.39 255.37 264.28 255.44C263.23 255.13 262.33 254.39 261.21 254.39C260.27 253.73 259.73 252.68 259.26 251.71C259.03 251.17 258.99 250.59 258.68 250.08C258.68 249.93 258.64 249.65 258.6 249.5C258.41 249.11 258.41 248.72 258.37 248.29C258.25 248.26 258.06 248.22 257.94 248.18C257.83 248.6 257.63 248.99 257.48 249.38C256.97 250.59 256.47 251.83 255.92 253C255.22 254.63 254.56 256.26 253.86 257.85C252.7 260.11 251.8 262.55 250.6 264.77C249.9 264.42 249 264.61 248.38 264.11C247.76 264.19 247.14 264.34 246.52 264.46C246.36 264.26 246.21 264.07 246.05 263.88C245.97 263.72 245.82 263.45 245.74 263.29C245.58 262.17 246.05 261.08 246.32 259.99C247.29 257.39 248.27 254.78 249.43 252.3C249.67 251.75 249.9 251.25 250.01 250.7C250.05 250.59 250.13 250.35 250.17 250.24C250.36 249.93 250.52 249.58 250.68 249.23C251.88 246.66 253.08 244.1 254.37 241.53C254.91 240.25 255.26 238.85 255.84 237.53C255.92 237.3 256.04 237.06 256.15 236.87C256.31 236.52 256.47 236.21 256.66 235.9C256.93 235.47 257.2 235.08 257.51 234.73C258.8 234.73 260.08 234.07 261.36 234.42C262.29 234.65 262.88 235.51 263.54 236.17C263.77 237.3 263.3 238.42 263.46 239.55C263.46 241.07 263.34 242.58 263.42 244.1C263.42 244.29 263.46 244.64 263.46 244.84C263.5 245.57 263.77 246.23 264.08 246.9C264.28 246.74 264.43 246.62 264.59 246.47C264.82 246.27 265.01 246.04 265.21 245.85C265.83 245.15 266.41 244.45 267.03 243.75C269.44 241.53 271.66 239.16 273.8 236.75C274.65 236.01 275.31 235.08 276.32 234.54M286.31 234.31C287.43 234.07 288.6 234.07 289.73 234.19C290.93 234.34 291.71 235.35 292.56 236.05C292.53 236.52 292.64 236.99 292.53 237.45C292.45 237.57 292.37 237.8 292.29 237.92C291.13 240.21 289.61 242.31 288.6 244.68C287.55 247.13 286.27 249.46 285.22 251.91C284.52 253.54 283.59 255.06 282.97 256.73C282.96 256.73 282.93 256.8 282.93 256.8C282.42 257.81 281.92 258.79 281.26 259.72C281.06 260.03 280.71 260.22 280.36 260.38C280.29 260.57 280.21 260.73 280.13 260.92C280.05 260.77 279.94 260.46 279.86 260.3C279.43 260.96 279.04 261.62 278.69 262.36C278.46 262.28 278.23 262.21 277.99 262.13C277.64 262.44 277.18 262.75 276.79 263.06C276.36 263.37 276.01 263.72 275.62 264.07C275.31 264.26 274.96 264.42 274.69 264.61C274.65 264.46 274.65 264.11 274.65 263.95C274.62 263.96 274.37 263.99 274.34 263.99C274.22 263.99 273.99 263.99 273.87 263.99C273.87 263.64 273.87 263.29 273.87 262.98C274.26 262.21 274.46 261.39 274.73 260.57C274.85 260.34 274.96 260.11 275 259.87C275.82 257.89 276.55 255.91 277.41 253.97C278.61 251.17 279.74 248.37 280.98 245.65C282.23 242.82 283.43 239.98 284.75 237.18C285.22 236.21 285.45 235.04 286.31 234.31M457.67 256.18C457.59 256.3 457.48 256.61 457.4 256.73C457.13 257.11 456.89 257.58 456.78 258.05C461.52 256.84 466.34 255.79 470.96 254.28C472.36 253.73 473.84 253.42 475.12 252.68C475.35 252.53 475.62 252.41 475.86 252.22C475.39 252.1 474.89 251.99 474.42 251.99C472.44 251.75 470.49 251.36 468.51 251.13C467.81 250.82 467 250.82 466.26 250.59C465.02 250.28 463.77 249.93 462.61 249.3C462.57 249.23 462.45 249.11 462.37 249.07C462.26 248.8 462.14 248.53 461.98 248.29C461.91 248.26 461.71 248.26 461.64 248.26C460.2 250.82 458.99 253.54 457.67 256.18Z" id="cp3ADgjFi"></path></defs><g><g><g><use xlink:href="#agsDnadnF" opacity="1" fill="#ffff00" fill-opacity="1"></use><g><use xlink:href="#agsDnadnF" opacity="1" fill-opacity="0" stroke="#000000" stroke-width="1" stroke-opacity="0"></use></g></g><g><use xlink:href="#bmTXu92oP" opacity="1" fill="#73ff00" fill-opacity="1"></use><g><use xlink:href="#bmTXu92oP" opacity="1" fill-opacity="0" stroke="#000000" stroke-width="1" stroke-opacity="0"></use></g></g><g><use xlink:href="#bCN8ByJ1n" opacity="1" fill="#0009ff" fill-opacity="1"></use><g><use xlink:href="#bCN8ByJ1n" opacity="1" fill-opacity="0" stroke="#000000" stroke-width="1" stroke-opacity="0"></use></g></g><g><use xlink:href="#c2cbErIJUV" opacity="1" fill="#004fff" fill-opacity="1"></use><g><use xlink:href="#c2cbErIJUV" opacity="1" fill-opacity="0" stroke="#000000" stroke-width="1" stroke-opacity="0"></use></g></g><g><use xlink:href="#a1fhrKXinW" opacity="1" fill="#2cef00" fill-opacity="1"></use><g><use xlink:href="#a1fhrKXinW" opacity="1" fill-opacity="0" stroke="#000000" stroke-width="1" stroke-opacity="0"></use></g></g><g><use xlink:href="#cuYBSGzal" opacity="1" fill="#ff0000" fill-opacity="1"></use><g><use xlink:href="#cuYBSGzal" opacity="1" fill-opacity="0" stroke="#000000" stroke-width="1" stroke-opacity="0"></use></g></g><g><use xlink:href="#a1fxYfhTZS" opacity="1" fill="#ffff00" fill-opacity="1"></use><g><use xlink:href="#a1fxYfhTZS" opacity="1" fill-opacity="0" stroke="#000000" stroke-width="1" stroke-opacity="0"></use></g></g><g><use xlink:href="#a66y39CKcc" opacity="1" fill="#004fff" fill-opacity="1"></use><g><use xlink:href="#a66y39CKcc" opacity="1" fill-opacity="0" stroke="#000000" stroke-width="1" stroke-opacity="0"></use></g></g><g><use xlink:href="#c3S4rEuFGf" opacity="1" fill="#00ff00" fill-opacity="1"></use><g><use xlink:href="#c3S4rEuFGf" opacity="1" fill-opacity="0" stroke="#000000" stroke-width="1" stroke-opacity="0"></use></g></g><g><use xlink:href="#ak3UvVTGI" opacity="1" fill="#ff0000" fill-opacity="1"></use><g><use xlink:href="#ak3UvVTGI" opacity="1" fill-opacity="0" stroke="#000000" stroke-width="1" stroke-opacity="0"></use></g></g><g><use xlink:href="#cp3ADgjFi" opacity="1" fill="#ffffff" fill-opacity="1"></use><g><use xlink:href="#cp3ADgjFi" opacity="1" fill-opacity="0" stroke="#000000" stroke-width="1" stroke-opacity="0"></use></g></g></g></g></svg>