<?xml version="1.0" encoding="iso-8859-1"?>
<!-- Generator: Adobe Illustrator 19.0.0, SVG Export Plug-In . SVG Version: 6.00 Build 0)  -->
<svg version="1.1" id="Layer_1" xmlns="http://www.w3.org/2000/svg" xmlns:xlink="http://www.w3.org/1999/xlink" x="0px" y="0px"
	 viewBox="0 0 511.999 511.999" style="enable-background:new 0 0 511.999 511.999;" xml:space="preserve">
<path style="fill:#F5DCB4;" d="M225.626,485.622c-18.721,0-37.441-7.127-51.695-21.381l-34.466-34.466
	c-33.83-33.83-88.898-33.83-122.729,0l-1.923,1.923c-3.39,3.39-8.881,3.39-12.271,0s-3.39-8.881,0-12.271l1.923-1.923
	c19.669-19.67,45.821-30.501,73.635-30.501s53.966,10.83,73.636,30.5l34.466,34.466c10.534,10.525,24.534,16.331,39.424,16.331
	s28.89-5.806,39.424-16.331c10.525-10.534,16.331-24.534,16.331-39.424s-5.806-28.89-16.331-39.424l-4.339-4.339
	c-28.508-28.508-28.508-74.881,0-103.389l58.576-58.576c3.39-3.39,8.881-3.39,12.271,0s3.39,8.881,0,12.271l-58.576,58.576
	c-21.737,21.737-21.737,57.11,0,78.847l4.339,4.339c28.508,28.508,28.508,74.881,0,103.389
	C263.066,478.495,244.346,485.622,225.626,485.622z"/>
<path style="fill:#FFF082;" d="M288.569,238.568L336.96,39.63c1.892-7.779,8.859-13.253,16.865-13.253h140.818
	c9.586,0,17.356,7.77,17.356,17.356v140.818c0,8.005-5.476,14.972-13.253,16.865l-198.938,48.391
	C293.034,251.454,286.921,245.341,288.569,238.568z"/>
<path style="fill:#FF507D;" d="M494.643,26.377h-140.82c-3.801,0-7.346,1.265-10.247,3.393l165.028,165.028
	c2.128-2.901,3.393-6.446,3.393-10.247V43.732C511.999,34.147,504.226,26.377,494.643,26.377z"/>
<path style="fill:#B4E66E;" d="M494.643,26.377h-140.82c-8.005,0-14.972,5.475-16.863,13.253l-48.391,198.937
	c-0.824,3.387,0.293,6.607,2.461,8.777L506.914,31.461C503.774,28.319,499.435,26.377,494.643,26.377z"/>
<path style="fill:#A0D755;" d="M353.823,26.377c-8.005,0-14.972,5.475-16.863,13.253l-48.391,198.937
	c-0.824,3.387,0.293,6.607,2.461,8.777l123.47-220.967H353.823z"/>
<path style="fill:#00AAF0;" d="M348.344,27.284c-1.716,0.583-3.323,1.425-4.767,2.486l82.514,82.513l80.823-80.823
	c-1.571-1.571-3.441-2.842-5.517-3.72c-2.076-0.879-4.36-1.364-6.756-1.364H353.823c-1.882,0-3.7,0.318-5.41,0.889
	C348.391,27.275,348.367,27.277,348.344,27.284z"/>
<path style="fill:#FF507D;" d="M260.338,332.275h-23.433c-5.991,0-10.847-4.856-10.847-10.847s4.856-10.847,10.847-10.847h23.433
	c5.991,0,10.847,4.856,10.847,10.847C271.185,327.42,266.329,332.275,260.338,332.275z"/>
<path style="fill:#B4E66E;" d="M111.49,423.631c-1.652,0-3.33-0.373-4.899-1.178c-5.348-2.703-7.475-9.238-4.763-14.577
	l10.034-19.772c2.703-5.348,9.254-7.491,14.576-4.763c5.348,2.712,7.475,9.238,4.763,14.576l-10.034,19.772
	C119.261,421.462,115.448,423.631,111.49,423.631z"/>
<path style="fill:#FFF082;" d="M268.117,485.47c-3.466,0-6.882-1.661-8.974-4.746l-12.475-18.339
	c-3.372-4.957-2.085-11.703,2.865-15.068c4.941-3.372,11.703-2.094,15.068,2.865l12.475,18.339
	c3.372,4.957,2.085,11.703-2.865,15.068C272.346,484.86,270.219,485.47,268.117,485.47z"/>
<path style="fill:#0096DC;" d="M348.344,27.284c-1.716,0.583-3.323,1.425-4.766,2.486l44.284,44.283l26.64-47.677h-60.676
	c-1.882,0-3.699,0.318-5.409,0.889C348.392,27.275,348.367,27.277,348.344,27.284z"/>
<g>
</g>
<g>
</g>
<g>
</g>
<g>
</g>
<g>
</g>
<g>
</g>
<g>
</g>
<g>
</g>
<g>
</g>
<g>
</g>
<g>
</g>
<g>
</g>
<g>
</g>
<g>
</g>
<g>
</g>
</svg>
